M48
;DRILL file {KiCad 5.0.1} date Do 10 Jan 2019 18:43:22 CET
;FORMAT={-:-/ absolute / inch / decimal}
FMAT,2
INCH,TZ
T1C0.0315
T2C0.0315
T3C0.0320
T4C0.0394
T5C0.1181
%
G90
G05
M72
T2
X4.1339Y-3.837
X4.1339Y-3.937
X4.1339Y-4.037
T3
X4.0839Y-4.4488
X4.1839Y-4.4488
X3.787Y-3.3933
X3.787Y-3.4933
X3.787Y-3.5933
X3.787Y-3.6933
X4.087Y-3.3933
X4.087Y-3.4933
X4.087Y-3.5933
X4.087Y-3.6933
T4
X3.6417Y-4.0913
X3.6417Y-4.1913
X3.6417Y-4.2913
X3.6417Y-4.3913
X3.6417Y-4.4913
T5
X4.3307Y-4.498
X3.5433Y-3.376
T1
X3.3445Y-3.7362G85X3.3169Y-3.7362
G05
X3.3445Y-4.1378G85X3.3169Y-4.1378
G05
X3.4902Y-3.7362G85X3.4626Y-3.7362
G05
X3.4902Y-4.1378G85X3.4626Y-4.1378
G05
T0
M30
