G04 #@! TF.GenerationSoftware,KiCad,Pcbnew,5.0.1*
G04 #@! TF.CreationDate,2019-01-10T18:43:16+01:00*
G04 #@! TF.ProjectId,arachnorepel,61726163686E6F726570656C2E6B6963,rev?*
G04 #@! TF.SameCoordinates,Original*
G04 #@! TF.FileFunction,Soldermask,Bot*
G04 #@! TF.FilePolarity,Negative*
%FSLAX46Y46*%
G04 Gerber Fmt 4.6, Leading zero omitted, Abs format (unit mm)*
G04 Created by KiCad (PCBNEW 5.0.1) date Do 10 Jan 2019 18:43:16 CET*
%MOMM*%
%LPD*%
G01*
G04 APERTURE LIST*
%ADD10C,0.150000*%
%ADD11C,0.100000*%
G04 APERTURE END LIST*
D10*
X83000000Y-110750000D02*
X83000000Y-103700000D01*
X110750000Y-86250000D02*
G75*
G03X113750000Y-89250000I3000000J0D01*
G01*
X89250000Y-113750000D02*
G75*
G03X86250000Y-110750000I-3000000J0D01*
G01*
X89250000Y-113750000D02*
X89250000Y-117000000D01*
X83000000Y-110750000D02*
X86250000Y-110750000D01*
X110750000Y-86250000D02*
X110750000Y-83000000D01*
X117000000Y-89250000D02*
X113750000Y-89250000D01*
X83000000Y-96300000D02*
X83000000Y-83000000D01*
X117000000Y-117000000D02*
X89250000Y-117000000D01*
X117000000Y-89250000D02*
X117000000Y-117000000D01*
X83000000Y-83000000D02*
X110750000Y-83000000D01*
D11*
G36*
X110331628Y-112582792D02*
X110495834Y-112615455D01*
X110623973Y-112668532D01*
X110805189Y-112743594D01*
X111083607Y-112929627D01*
X111320373Y-113166393D01*
X111506406Y-113444811D01*
X111576171Y-113613239D01*
X111631674Y-113747234D01*
X111634545Y-113754167D01*
X111699870Y-114082576D01*
X111699870Y-114417424D01*
X111634545Y-114745833D01*
X111506406Y-115055189D01*
X111320373Y-115333607D01*
X111083607Y-115570373D01*
X110805189Y-115756406D01*
X110623973Y-115831468D01*
X110495834Y-115884545D01*
X110331628Y-115917208D01*
X110167424Y-115949870D01*
X109832576Y-115949870D01*
X109668372Y-115917208D01*
X109504166Y-115884545D01*
X109376027Y-115831468D01*
X109194811Y-115756406D01*
X108916393Y-115570373D01*
X108679627Y-115333607D01*
X108493594Y-115055189D01*
X108365455Y-114745833D01*
X108300130Y-114417424D01*
X108300130Y-114082576D01*
X108365455Y-113754167D01*
X108368327Y-113747234D01*
X108423829Y-113613239D01*
X108493594Y-113444811D01*
X108679627Y-113166393D01*
X108916393Y-112929627D01*
X109194811Y-112743594D01*
X109376027Y-112668532D01*
X109504166Y-112615455D01*
X109668372Y-112582792D01*
X109832576Y-112550130D01*
X110167424Y-112550130D01*
X110331628Y-112582792D01*
X110331628Y-112582792D01*
G37*
G36*
X103350000Y-115600000D02*
X102150000Y-115600000D01*
X102150000Y-114400000D01*
X103350000Y-114400000D01*
X103350000Y-115600000D01*
X103350000Y-115600000D01*
G37*
G36*
X101850000Y-115600000D02*
X100650000Y-115600000D01*
X100650000Y-114400000D01*
X101850000Y-114400000D01*
X101850000Y-115600000D01*
X101850000Y-115600000D01*
G37*
G36*
X92625888Y-113034470D02*
X92806274Y-113070350D01*
X92997362Y-113149502D01*
X93169336Y-113264411D01*
X93315589Y-113410664D01*
X93430498Y-113582638D01*
X93509650Y-113773726D01*
X93550000Y-113976584D01*
X93550000Y-114183416D01*
X93509650Y-114386274D01*
X93430498Y-114577362D01*
X93315589Y-114749336D01*
X93169336Y-114895589D01*
X92997362Y-115010498D01*
X92806274Y-115089650D01*
X92625888Y-115125530D01*
X92603417Y-115130000D01*
X92396583Y-115130000D01*
X92374112Y-115125530D01*
X92193726Y-115089650D01*
X92002638Y-115010498D01*
X91830664Y-114895589D01*
X91684411Y-114749336D01*
X91569502Y-114577362D01*
X91490350Y-114386274D01*
X91450000Y-114183416D01*
X91450000Y-113976584D01*
X91490350Y-113773726D01*
X91569502Y-113582638D01*
X91684411Y-113410664D01*
X91830664Y-113264411D01*
X92002638Y-113149502D01*
X92193726Y-113070350D01*
X92374112Y-113034470D01*
X92396583Y-113030000D01*
X92603417Y-113030000D01*
X92625888Y-113034470D01*
X92625888Y-113034470D01*
G37*
G36*
X104010603Y-112074968D02*
X104010606Y-112074969D01*
X104010605Y-112074969D01*
X104185678Y-112147486D01*
X104185679Y-112147487D01*
X104343241Y-112252767D01*
X104477233Y-112386759D01*
X104477234Y-112386761D01*
X104582514Y-112544322D01*
X104601434Y-112590000D01*
X104655032Y-112719397D01*
X104692000Y-112905250D01*
X104692000Y-113094750D01*
X104655032Y-113280603D01*
X104655031Y-113280605D01*
X104582514Y-113455678D01*
X104582513Y-113455679D01*
X104477233Y-113613241D01*
X104343241Y-113747233D01*
X104303587Y-113773729D01*
X104185678Y-113852514D01*
X104050266Y-113908603D01*
X104010603Y-113925032D01*
X103824750Y-113962000D01*
X103635250Y-113962000D01*
X103449397Y-113925032D01*
X103409734Y-113908603D01*
X103274322Y-113852514D01*
X103156413Y-113773729D01*
X103116759Y-113747233D01*
X102982767Y-113613241D01*
X102877487Y-113455679D01*
X102877486Y-113455678D01*
X102804969Y-113280605D01*
X102804968Y-113280603D01*
X102768000Y-113094750D01*
X102768000Y-112905250D01*
X102804968Y-112719397D01*
X102858566Y-112590000D01*
X102877486Y-112544322D01*
X102982766Y-112386761D01*
X102982767Y-112386759D01*
X103116759Y-112252767D01*
X103274321Y-112147487D01*
X103274322Y-112147486D01*
X103449395Y-112074969D01*
X103449394Y-112074969D01*
X103449397Y-112074968D01*
X103635250Y-112038000D01*
X103824750Y-112038000D01*
X104010603Y-112074968D01*
X104010603Y-112074968D01*
G37*
G36*
X106560000Y-111825303D02*
X106538689Y-111827402D01*
X106515240Y-111834515D01*
X106493629Y-111846066D01*
X106474687Y-111861612D01*
X106459141Y-111880554D01*
X106447590Y-111902165D01*
X106440477Y-111925614D01*
X106438075Y-111950000D01*
X106440477Y-111974386D01*
X106447590Y-111997835D01*
X106459141Y-112019446D01*
X106474687Y-112038388D01*
X106493629Y-112053934D01*
X106515240Y-112065485D01*
X106538689Y-112072598D01*
X106550603Y-112074968D01*
X106550606Y-112074969D01*
X106550605Y-112074969D01*
X106725678Y-112147486D01*
X106725679Y-112147487D01*
X106883241Y-112252767D01*
X107017233Y-112386759D01*
X107017234Y-112386761D01*
X107122514Y-112544322D01*
X107141434Y-112590000D01*
X107195032Y-112719397D01*
X107232000Y-112905250D01*
X107232000Y-113094750D01*
X107195032Y-113280603D01*
X107195031Y-113280605D01*
X107122514Y-113455678D01*
X107122513Y-113455679D01*
X107017233Y-113613241D01*
X106883241Y-113747233D01*
X106843587Y-113773729D01*
X106725678Y-113852514D01*
X106590266Y-113908603D01*
X106550603Y-113925032D01*
X106364750Y-113962000D01*
X106175250Y-113962000D01*
X105989397Y-113925032D01*
X105949734Y-113908603D01*
X105814322Y-113852514D01*
X105696413Y-113773729D01*
X105656759Y-113747233D01*
X105522767Y-113613241D01*
X105417487Y-113455679D01*
X105417486Y-113455678D01*
X105344969Y-113280605D01*
X105344968Y-113280603D01*
X105308000Y-113094750D01*
X105308000Y-112905250D01*
X105344968Y-112719397D01*
X105398566Y-112590000D01*
X105417486Y-112544322D01*
X105522766Y-112386761D01*
X105522767Y-112386759D01*
X105656759Y-112252767D01*
X105814321Y-112147487D01*
X105814322Y-112147486D01*
X105989395Y-112074969D01*
X105989394Y-112074969D01*
X105989397Y-112074968D01*
X106001311Y-112072598D01*
X106024760Y-112065485D01*
X106046371Y-112053934D01*
X106065313Y-112038389D01*
X106080858Y-112019447D01*
X106092410Y-111997836D01*
X106099523Y-111974387D01*
X106101925Y-111950001D01*
X106099523Y-111925614D01*
X106092410Y-111902165D01*
X106080859Y-111880554D01*
X106065314Y-111861612D01*
X106046372Y-111846067D01*
X106024761Y-111834515D01*
X106001312Y-111827402D01*
X105976925Y-111825000D01*
X104380000Y-111825000D01*
X104380000Y-105175000D01*
X106560000Y-105175000D01*
X106560000Y-111825303D01*
X106560000Y-111825303D01*
G37*
G36*
X92625888Y-110494470D02*
X92806274Y-110530350D01*
X92997362Y-110609502D01*
X93169336Y-110724411D01*
X93315589Y-110870664D01*
X93430498Y-111042638D01*
X93509650Y-111233726D01*
X93550000Y-111436584D01*
X93550000Y-111643416D01*
X93509650Y-111846274D01*
X93430498Y-112037362D01*
X93315589Y-112209336D01*
X93169336Y-112355589D01*
X92997362Y-112470498D01*
X92806274Y-112549650D01*
X92625888Y-112585530D01*
X92603417Y-112590000D01*
X92396583Y-112590000D01*
X92374112Y-112585530D01*
X92193726Y-112549650D01*
X92002638Y-112470498D01*
X91830664Y-112355589D01*
X91684411Y-112209336D01*
X91569502Y-112037362D01*
X91490350Y-111846274D01*
X91450000Y-111643416D01*
X91450000Y-111436584D01*
X91490350Y-111233726D01*
X91569502Y-111042638D01*
X91684411Y-110870664D01*
X91830664Y-110724411D01*
X92002638Y-110609502D01*
X92193726Y-110530350D01*
X92374112Y-110494470D01*
X92396583Y-110490000D01*
X92603417Y-110490000D01*
X92625888Y-110494470D01*
X92625888Y-110494470D01*
G37*
G36*
X100620000Y-111825000D02*
X98440000Y-111825000D01*
X98440000Y-105175000D01*
X100620000Y-105175000D01*
X100620000Y-111825000D01*
X100620000Y-111825000D01*
G37*
G36*
X92625888Y-107954470D02*
X92806274Y-107990350D01*
X92997362Y-108069502D01*
X93169336Y-108184411D01*
X93315589Y-108330664D01*
X93430498Y-108502638D01*
X93509650Y-108693726D01*
X93550000Y-108896584D01*
X93550000Y-109103416D01*
X93509650Y-109306274D01*
X93430498Y-109497362D01*
X93315589Y-109669336D01*
X93169336Y-109815589D01*
X92997362Y-109930498D01*
X92806274Y-110009650D01*
X92625888Y-110045530D01*
X92603417Y-110050000D01*
X92396583Y-110050000D01*
X92374112Y-110045530D01*
X92193726Y-110009650D01*
X92002638Y-109930498D01*
X91830664Y-109815589D01*
X91684411Y-109669336D01*
X91569502Y-109497362D01*
X91490350Y-109306274D01*
X91450000Y-109103416D01*
X91450000Y-108896584D01*
X91490350Y-108693726D01*
X91569502Y-108502638D01*
X91684411Y-108330664D01*
X91830664Y-108184411D01*
X92002638Y-108069502D01*
X92193726Y-107990350D01*
X92374112Y-107954470D01*
X92396583Y-107950000D01*
X92603417Y-107950000D01*
X92625888Y-107954470D01*
X92625888Y-107954470D01*
G37*
G36*
X98100000Y-109850000D02*
X96900000Y-109850000D01*
X96900000Y-108650000D01*
X98100000Y-108650000D01*
X98100000Y-109850000D01*
X98100000Y-109850000D01*
G37*
G36*
X98100000Y-108350000D02*
X96900000Y-108350000D01*
X96900000Y-107150000D01*
X98100000Y-107150000D01*
X98100000Y-108350000D01*
X98100000Y-108350000D01*
G37*
G36*
X110350000Y-108100000D02*
X109150000Y-108100000D01*
X109150000Y-106900000D01*
X110350000Y-106900000D01*
X110350000Y-108100000D01*
X110350000Y-108100000D01*
G37*
G36*
X108850000Y-108100000D02*
X107650000Y-108100000D01*
X107650000Y-106900000D01*
X108850000Y-106900000D01*
X108850000Y-108100000D01*
X108850000Y-108100000D01*
G37*
G36*
X92625888Y-105414470D02*
X92806274Y-105450350D01*
X92997362Y-105529502D01*
X93169336Y-105644411D01*
X93315589Y-105790664D01*
X93430498Y-105962638D01*
X93509650Y-106153726D01*
X93550000Y-106356584D01*
X93550000Y-106563416D01*
X93509650Y-106766274D01*
X93430498Y-106957362D01*
X93315589Y-107129336D01*
X93169336Y-107275589D01*
X92997362Y-107390498D01*
X92806274Y-107469650D01*
X92625888Y-107505530D01*
X92603417Y-107510000D01*
X92396583Y-107510000D01*
X92374112Y-107505530D01*
X92193726Y-107469650D01*
X92002638Y-107390498D01*
X91830664Y-107275589D01*
X91684411Y-107129336D01*
X91569502Y-106957362D01*
X91490350Y-106766274D01*
X91450000Y-106563416D01*
X91450000Y-106356584D01*
X91490350Y-106153726D01*
X91569502Y-105962638D01*
X91684411Y-105790664D01*
X91830664Y-105644411D01*
X92002638Y-105529502D01*
X92193726Y-105450350D01*
X92374112Y-105414470D01*
X92396583Y-105410000D01*
X92603417Y-105410000D01*
X92625888Y-105414470D01*
X92625888Y-105414470D01*
G37*
G36*
X108850000Y-106600000D02*
X107650000Y-106600000D01*
X107650000Y-105400000D01*
X108850000Y-105400000D01*
X108850000Y-106600000D01*
X108850000Y-106600000D01*
G37*
G36*
X110350000Y-106600000D02*
X109150000Y-106600000D01*
X109150000Y-105400000D01*
X110350000Y-105400000D01*
X110350000Y-106600000D01*
X110350000Y-106600000D01*
G37*
G36*
X85096030Y-104114469D02*
X85096033Y-104114470D01*
X85096034Y-104114470D01*
X85284535Y-104171651D01*
X85284537Y-104171652D01*
X85458260Y-104264509D01*
X85610528Y-104389472D01*
X85735491Y-104541740D01*
X85735492Y-104541742D01*
X85828349Y-104715465D01*
X85885530Y-104903966D01*
X85885531Y-104903970D01*
X85904838Y-105100000D01*
X85885531Y-105296030D01*
X85885530Y-105296033D01*
X85885530Y-105296034D01*
X85838719Y-105450351D01*
X85828348Y-105484537D01*
X85735491Y-105658260D01*
X85610528Y-105810528D01*
X85458260Y-105935491D01*
X85384344Y-105975000D01*
X85284535Y-106028349D01*
X85096034Y-106085530D01*
X85096033Y-106085530D01*
X85096030Y-106085531D01*
X84949124Y-106100000D01*
X84250876Y-106100000D01*
X84103970Y-106085531D01*
X84103967Y-106085530D01*
X84103966Y-106085530D01*
X83915465Y-106028349D01*
X83815656Y-105975000D01*
X83741740Y-105935491D01*
X83589472Y-105810528D01*
X83464509Y-105658260D01*
X83371652Y-105484537D01*
X83361282Y-105450351D01*
X83314470Y-105296034D01*
X83314470Y-105296033D01*
X83314469Y-105296030D01*
X83295162Y-105100000D01*
X83314469Y-104903970D01*
X83314470Y-104903966D01*
X83371651Y-104715465D01*
X83464508Y-104541742D01*
X83464509Y-104541740D01*
X83589472Y-104389472D01*
X83741740Y-104264509D01*
X83915463Y-104171652D01*
X83915465Y-104171651D01*
X84103966Y-104114470D01*
X84103967Y-104114470D01*
X84103970Y-104114469D01*
X84250876Y-104100000D01*
X84949124Y-104100000D01*
X85096030Y-104114469D01*
X85096030Y-104114469D01*
G37*
G36*
X88796030Y-104114469D02*
X88796033Y-104114470D01*
X88796034Y-104114470D01*
X88984535Y-104171651D01*
X88984537Y-104171652D01*
X89158260Y-104264509D01*
X89310528Y-104389472D01*
X89435491Y-104541740D01*
X89435492Y-104541742D01*
X89528349Y-104715465D01*
X89585530Y-104903966D01*
X89585531Y-104903970D01*
X89604838Y-105100000D01*
X89585531Y-105296030D01*
X89585530Y-105296033D01*
X89585530Y-105296034D01*
X89538719Y-105450351D01*
X89528348Y-105484537D01*
X89435491Y-105658260D01*
X89310528Y-105810528D01*
X89158260Y-105935491D01*
X89084344Y-105975000D01*
X88984535Y-106028349D01*
X88796034Y-106085530D01*
X88796033Y-106085530D01*
X88796030Y-106085531D01*
X88649124Y-106100000D01*
X87950876Y-106100000D01*
X87803970Y-106085531D01*
X87803967Y-106085530D01*
X87803966Y-106085530D01*
X87615465Y-106028349D01*
X87515656Y-105975000D01*
X87441740Y-105935491D01*
X87289472Y-105810528D01*
X87164509Y-105658260D01*
X87071652Y-105484537D01*
X87061282Y-105450351D01*
X87014470Y-105296034D01*
X87014470Y-105296033D01*
X87014469Y-105296030D01*
X86995162Y-105100000D01*
X87014469Y-104903970D01*
X87014470Y-104903966D01*
X87071651Y-104715465D01*
X87164508Y-104541742D01*
X87164509Y-104541740D01*
X87289472Y-104389472D01*
X87441740Y-104264509D01*
X87615463Y-104171652D01*
X87615465Y-104171651D01*
X87803966Y-104114470D01*
X87803967Y-104114470D01*
X87803970Y-104114469D01*
X87950876Y-104100000D01*
X88649124Y-104100000D01*
X88796030Y-104114469D01*
X88796030Y-104114469D01*
G37*
G36*
X92625888Y-102874470D02*
X92806274Y-102910350D01*
X92997362Y-102989502D01*
X93169336Y-103104411D01*
X93315589Y-103250664D01*
X93430498Y-103422638D01*
X93509650Y-103613726D01*
X93550000Y-103816584D01*
X93550000Y-104023416D01*
X93509650Y-104226274D01*
X93430498Y-104417362D01*
X93315589Y-104589336D01*
X93169336Y-104735589D01*
X92997362Y-104850498D01*
X92806274Y-104929650D01*
X92625888Y-104965530D01*
X92603417Y-104970000D01*
X92396583Y-104970000D01*
X92374112Y-104965530D01*
X92193726Y-104929650D01*
X92002638Y-104850498D01*
X91830664Y-104735589D01*
X91684411Y-104589336D01*
X91569502Y-104417362D01*
X91490350Y-104226274D01*
X91450000Y-104023416D01*
X91450000Y-103816584D01*
X91490350Y-103613726D01*
X91569502Y-103422638D01*
X91684411Y-103250664D01*
X91830664Y-103104411D01*
X92002638Y-102989502D01*
X92193726Y-102910350D01*
X92374112Y-102874470D01*
X92396583Y-102870000D01*
X92603417Y-102870000D01*
X92625888Y-102874470D01*
X92625888Y-102874470D01*
G37*
G36*
X102850000Y-104100000D02*
X101650000Y-104100000D01*
X101650000Y-102900000D01*
X102850000Y-102900000D01*
X102850000Y-104100000D01*
X102850000Y-104100000D01*
G37*
G36*
X101350000Y-104100000D02*
X100150000Y-104100000D01*
X100150000Y-102900000D01*
X101350000Y-102900000D01*
X101350000Y-104100000D01*
X101350000Y-104100000D01*
G37*
G36*
X105349876Y-96306605D02*
X105568172Y-96397026D01*
X105764633Y-96528297D01*
X105931703Y-96695367D01*
X106062974Y-96891828D01*
X106153395Y-97110124D01*
X106199490Y-97341859D01*
X106199490Y-97578141D01*
X106153395Y-97809876D01*
X106062974Y-98028172D01*
X105931703Y-98224633D01*
X105764633Y-98391703D01*
X105568172Y-98522974D01*
X105347173Y-98614515D01*
X105325563Y-98626066D01*
X105306621Y-98641612D01*
X105291075Y-98660554D01*
X105279524Y-98682165D01*
X105272411Y-98705614D01*
X105270009Y-98730000D01*
X105272411Y-98754386D01*
X105279524Y-98777836D01*
X105291075Y-98799446D01*
X105306621Y-98818388D01*
X105325563Y-98833934D01*
X105347173Y-98845485D01*
X105568172Y-98937026D01*
X105764633Y-99068297D01*
X105931703Y-99235367D01*
X106062974Y-99431828D01*
X106153395Y-99650124D01*
X106199490Y-99881859D01*
X106199490Y-100118141D01*
X106153395Y-100349876D01*
X106062974Y-100568172D01*
X105931703Y-100764633D01*
X105764633Y-100931703D01*
X105568172Y-101062974D01*
X105347173Y-101154515D01*
X105325563Y-101166066D01*
X105306621Y-101181612D01*
X105291075Y-101200554D01*
X105279524Y-101222165D01*
X105272411Y-101245614D01*
X105270009Y-101270000D01*
X105272411Y-101294386D01*
X105279524Y-101317836D01*
X105291075Y-101339446D01*
X105306621Y-101358388D01*
X105325563Y-101373934D01*
X105347173Y-101385485D01*
X105568172Y-101477026D01*
X105764633Y-101608297D01*
X105931703Y-101775367D01*
X106062974Y-101971828D01*
X106153395Y-102190124D01*
X106199490Y-102421859D01*
X106199490Y-102658141D01*
X106153395Y-102889876D01*
X106062974Y-103108172D01*
X105931703Y-103304633D01*
X105764633Y-103471703D01*
X105568172Y-103602974D01*
X105349876Y-103693395D01*
X105118141Y-103739490D01*
X104881859Y-103739490D01*
X104650124Y-103693395D01*
X104431828Y-103602974D01*
X104235367Y-103471703D01*
X104068297Y-103304633D01*
X103937026Y-103108172D01*
X103846605Y-102889876D01*
X103800510Y-102658141D01*
X103800510Y-102421859D01*
X103846605Y-102190124D01*
X103937026Y-101971828D01*
X104068297Y-101775367D01*
X104235367Y-101608297D01*
X104431828Y-101477026D01*
X104652827Y-101385485D01*
X104674437Y-101373934D01*
X104693379Y-101358388D01*
X104708925Y-101339446D01*
X104720476Y-101317835D01*
X104727589Y-101294386D01*
X104729991Y-101270000D01*
X104727589Y-101245614D01*
X104720476Y-101222164D01*
X104708925Y-101200554D01*
X104693379Y-101181612D01*
X104674437Y-101166066D01*
X104652827Y-101154515D01*
X104431828Y-101062974D01*
X104235367Y-100931703D01*
X104068297Y-100764633D01*
X103937026Y-100568172D01*
X103846605Y-100349876D01*
X103800510Y-100118141D01*
X103800510Y-99881859D01*
X103846605Y-99650124D01*
X103937026Y-99431828D01*
X104068297Y-99235367D01*
X104235367Y-99068297D01*
X104431828Y-98937026D01*
X104652827Y-98845485D01*
X104674437Y-98833934D01*
X104693379Y-98818388D01*
X104708925Y-98799446D01*
X104720476Y-98777835D01*
X104727589Y-98754386D01*
X104729991Y-98730000D01*
X104727589Y-98705614D01*
X104720476Y-98682164D01*
X104708925Y-98660554D01*
X104693379Y-98641612D01*
X104674437Y-98626066D01*
X104652827Y-98614515D01*
X104431828Y-98522974D01*
X104235367Y-98391703D01*
X104068297Y-98224633D01*
X103937026Y-98028172D01*
X103846605Y-97809876D01*
X103800510Y-97578141D01*
X103800510Y-97341859D01*
X103846605Y-97110124D01*
X103937026Y-96891828D01*
X104068297Y-96695367D01*
X104235367Y-96528297D01*
X104431828Y-96397026D01*
X104650124Y-96306605D01*
X104881859Y-96260510D01*
X105118141Y-96260510D01*
X105349876Y-96306605D01*
X105349876Y-96306605D01*
G37*
G36*
X89550000Y-103100000D02*
X87650000Y-103100000D01*
X87650000Y-96900000D01*
X89550000Y-96900000D01*
X89550000Y-103100000D01*
X89550000Y-103100000D01*
G37*
G36*
X108949430Y-102899260D02*
X107998250Y-102899260D01*
X107998250Y-101498500D01*
X108949430Y-101498500D01*
X108949430Y-102899260D01*
X108949430Y-102899260D01*
G37*
G36*
X110976350Y-102899260D02*
X110025170Y-102899260D01*
X110025170Y-101498500D01*
X110976350Y-101498500D01*
X110976350Y-102899260D01*
X110976350Y-102899260D01*
G37*
G36*
X100949430Y-102399260D02*
X99998250Y-102399260D01*
X99998250Y-100998500D01*
X100949430Y-100998500D01*
X100949430Y-102399260D01*
X100949430Y-102399260D01*
G37*
G36*
X102976350Y-102399260D02*
X102025170Y-102399260D01*
X102025170Y-100998500D01*
X102976350Y-100998500D01*
X102976350Y-102399260D01*
X102976350Y-102399260D01*
G37*
G36*
X97600000Y-101850000D02*
X96400000Y-101850000D01*
X96400000Y-100650000D01*
X97600000Y-100650000D01*
X97600000Y-101850000D01*
X97600000Y-101850000D01*
G37*
G36*
X99100000Y-101850000D02*
X97900000Y-101850000D01*
X97900000Y-100650000D01*
X99100000Y-100650000D01*
X99100000Y-101850000D01*
X99100000Y-101850000D01*
G37*
G36*
X109975590Y-100501500D02*
X109024410Y-100501500D01*
X109024410Y-99100740D01*
X109975590Y-99100740D01*
X109975590Y-100501500D01*
X109975590Y-100501500D01*
G37*
G36*
X99100000Y-100350000D02*
X97900000Y-100350000D01*
X97900000Y-99150000D01*
X99100000Y-99150000D01*
X99100000Y-100350000D01*
X99100000Y-100350000D01*
G37*
G36*
X97600000Y-100350000D02*
X96400000Y-100350000D01*
X96400000Y-99150000D01*
X97600000Y-99150000D01*
X97600000Y-100350000D01*
X97600000Y-100350000D01*
G37*
G36*
X101975590Y-100001500D02*
X101024410Y-100001500D01*
X101024410Y-98600740D01*
X101975590Y-98600740D01*
X101975590Y-100001500D01*
X101975590Y-100001500D01*
G37*
G36*
X109350000Y-98100000D02*
X108150000Y-98100000D01*
X108150000Y-96900000D01*
X109350000Y-96900000D01*
X109350000Y-98100000D01*
X109350000Y-98100000D01*
G37*
G36*
X110850000Y-98100000D02*
X109650000Y-98100000D01*
X109650000Y-96900000D01*
X110850000Y-96900000D01*
X110850000Y-98100000D01*
X110850000Y-98100000D01*
G37*
G36*
X88796030Y-93914469D02*
X88796033Y-93914470D01*
X88796034Y-93914470D01*
X88984535Y-93971651D01*
X88984537Y-93971652D01*
X89158260Y-94064509D01*
X89310528Y-94189472D01*
X89435491Y-94341740D01*
X89435492Y-94341742D01*
X89528349Y-94515465D01*
X89585530Y-94703966D01*
X89585531Y-94703970D01*
X89604838Y-94900000D01*
X89585531Y-95096030D01*
X89528348Y-95284537D01*
X89435491Y-95458260D01*
X89310528Y-95610528D01*
X89158260Y-95735491D01*
X89158258Y-95735492D01*
X88984535Y-95828349D01*
X88796034Y-95885530D01*
X88796033Y-95885530D01*
X88796030Y-95885531D01*
X88649124Y-95900000D01*
X87950876Y-95900000D01*
X87803970Y-95885531D01*
X87803967Y-95885530D01*
X87803966Y-95885530D01*
X87615465Y-95828349D01*
X87441742Y-95735492D01*
X87441740Y-95735491D01*
X87289472Y-95610528D01*
X87164509Y-95458260D01*
X87071652Y-95284537D01*
X87014469Y-95096030D01*
X86995162Y-94900000D01*
X87014469Y-94703970D01*
X87014470Y-94703966D01*
X87071651Y-94515465D01*
X87164508Y-94341742D01*
X87164509Y-94341740D01*
X87289472Y-94189472D01*
X87441740Y-94064509D01*
X87615463Y-93971652D01*
X87615465Y-93971651D01*
X87803966Y-93914470D01*
X87803967Y-93914470D01*
X87803970Y-93914469D01*
X87950876Y-93900000D01*
X88649124Y-93900000D01*
X88796030Y-93914469D01*
X88796030Y-93914469D01*
G37*
G36*
X85096030Y-93914469D02*
X85096033Y-93914470D01*
X85096034Y-93914470D01*
X85284535Y-93971651D01*
X85284537Y-93971652D01*
X85458260Y-94064509D01*
X85610528Y-94189472D01*
X85735491Y-94341740D01*
X85735492Y-94341742D01*
X85828349Y-94515465D01*
X85885530Y-94703966D01*
X85885531Y-94703970D01*
X85904838Y-94900000D01*
X85885531Y-95096030D01*
X85828348Y-95284537D01*
X85735491Y-95458260D01*
X85610528Y-95610528D01*
X85458260Y-95735491D01*
X85458258Y-95735492D01*
X85284535Y-95828349D01*
X85096034Y-95885530D01*
X85096033Y-95885530D01*
X85096030Y-95885531D01*
X84949124Y-95900000D01*
X84250876Y-95900000D01*
X84103970Y-95885531D01*
X84103967Y-95885530D01*
X84103966Y-95885530D01*
X83915465Y-95828349D01*
X83741742Y-95735492D01*
X83741740Y-95735491D01*
X83589472Y-95610528D01*
X83464509Y-95458260D01*
X83371652Y-95284537D01*
X83314469Y-95096030D01*
X83295162Y-94900000D01*
X83314469Y-94703970D01*
X83314470Y-94703966D01*
X83371651Y-94515465D01*
X83464508Y-94341742D01*
X83464509Y-94341740D01*
X83589472Y-94189472D01*
X83741740Y-94064509D01*
X83915463Y-93971652D01*
X83915465Y-93971651D01*
X84103966Y-93914470D01*
X84103967Y-93914470D01*
X84103970Y-93914469D01*
X84250876Y-93900000D01*
X84949124Y-93900000D01*
X85096030Y-93914469D01*
X85096030Y-93914469D01*
G37*
G36*
X96315888Y-92764470D02*
X96496274Y-92800350D01*
X96687362Y-92879502D01*
X96859336Y-92994411D01*
X97005589Y-93140664D01*
X97120498Y-93312638D01*
X97199650Y-93503726D01*
X97235530Y-93684112D01*
X97240000Y-93706583D01*
X97240000Y-93913417D01*
X97235530Y-93935888D01*
X97199650Y-94116274D01*
X97120498Y-94307362D01*
X97005589Y-94479336D01*
X96859336Y-94625589D01*
X96687362Y-94740498D01*
X96496274Y-94819650D01*
X96315888Y-94855530D01*
X96293417Y-94860000D01*
X96086583Y-94860000D01*
X96064112Y-94855530D01*
X95883726Y-94819650D01*
X95692638Y-94740498D01*
X95520664Y-94625589D01*
X95374411Y-94479336D01*
X95259502Y-94307362D01*
X95180350Y-94116274D01*
X95144470Y-93935888D01*
X95140000Y-93913417D01*
X95140000Y-93706583D01*
X95144470Y-93684112D01*
X95180350Y-93503726D01*
X95259502Y-93312638D01*
X95374411Y-93140664D01*
X95520664Y-92994411D01*
X95692638Y-92879502D01*
X95883726Y-92800350D01*
X96064112Y-92764470D01*
X96086583Y-92760000D01*
X96293417Y-92760000D01*
X96315888Y-92764470D01*
X96315888Y-92764470D01*
G37*
G36*
X103935888Y-92764470D02*
X104116274Y-92800350D01*
X104307362Y-92879502D01*
X104479336Y-92994411D01*
X104625589Y-93140664D01*
X104740498Y-93312638D01*
X104819650Y-93503726D01*
X104855530Y-93684112D01*
X104860000Y-93706583D01*
X104860000Y-93913417D01*
X104855530Y-93935888D01*
X104819650Y-94116274D01*
X104740498Y-94307362D01*
X104625589Y-94479336D01*
X104479336Y-94625589D01*
X104307362Y-94740498D01*
X104116274Y-94819650D01*
X103935888Y-94855530D01*
X103913417Y-94860000D01*
X103706583Y-94860000D01*
X103684112Y-94855530D01*
X103503726Y-94819650D01*
X103312638Y-94740498D01*
X103140664Y-94625589D01*
X102994411Y-94479336D01*
X102879502Y-94307362D01*
X102800350Y-94116274D01*
X102764470Y-93935888D01*
X102760000Y-93913417D01*
X102760000Y-93706583D01*
X102764470Y-93684112D01*
X102800350Y-93503726D01*
X102879502Y-93312638D01*
X102994411Y-93140664D01*
X103140664Y-92994411D01*
X103312638Y-92879502D01*
X103503726Y-92800350D01*
X103684112Y-92764470D01*
X103706583Y-92760000D01*
X103913417Y-92760000D01*
X103935888Y-92764470D01*
X103935888Y-92764470D01*
G37*
G36*
X96315888Y-90224470D02*
X96496274Y-90260350D01*
X96687362Y-90339502D01*
X96859336Y-90454411D01*
X97005589Y-90600664D01*
X97120498Y-90772638D01*
X97199650Y-90963726D01*
X97240000Y-91166584D01*
X97240000Y-91373416D01*
X97199650Y-91576274D01*
X97120498Y-91767362D01*
X97005589Y-91939336D01*
X96859336Y-92085589D01*
X96687362Y-92200498D01*
X96496274Y-92279650D01*
X96315888Y-92315530D01*
X96293417Y-92320000D01*
X96086583Y-92320000D01*
X96064112Y-92315530D01*
X95883726Y-92279650D01*
X95692638Y-92200498D01*
X95520664Y-92085589D01*
X95374411Y-91939336D01*
X95259502Y-91767362D01*
X95180350Y-91576274D01*
X95140000Y-91373416D01*
X95140000Y-91166584D01*
X95180350Y-90963726D01*
X95259502Y-90772638D01*
X95374411Y-90600664D01*
X95520664Y-90454411D01*
X95692638Y-90339502D01*
X95883726Y-90260350D01*
X96064112Y-90224470D01*
X96086583Y-90220000D01*
X96293417Y-90220000D01*
X96315888Y-90224470D01*
X96315888Y-90224470D01*
G37*
G36*
X103935888Y-90224470D02*
X104116274Y-90260350D01*
X104307362Y-90339502D01*
X104479336Y-90454411D01*
X104625589Y-90600664D01*
X104740498Y-90772638D01*
X104819650Y-90963726D01*
X104860000Y-91166584D01*
X104860000Y-91373416D01*
X104819650Y-91576274D01*
X104740498Y-91767362D01*
X104625589Y-91939336D01*
X104479336Y-92085589D01*
X104307362Y-92200498D01*
X104116274Y-92279650D01*
X103935888Y-92315530D01*
X103913417Y-92320000D01*
X103706583Y-92320000D01*
X103684112Y-92315530D01*
X103503726Y-92279650D01*
X103312638Y-92200498D01*
X103140664Y-92085589D01*
X102994411Y-91939336D01*
X102879502Y-91767362D01*
X102800350Y-91576274D01*
X102760000Y-91373416D01*
X102760000Y-91166584D01*
X102800350Y-90963726D01*
X102879502Y-90772638D01*
X102994411Y-90600664D01*
X103140664Y-90454411D01*
X103312638Y-90339502D01*
X103503726Y-90260350D01*
X103684112Y-90224470D01*
X103706583Y-90220000D01*
X103913417Y-90220000D01*
X103935888Y-90224470D01*
X103935888Y-90224470D01*
G37*
G36*
X103935888Y-87684470D02*
X104116274Y-87720350D01*
X104307362Y-87799502D01*
X104479336Y-87914411D01*
X104625589Y-88060664D01*
X104740498Y-88232638D01*
X104819650Y-88423726D01*
X104860000Y-88626584D01*
X104860000Y-88833416D01*
X104819650Y-89036274D01*
X104740498Y-89227362D01*
X104625589Y-89399336D01*
X104479336Y-89545589D01*
X104307362Y-89660498D01*
X104116274Y-89739650D01*
X103935888Y-89775530D01*
X103913417Y-89780000D01*
X103706583Y-89780000D01*
X103684112Y-89775530D01*
X103503726Y-89739650D01*
X103312638Y-89660498D01*
X103140664Y-89545589D01*
X102994411Y-89399336D01*
X102879502Y-89227362D01*
X102800350Y-89036274D01*
X102760000Y-88833416D01*
X102760000Y-88626584D01*
X102800350Y-88423726D01*
X102879502Y-88232638D01*
X102994411Y-88060664D01*
X103140664Y-87914411D01*
X103312638Y-87799502D01*
X103503726Y-87720350D01*
X103684112Y-87684470D01*
X103706583Y-87680000D01*
X103913417Y-87680000D01*
X103935888Y-87684470D01*
X103935888Y-87684470D01*
G37*
G36*
X96315888Y-87684470D02*
X96496274Y-87720350D01*
X96687362Y-87799502D01*
X96859336Y-87914411D01*
X97005589Y-88060664D01*
X97120498Y-88232638D01*
X97199650Y-88423726D01*
X97240000Y-88626584D01*
X97240000Y-88833416D01*
X97199650Y-89036274D01*
X97120498Y-89227362D01*
X97005589Y-89399336D01*
X96859336Y-89545589D01*
X96687362Y-89660498D01*
X96496274Y-89739650D01*
X96315888Y-89775530D01*
X96293417Y-89780000D01*
X96086583Y-89780000D01*
X96064112Y-89775530D01*
X95883726Y-89739650D01*
X95692638Y-89660498D01*
X95520664Y-89545589D01*
X95374411Y-89399336D01*
X95259502Y-89227362D01*
X95180350Y-89036274D01*
X95140000Y-88833416D01*
X95140000Y-88626584D01*
X95180350Y-88423726D01*
X95259502Y-88232638D01*
X95374411Y-88060664D01*
X95520664Y-87914411D01*
X95692638Y-87799502D01*
X95883726Y-87720350D01*
X96064112Y-87684470D01*
X96086583Y-87680000D01*
X96293417Y-87680000D01*
X96315888Y-87684470D01*
X96315888Y-87684470D01*
G37*
G36*
X90331628Y-84082792D02*
X90495834Y-84115455D01*
X90623973Y-84168532D01*
X90805189Y-84243594D01*
X91083607Y-84429627D01*
X91320373Y-84666393D01*
X91506406Y-84944811D01*
X91581468Y-85126027D01*
X91634545Y-85254166D01*
X91658463Y-85374411D01*
X91699870Y-85582576D01*
X91699870Y-85917424D01*
X91634545Y-86245833D01*
X91506406Y-86555189D01*
X91320373Y-86833607D01*
X91083607Y-87070373D01*
X90805189Y-87256406D01*
X90623973Y-87331468D01*
X90495834Y-87384545D01*
X90331629Y-87417207D01*
X90167424Y-87449870D01*
X89832576Y-87449870D01*
X89668371Y-87417207D01*
X89504166Y-87384545D01*
X89376027Y-87331468D01*
X89194811Y-87256406D01*
X88916393Y-87070373D01*
X88679627Y-86833607D01*
X88493594Y-86555189D01*
X88365455Y-86245833D01*
X88300130Y-85917424D01*
X88300130Y-85582576D01*
X88341537Y-85374411D01*
X88365455Y-85254166D01*
X88418532Y-85126027D01*
X88493594Y-84944811D01*
X88679627Y-84666393D01*
X88916393Y-84429627D01*
X89194811Y-84243594D01*
X89376027Y-84168532D01*
X89504166Y-84115455D01*
X89668372Y-84082792D01*
X89832576Y-84050130D01*
X90167424Y-84050130D01*
X90331628Y-84082792D01*
X90331628Y-84082792D01*
G37*
G36*
X103935888Y-85144470D02*
X104116274Y-85180350D01*
X104307362Y-85259502D01*
X104479336Y-85374411D01*
X104625589Y-85520664D01*
X104740498Y-85692638D01*
X104819650Y-85883726D01*
X104860000Y-86086584D01*
X104860000Y-86293416D01*
X104819650Y-86496274D01*
X104740498Y-86687362D01*
X104625589Y-86859336D01*
X104479336Y-87005589D01*
X104307362Y-87120498D01*
X104116274Y-87199650D01*
X103935888Y-87235530D01*
X103913417Y-87240000D01*
X103706583Y-87240000D01*
X103684112Y-87235530D01*
X103503726Y-87199650D01*
X103312638Y-87120498D01*
X103140664Y-87005589D01*
X102994411Y-86859336D01*
X102879502Y-86687362D01*
X102800350Y-86496274D01*
X102760000Y-86293416D01*
X102760000Y-86086584D01*
X102800350Y-85883726D01*
X102879502Y-85692638D01*
X102994411Y-85520664D01*
X103140664Y-85374411D01*
X103312638Y-85259502D01*
X103503726Y-85180350D01*
X103684112Y-85144470D01*
X103706583Y-85140000D01*
X103913417Y-85140000D01*
X103935888Y-85144470D01*
X103935888Y-85144470D01*
G37*
G36*
X96315888Y-85144470D02*
X96496274Y-85180350D01*
X96687362Y-85259502D01*
X96859336Y-85374411D01*
X97005589Y-85520664D01*
X97120498Y-85692638D01*
X97199650Y-85883726D01*
X97240000Y-86086584D01*
X97240000Y-86293416D01*
X97199650Y-86496274D01*
X97120498Y-86687362D01*
X97005589Y-86859336D01*
X96859336Y-87005589D01*
X96687362Y-87120498D01*
X96496274Y-87199650D01*
X96315888Y-87235530D01*
X96293417Y-87240000D01*
X96086583Y-87240000D01*
X96064112Y-87235530D01*
X95883726Y-87199650D01*
X95692638Y-87120498D01*
X95520664Y-87005589D01*
X95374411Y-86859336D01*
X95259502Y-86687362D01*
X95180350Y-86496274D01*
X95140000Y-86293416D01*
X95140000Y-86086584D01*
X95180350Y-85883726D01*
X95259502Y-85692638D01*
X95374411Y-85520664D01*
X95520664Y-85374411D01*
X95692638Y-85259502D01*
X95883726Y-85180350D01*
X96064112Y-85144470D01*
X96086583Y-85140000D01*
X96293417Y-85140000D01*
X96315888Y-85144470D01*
X96315888Y-85144470D01*
G37*
M02*
