G04 #@! TF.GenerationSoftware,KiCad,Pcbnew,5.0.1*
G04 #@! TF.CreationDate,2019-01-10T18:43:16+01:00*
G04 #@! TF.ProjectId,arachnorepel,61726163686E6F726570656C2E6B6963,rev?*
G04 #@! TF.SameCoordinates,Original*
G04 #@! TF.FileFunction,Copper,L1,Top,Signal*
G04 #@! TF.FilePolarity,Positive*
%FSLAX46Y46*%
G04 Gerber Fmt 4.6, Leading zero omitted, Abs format (unit mm)*
G04 Created by KiCad (PCBNEW 5.0.1) date Do 10 Jan 2019 18:43:16 CET*
%MOMM*%
%LPD*%
G01*
G04 APERTURE LIST*
G04 #@! TA.AperFunction,NonConductor*
%ADD10C,0.200000*%
G04 #@! TD*
G04 #@! TA.AperFunction,NonConductor*
%ADD11C,0.150000*%
G04 #@! TD*
G04 #@! TA.AperFunction,EtchedComponent*
%ADD12C,0.150000*%
G04 #@! TD*
G04 #@! TA.AperFunction,ComponentPad*
%ADD13C,2.999740*%
G04 #@! TD*
G04 #@! TA.AperFunction,ComponentPad*
%ADD14C,1.998980*%
G04 #@! TD*
G04 #@! TA.AperFunction,ComponentPad*
%ADD15C,1.700000*%
G04 #@! TD*
G04 #@! TA.AperFunction,ComponentPad*
%ADD16C,1.524000*%
G04 #@! TD*
G04 #@! TA.AperFunction,Conductor*
%ADD17C,0.254000*%
G04 #@! TD*
G04 APERTURE END LIST*
D10*
X113940476Y-115452380D02*
X114511904Y-115452380D01*
X114226190Y-116452380D02*
X114226190Y-115452380D01*
X115035714Y-115452380D02*
X115226190Y-115452380D01*
X115321428Y-115500000D01*
X115416666Y-115595238D01*
X115464285Y-115785714D01*
X115464285Y-116119047D01*
X115416666Y-116309523D01*
X115321428Y-116404761D01*
X115226190Y-116452380D01*
X115035714Y-116452380D01*
X114940476Y-116404761D01*
X114845238Y-116309523D01*
X114797619Y-116119047D01*
X114797619Y-115785714D01*
X114845238Y-115595238D01*
X114940476Y-115500000D01*
X115035714Y-115452380D01*
X115892857Y-116452380D02*
X115892857Y-115452380D01*
X116273809Y-115452380D01*
X116369047Y-115500000D01*
X116416666Y-115547619D01*
X116464285Y-115642857D01*
X116464285Y-115785714D01*
X116416666Y-115880952D01*
X116369047Y-115928571D01*
X116273809Y-115976190D01*
X115892857Y-115976190D01*
D11*
X83000000Y-110750000D02*
X83000000Y-103700000D01*
X110750000Y-86250000D02*
G75*
G03X113750000Y-89250000I3000000J0D01*
G01*
X89250000Y-113750000D02*
G75*
G03X86250000Y-110750000I-3000000J0D01*
G01*
X89250000Y-113750000D02*
X89250000Y-117000000D01*
X83000000Y-110750000D02*
X86250000Y-110750000D01*
X110750000Y-86250000D02*
X110750000Y-83000000D01*
X117000000Y-89250000D02*
X113750000Y-89250000D01*
X83000000Y-96300000D02*
X83000000Y-83000000D01*
X117000000Y-117000000D02*
X89250000Y-117000000D01*
X117000000Y-89250000D02*
X117000000Y-117000000D01*
X83000000Y-83000000D02*
X110750000Y-83000000D01*
D12*
G04 #@! TO.C,K2*
X87600000Y-103700000D02*
X83000000Y-103700000D01*
X87600000Y-96300000D02*
X87600000Y-103700000D01*
X83000000Y-96300000D02*
X87600000Y-96300000D01*
G04 #@! TD*
D13*
G04 #@! TO.P,HOLE_3mm,1*
G04 #@! TO.N,N/C*
X90000000Y-85750000D03*
G04 #@! TD*
G04 #@! TO.P,HOLE_3mm,1*
G04 #@! TO.N,N/C*
X110000000Y-114250000D03*
G04 #@! TD*
D14*
G04 #@! TO.P,K1,3*
G04 #@! TO.N,GND*
X105000000Y-102540000D03*
G04 #@! TO.P,K1,2*
G04 #@! TO.N,/DO*
X105000000Y-100000000D03*
G04 #@! TO.P,K1,1*
G04 #@! TO.N,+5V*
X105000000Y-97460000D03*
G04 #@! TD*
D15*
G04 #@! TO.P,K3,1*
G04 #@! TO.N,+3\002C3V*
X92500000Y-114080000D03*
G04 #@! TO.P,K3,2*
G04 #@! TO.N,/NRST*
X92500000Y-111540000D03*
G04 #@! TO.P,K3,3*
G04 #@! TO.N,/SWDIO*
X92500000Y-109000000D03*
G04 #@! TO.P,K3,4*
G04 #@! TO.N,/SWCLK*
X92500000Y-106460000D03*
G04 #@! TO.P,K3,5*
G04 #@! TO.N,GND*
X92500000Y-103920000D03*
G04 #@! TD*
G04 #@! TO.P,SW1,8*
G04 #@! TO.N,GND*
X96190000Y-93810000D03*
G04 #@! TO.P,SW1,7*
X96190000Y-91270000D03*
G04 #@! TO.P,SW1,4*
G04 #@! TO.N,Net-(SW1-Pad4)*
X103810000Y-86190000D03*
G04 #@! TO.P,SW1,3*
G04 #@! TO.N,Net-(SW1-Pad3)*
X103810000Y-88730000D03*
G04 #@! TO.P,SW1,2*
G04 #@! TO.N,Net-(SW1-Pad2)*
X103810000Y-91270000D03*
G04 #@! TO.P,SW1,1*
G04 #@! TO.N,Net-(SW1-Pad1)*
X103810000Y-93810000D03*
G04 #@! TO.P,SW1,5*
G04 #@! TO.N,GND*
X96190000Y-86190000D03*
G04 #@! TO.P,SW1,6*
X96190000Y-88730000D03*
G04 #@! TD*
D16*
G04 #@! TO.P,Q2,1*
G04 #@! TO.N,GND*
X106270000Y-113000000D03*
G04 #@! TO.P,Q2,2*
G04 #@! TO.N,Net-(Q2-Pad2)*
X103730000Y-113000000D03*
G04 #@! TD*
D17*
G04 #@! TO.N,GND*
G36*
X110294000Y-86294908D02*
X110297982Y-86314925D01*
X110343218Y-86821790D01*
X110346997Y-86839958D01*
X110348000Y-86858478D01*
X110360991Y-86913434D01*
X110562398Y-87578427D01*
X110572251Y-87601089D01*
X110579226Y-87624786D01*
X110604500Y-87675258D01*
X110604510Y-87675281D01*
X110604517Y-87675290D01*
X110953496Y-88276104D01*
X110968299Y-88295892D01*
X110980539Y-88317350D01*
X111016753Y-88360661D01*
X111016761Y-88360672D01*
X111016766Y-88360676D01*
X111494606Y-88865096D01*
X111513565Y-88880948D01*
X111530412Y-88899014D01*
X111575618Y-88932833D01*
X111575629Y-88932842D01*
X111575635Y-88932845D01*
X112156701Y-89313810D01*
X112178796Y-89324874D01*
X112199349Y-89338581D01*
X112251136Y-89361099D01*
X112904264Y-89598173D01*
X112928311Y-89603858D01*
X112951467Y-89612469D01*
X113007027Y-89622466D01*
X113007045Y-89622470D01*
X113007054Y-89622470D01*
X113679008Y-89700812D01*
X113705091Y-89706000D01*
X116544000Y-89706000D01*
X116544001Y-114849000D01*
X113364238Y-114849000D01*
X113364238Y-116544000D01*
X89706000Y-116544000D01*
X89706000Y-113835139D01*
X91269000Y-113835139D01*
X91269000Y-114324861D01*
X91456408Y-114777306D01*
X91802694Y-115123592D01*
X92255139Y-115311000D01*
X92744861Y-115311000D01*
X93197306Y-115123592D01*
X93543592Y-114777306D01*
X93731000Y-114324861D01*
X93731000Y-113835139D01*
X93543592Y-113382694D01*
X93197306Y-113036408D01*
X92744861Y-112849000D01*
X92255139Y-112849000D01*
X91802694Y-113036408D01*
X91456408Y-113382694D01*
X91269000Y-113835139D01*
X89706000Y-113835139D01*
X89706000Y-113705091D01*
X89702018Y-113685072D01*
X89656782Y-113178210D01*
X89653003Y-113160042D01*
X89652000Y-113141522D01*
X89639009Y-113086566D01*
X89543931Y-112772643D01*
X102587000Y-112772643D01*
X102587000Y-113227357D01*
X102761011Y-113647458D01*
X103082542Y-113968989D01*
X103502643Y-114143000D01*
X103957357Y-114143000D01*
X104350360Y-113980213D01*
X105469392Y-113980213D01*
X105538857Y-114222397D01*
X106062302Y-114409144D01*
X106617368Y-114381362D01*
X107001143Y-114222397D01*
X107070608Y-113980213D01*
X106966267Y-113875872D01*
X108119130Y-113875872D01*
X108119130Y-114624128D01*
X108405476Y-115315427D01*
X108934573Y-115844524D01*
X109625872Y-116130870D01*
X110374128Y-116130870D01*
X111065427Y-115844524D01*
X111594524Y-115315427D01*
X111880870Y-114624128D01*
X111880870Y-113875872D01*
X111594524Y-113184573D01*
X111065427Y-112655476D01*
X110374128Y-112369130D01*
X109625872Y-112369130D01*
X108934573Y-112655476D01*
X108405476Y-113184573D01*
X108119130Y-113875872D01*
X106966267Y-113875872D01*
X106270000Y-113179605D01*
X105469392Y-113980213D01*
X104350360Y-113980213D01*
X104377458Y-113968989D01*
X104698989Y-113647458D01*
X104873000Y-113227357D01*
X104873000Y-113034931D01*
X104888638Y-113347368D01*
X105047603Y-113731143D01*
X105289787Y-113800608D01*
X106090395Y-113000000D01*
X106449605Y-113000000D01*
X107250213Y-113800608D01*
X107492397Y-113731143D01*
X107679144Y-113207698D01*
X107651362Y-112652632D01*
X107492397Y-112268857D01*
X107250213Y-112199392D01*
X106449605Y-113000000D01*
X106090395Y-113000000D01*
X105289787Y-112199392D01*
X105047603Y-112268857D01*
X104870244Y-112765989D01*
X104698989Y-112352542D01*
X104377458Y-112031011D01*
X104350361Y-112019787D01*
X105469392Y-112019787D01*
X106270000Y-112820395D01*
X107070608Y-112019787D01*
X107001143Y-111777603D01*
X106477698Y-111590856D01*
X105922632Y-111618638D01*
X105538857Y-111777603D01*
X105469392Y-112019787D01*
X104350361Y-112019787D01*
X103957357Y-111857000D01*
X103502643Y-111857000D01*
X103082542Y-112031011D01*
X102761011Y-112352542D01*
X102587000Y-112772643D01*
X89543931Y-112772643D01*
X89437602Y-112421573D01*
X89427750Y-112398913D01*
X89420774Y-112375213D01*
X89395500Y-112324742D01*
X89395490Y-112324719D01*
X89395483Y-112324710D01*
X89046503Y-111723896D01*
X89031703Y-111704112D01*
X89019461Y-111682650D01*
X88983247Y-111639339D01*
X88983239Y-111639328D01*
X88983234Y-111639324D01*
X88657185Y-111295139D01*
X91269000Y-111295139D01*
X91269000Y-111784861D01*
X91456408Y-112237306D01*
X91802694Y-112583592D01*
X92255139Y-112771000D01*
X92744861Y-112771000D01*
X93197306Y-112583592D01*
X93543592Y-112237306D01*
X93731000Y-111784861D01*
X93731000Y-111295139D01*
X93543592Y-110842694D01*
X93197306Y-110496408D01*
X92744861Y-110309000D01*
X92255139Y-110309000D01*
X91802694Y-110496408D01*
X91456408Y-110842694D01*
X91269000Y-111295139D01*
X88657185Y-111295139D01*
X88505393Y-111134904D01*
X88486440Y-111119057D01*
X88469589Y-111100986D01*
X88424382Y-111067167D01*
X88424371Y-111067158D01*
X88424365Y-111067155D01*
X87843299Y-110686191D01*
X87821208Y-110675129D01*
X87800651Y-110661419D01*
X87748864Y-110638901D01*
X87095736Y-110401827D01*
X87071691Y-110396143D01*
X87048534Y-110387531D01*
X86992974Y-110377534D01*
X86992956Y-110377530D01*
X86992947Y-110377530D01*
X86320992Y-110299188D01*
X86294909Y-110294000D01*
X83456000Y-110294000D01*
X83456000Y-108755139D01*
X91269000Y-108755139D01*
X91269000Y-109244861D01*
X91456408Y-109697306D01*
X91802694Y-110043592D01*
X92255139Y-110231000D01*
X92744861Y-110231000D01*
X93197306Y-110043592D01*
X93543592Y-109697306D01*
X93731000Y-109244861D01*
X93731000Y-108755139D01*
X93543592Y-108302694D01*
X93197306Y-107956408D01*
X92744861Y-107769000D01*
X92255139Y-107769000D01*
X91802694Y-107956408D01*
X91456408Y-108302694D01*
X91269000Y-108755139D01*
X83456000Y-108755139D01*
X83456000Y-106215139D01*
X91269000Y-106215139D01*
X91269000Y-106704861D01*
X91456408Y-107157306D01*
X91802694Y-107503592D01*
X92255139Y-107691000D01*
X92744861Y-107691000D01*
X93197306Y-107503592D01*
X93543592Y-107157306D01*
X93731000Y-106704861D01*
X93731000Y-106215139D01*
X93543592Y-105762694D01*
X93197306Y-105416408D01*
X92997884Y-105333805D01*
X93284080Y-105215259D01*
X93364353Y-104963958D01*
X92500000Y-104099605D01*
X91635647Y-104963958D01*
X91715920Y-105215259D01*
X92021071Y-105325954D01*
X91802694Y-105416408D01*
X91456408Y-105762694D01*
X91269000Y-106215139D01*
X83456000Y-106215139D01*
X83456000Y-105111563D01*
X83514315Y-105404731D01*
X83686931Y-105663069D01*
X83945269Y-105835685D01*
X84173082Y-105881000D01*
X85026918Y-105881000D01*
X85254731Y-105835685D01*
X85513069Y-105663069D01*
X85685685Y-105404731D01*
X85746300Y-105100000D01*
X87153700Y-105100000D01*
X87214315Y-105404731D01*
X87386931Y-105663069D01*
X87645269Y-105835685D01*
X87873082Y-105881000D01*
X88726918Y-105881000D01*
X88954731Y-105835685D01*
X89213069Y-105663069D01*
X89385685Y-105404731D01*
X89446300Y-105100000D01*
X89385685Y-104795269D01*
X89213069Y-104536931D01*
X88954731Y-104364315D01*
X88726918Y-104319000D01*
X87873082Y-104319000D01*
X87645269Y-104364315D01*
X87386931Y-104536931D01*
X87214315Y-104795269D01*
X87153700Y-105100000D01*
X85746300Y-105100000D01*
X85685685Y-104795269D01*
X85513069Y-104536931D01*
X85254731Y-104364315D01*
X85026918Y-104319000D01*
X84173082Y-104319000D01*
X83945269Y-104364315D01*
X83686931Y-104536931D01*
X83514315Y-104795269D01*
X83456000Y-105088437D01*
X83456000Y-104156000D01*
X87555091Y-104156000D01*
X87600000Y-104164933D01*
X87644909Y-104156000D01*
X87777922Y-104129542D01*
X87928757Y-104028757D01*
X88029542Y-103877922D01*
X88064933Y-103700000D01*
X88063199Y-103691279D01*
X91003282Y-103691279D01*
X91029685Y-104281458D01*
X91204741Y-104704080D01*
X91456042Y-104784353D01*
X92320395Y-103920000D01*
X92679605Y-103920000D01*
X93543958Y-104784353D01*
X93795259Y-104704080D01*
X93996718Y-104148721D01*
X93976293Y-103692163D01*
X104027443Y-103692163D01*
X104126042Y-103958965D01*
X104735582Y-104185401D01*
X105385377Y-104161341D01*
X105873958Y-103958965D01*
X105972557Y-103692163D01*
X105000000Y-102719605D01*
X104027443Y-103692163D01*
X93976293Y-103692163D01*
X93970315Y-103558542D01*
X93795259Y-103135920D01*
X93543958Y-103055647D01*
X92679605Y-103920000D01*
X92320395Y-103920000D01*
X91456042Y-103055647D01*
X91204741Y-103135920D01*
X91003282Y-103691279D01*
X88063199Y-103691279D01*
X88056000Y-103655091D01*
X88056000Y-102876042D01*
X91635647Y-102876042D01*
X92500000Y-103740395D01*
X93364353Y-102876042D01*
X93284080Y-102624741D01*
X92728721Y-102423282D01*
X92138542Y-102449685D01*
X91715920Y-102624741D01*
X91635647Y-102876042D01*
X88056000Y-102876042D01*
X88056000Y-102275582D01*
X103354599Y-102275582D01*
X103378659Y-102925377D01*
X103581035Y-103413958D01*
X103847837Y-103512557D01*
X104820395Y-102540000D01*
X105179605Y-102540000D01*
X106152163Y-103512557D01*
X106418965Y-103413958D01*
X106645401Y-102804418D01*
X106621341Y-102154623D01*
X106418965Y-101666042D01*
X106152163Y-101567443D01*
X105179605Y-102540000D01*
X104820395Y-102540000D01*
X103847837Y-101567443D01*
X103581035Y-101666042D01*
X103354599Y-102275582D01*
X88056000Y-102275582D01*
X88056000Y-97185404D01*
X103619510Y-97185404D01*
X103619510Y-97734596D01*
X103829677Y-98241985D01*
X104218015Y-98630323D01*
X104458657Y-98730000D01*
X104218015Y-98829677D01*
X103829677Y-99218015D01*
X103619510Y-99725404D01*
X103619510Y-100274596D01*
X103829677Y-100781985D01*
X104156225Y-101108533D01*
X104126042Y-101121035D01*
X104027443Y-101387837D01*
X105000000Y-102360395D01*
X105972557Y-101387837D01*
X105873958Y-101121035D01*
X105842835Y-101109473D01*
X106170323Y-100781985D01*
X106380490Y-100274596D01*
X106380490Y-99725404D01*
X106170323Y-99218015D01*
X105781985Y-98829677D01*
X105541343Y-98730000D01*
X105781985Y-98630323D01*
X106170323Y-98241985D01*
X106380490Y-97734596D01*
X106380490Y-97185404D01*
X106170323Y-96678015D01*
X105781985Y-96289677D01*
X105274596Y-96079510D01*
X104725404Y-96079510D01*
X104218015Y-96289677D01*
X103829677Y-96678015D01*
X103619510Y-97185404D01*
X88056000Y-97185404D01*
X88056000Y-96344908D01*
X88064933Y-96300000D01*
X88029542Y-96122078D01*
X87928757Y-95971243D01*
X87777922Y-95870458D01*
X87644909Y-95844000D01*
X87600000Y-95835067D01*
X87555091Y-95844000D01*
X83456000Y-95844000D01*
X83456000Y-94911563D01*
X83514315Y-95204731D01*
X83686931Y-95463069D01*
X83945269Y-95635685D01*
X84173082Y-95681000D01*
X85026918Y-95681000D01*
X85254731Y-95635685D01*
X85513069Y-95463069D01*
X85685685Y-95204731D01*
X85746300Y-94900000D01*
X87153700Y-94900000D01*
X87214315Y-95204731D01*
X87386931Y-95463069D01*
X87645269Y-95635685D01*
X87873082Y-95681000D01*
X88726918Y-95681000D01*
X88954731Y-95635685D01*
X89213069Y-95463069D01*
X89385685Y-95204731D01*
X89446300Y-94900000D01*
X89437142Y-94853958D01*
X95325647Y-94853958D01*
X95405920Y-95105259D01*
X95961279Y-95306718D01*
X96551458Y-95280315D01*
X96974080Y-95105259D01*
X97054353Y-94853958D01*
X96190000Y-93989605D01*
X95325647Y-94853958D01*
X89437142Y-94853958D01*
X89385685Y-94595269D01*
X89213069Y-94336931D01*
X88954731Y-94164315D01*
X88726918Y-94119000D01*
X87873082Y-94119000D01*
X87645269Y-94164315D01*
X87386931Y-94336931D01*
X87214315Y-94595269D01*
X87153700Y-94900000D01*
X85746300Y-94900000D01*
X85685685Y-94595269D01*
X85513069Y-94336931D01*
X85254731Y-94164315D01*
X85026918Y-94119000D01*
X84173082Y-94119000D01*
X83945269Y-94164315D01*
X83686931Y-94336931D01*
X83514315Y-94595269D01*
X83456000Y-94888437D01*
X83456000Y-93581279D01*
X94693282Y-93581279D01*
X94719685Y-94171458D01*
X94894741Y-94594080D01*
X95146042Y-94674353D01*
X96010395Y-93810000D01*
X96369605Y-93810000D01*
X97233958Y-94674353D01*
X97485259Y-94594080D01*
X97686718Y-94038721D01*
X97665532Y-93565139D01*
X102579000Y-93565139D01*
X102579000Y-94054861D01*
X102766408Y-94507306D01*
X103112694Y-94853592D01*
X103565139Y-95041000D01*
X104054861Y-95041000D01*
X104507306Y-94853592D01*
X104853592Y-94507306D01*
X105041000Y-94054861D01*
X105041000Y-93565139D01*
X104853592Y-93112694D01*
X104507306Y-92766408D01*
X104054861Y-92579000D01*
X103565139Y-92579000D01*
X103112694Y-92766408D01*
X102766408Y-93112694D01*
X102579000Y-93565139D01*
X97665532Y-93565139D01*
X97660315Y-93448542D01*
X97485259Y-93025920D01*
X97233958Y-92945647D01*
X96369605Y-93810000D01*
X96010395Y-93810000D01*
X95146042Y-92945647D01*
X94894741Y-93025920D01*
X94693282Y-93581279D01*
X83456000Y-93581279D01*
X83456000Y-92313958D01*
X95325647Y-92313958D01*
X95397852Y-92540000D01*
X95325647Y-92766042D01*
X96190000Y-93630395D01*
X97054353Y-92766042D01*
X96982148Y-92540000D01*
X97054353Y-92313958D01*
X96190000Y-91449605D01*
X95325647Y-92313958D01*
X83456000Y-92313958D01*
X83456000Y-91041279D01*
X94693282Y-91041279D01*
X94719685Y-91631458D01*
X94894741Y-92054080D01*
X95146042Y-92134353D01*
X96010395Y-91270000D01*
X96369605Y-91270000D01*
X97233958Y-92134353D01*
X97485259Y-92054080D01*
X97686718Y-91498721D01*
X97665532Y-91025139D01*
X102579000Y-91025139D01*
X102579000Y-91514861D01*
X102766408Y-91967306D01*
X103112694Y-92313592D01*
X103565139Y-92501000D01*
X104054861Y-92501000D01*
X104507306Y-92313592D01*
X104853592Y-91967306D01*
X105041000Y-91514861D01*
X105041000Y-91025139D01*
X104853592Y-90572694D01*
X104507306Y-90226408D01*
X104054861Y-90039000D01*
X103565139Y-90039000D01*
X103112694Y-90226408D01*
X102766408Y-90572694D01*
X102579000Y-91025139D01*
X97665532Y-91025139D01*
X97660315Y-90908542D01*
X97485259Y-90485920D01*
X97233958Y-90405647D01*
X96369605Y-91270000D01*
X96010395Y-91270000D01*
X95146042Y-90405647D01*
X94894741Y-90485920D01*
X94693282Y-91041279D01*
X83456000Y-91041279D01*
X83456000Y-89773958D01*
X95325647Y-89773958D01*
X95397852Y-90000000D01*
X95325647Y-90226042D01*
X96190000Y-91090395D01*
X97054353Y-90226042D01*
X96982148Y-90000000D01*
X97054353Y-89773958D01*
X96190000Y-88909605D01*
X95325647Y-89773958D01*
X83456000Y-89773958D01*
X83456000Y-88501279D01*
X94693282Y-88501279D01*
X94719685Y-89091458D01*
X94894741Y-89514080D01*
X95146042Y-89594353D01*
X96010395Y-88730000D01*
X96369605Y-88730000D01*
X97233958Y-89594353D01*
X97485259Y-89514080D01*
X97686718Y-88958721D01*
X97665532Y-88485139D01*
X102579000Y-88485139D01*
X102579000Y-88974861D01*
X102766408Y-89427306D01*
X103112694Y-89773592D01*
X103565139Y-89961000D01*
X104054861Y-89961000D01*
X104507306Y-89773592D01*
X104853592Y-89427306D01*
X105041000Y-88974861D01*
X105041000Y-88485139D01*
X104853592Y-88032694D01*
X104507306Y-87686408D01*
X104054861Y-87499000D01*
X103565139Y-87499000D01*
X103112694Y-87686408D01*
X102766408Y-88032694D01*
X102579000Y-88485139D01*
X97665532Y-88485139D01*
X97660315Y-88368542D01*
X97485259Y-87945920D01*
X97233958Y-87865647D01*
X96369605Y-88730000D01*
X96010395Y-88730000D01*
X95146042Y-87865647D01*
X94894741Y-87945920D01*
X94693282Y-88501279D01*
X83456000Y-88501279D01*
X83456000Y-85375872D01*
X88119130Y-85375872D01*
X88119130Y-86124128D01*
X88405476Y-86815427D01*
X88934573Y-87344524D01*
X89625872Y-87630870D01*
X90374128Y-87630870D01*
X91065427Y-87344524D01*
X91175993Y-87233958D01*
X95325647Y-87233958D01*
X95397852Y-87460000D01*
X95325647Y-87686042D01*
X96190000Y-88550395D01*
X97054353Y-87686042D01*
X96982148Y-87460000D01*
X97054353Y-87233958D01*
X96190000Y-86369605D01*
X95325647Y-87233958D01*
X91175993Y-87233958D01*
X91594524Y-86815427D01*
X91880870Y-86124128D01*
X91880870Y-85961279D01*
X94693282Y-85961279D01*
X94719685Y-86551458D01*
X94894741Y-86974080D01*
X95146042Y-87054353D01*
X96010395Y-86190000D01*
X96369605Y-86190000D01*
X97233958Y-87054353D01*
X97485259Y-86974080D01*
X97686718Y-86418721D01*
X97665532Y-85945139D01*
X102579000Y-85945139D01*
X102579000Y-86434861D01*
X102766408Y-86887306D01*
X103112694Y-87233592D01*
X103565139Y-87421000D01*
X104054861Y-87421000D01*
X104507306Y-87233592D01*
X104853592Y-86887306D01*
X105041000Y-86434861D01*
X105041000Y-85945139D01*
X104853592Y-85492694D01*
X104507306Y-85146408D01*
X104054861Y-84959000D01*
X103565139Y-84959000D01*
X103112694Y-85146408D01*
X102766408Y-85492694D01*
X102579000Y-85945139D01*
X97665532Y-85945139D01*
X97660315Y-85828542D01*
X97485259Y-85405920D01*
X97233958Y-85325647D01*
X96369605Y-86190000D01*
X96010395Y-86190000D01*
X95146042Y-85325647D01*
X94894741Y-85405920D01*
X94693282Y-85961279D01*
X91880870Y-85961279D01*
X91880870Y-85375872D01*
X91785672Y-85146042D01*
X95325647Y-85146042D01*
X96190000Y-86010395D01*
X97054353Y-85146042D01*
X96974080Y-84894741D01*
X96418721Y-84693282D01*
X95828542Y-84719685D01*
X95405920Y-84894741D01*
X95325647Y-85146042D01*
X91785672Y-85146042D01*
X91594524Y-84684573D01*
X91065427Y-84155476D01*
X90374128Y-83869130D01*
X89625872Y-83869130D01*
X88934573Y-84155476D01*
X88405476Y-84684573D01*
X88119130Y-85375872D01*
X83456000Y-85375872D01*
X83456000Y-83456000D01*
X110294001Y-83456000D01*
X110294000Y-86294908D01*
X110294000Y-86294908D01*
G37*
X110294000Y-86294908D02*
X110297982Y-86314925D01*
X110343218Y-86821790D01*
X110346997Y-86839958D01*
X110348000Y-86858478D01*
X110360991Y-86913434D01*
X110562398Y-87578427D01*
X110572251Y-87601089D01*
X110579226Y-87624786D01*
X110604500Y-87675258D01*
X110604510Y-87675281D01*
X110604517Y-87675290D01*
X110953496Y-88276104D01*
X110968299Y-88295892D01*
X110980539Y-88317350D01*
X111016753Y-88360661D01*
X111016761Y-88360672D01*
X111016766Y-88360676D01*
X111494606Y-88865096D01*
X111513565Y-88880948D01*
X111530412Y-88899014D01*
X111575618Y-88932833D01*
X111575629Y-88932842D01*
X111575635Y-88932845D01*
X112156701Y-89313810D01*
X112178796Y-89324874D01*
X112199349Y-89338581D01*
X112251136Y-89361099D01*
X112904264Y-89598173D01*
X112928311Y-89603858D01*
X112951467Y-89612469D01*
X113007027Y-89622466D01*
X113007045Y-89622470D01*
X113007054Y-89622470D01*
X113679008Y-89700812D01*
X113705091Y-89706000D01*
X116544000Y-89706000D01*
X116544001Y-114849000D01*
X113364238Y-114849000D01*
X113364238Y-116544000D01*
X89706000Y-116544000D01*
X89706000Y-113835139D01*
X91269000Y-113835139D01*
X91269000Y-114324861D01*
X91456408Y-114777306D01*
X91802694Y-115123592D01*
X92255139Y-115311000D01*
X92744861Y-115311000D01*
X93197306Y-115123592D01*
X93543592Y-114777306D01*
X93731000Y-114324861D01*
X93731000Y-113835139D01*
X93543592Y-113382694D01*
X93197306Y-113036408D01*
X92744861Y-112849000D01*
X92255139Y-112849000D01*
X91802694Y-113036408D01*
X91456408Y-113382694D01*
X91269000Y-113835139D01*
X89706000Y-113835139D01*
X89706000Y-113705091D01*
X89702018Y-113685072D01*
X89656782Y-113178210D01*
X89653003Y-113160042D01*
X89652000Y-113141522D01*
X89639009Y-113086566D01*
X89543931Y-112772643D01*
X102587000Y-112772643D01*
X102587000Y-113227357D01*
X102761011Y-113647458D01*
X103082542Y-113968989D01*
X103502643Y-114143000D01*
X103957357Y-114143000D01*
X104350360Y-113980213D01*
X105469392Y-113980213D01*
X105538857Y-114222397D01*
X106062302Y-114409144D01*
X106617368Y-114381362D01*
X107001143Y-114222397D01*
X107070608Y-113980213D01*
X106966267Y-113875872D01*
X108119130Y-113875872D01*
X108119130Y-114624128D01*
X108405476Y-115315427D01*
X108934573Y-115844524D01*
X109625872Y-116130870D01*
X110374128Y-116130870D01*
X111065427Y-115844524D01*
X111594524Y-115315427D01*
X111880870Y-114624128D01*
X111880870Y-113875872D01*
X111594524Y-113184573D01*
X111065427Y-112655476D01*
X110374128Y-112369130D01*
X109625872Y-112369130D01*
X108934573Y-112655476D01*
X108405476Y-113184573D01*
X108119130Y-113875872D01*
X106966267Y-113875872D01*
X106270000Y-113179605D01*
X105469392Y-113980213D01*
X104350360Y-113980213D01*
X104377458Y-113968989D01*
X104698989Y-113647458D01*
X104873000Y-113227357D01*
X104873000Y-113034931D01*
X104888638Y-113347368D01*
X105047603Y-113731143D01*
X105289787Y-113800608D01*
X106090395Y-113000000D01*
X106449605Y-113000000D01*
X107250213Y-113800608D01*
X107492397Y-113731143D01*
X107679144Y-113207698D01*
X107651362Y-112652632D01*
X107492397Y-112268857D01*
X107250213Y-112199392D01*
X106449605Y-113000000D01*
X106090395Y-113000000D01*
X105289787Y-112199392D01*
X105047603Y-112268857D01*
X104870244Y-112765989D01*
X104698989Y-112352542D01*
X104377458Y-112031011D01*
X104350361Y-112019787D01*
X105469392Y-112019787D01*
X106270000Y-112820395D01*
X107070608Y-112019787D01*
X107001143Y-111777603D01*
X106477698Y-111590856D01*
X105922632Y-111618638D01*
X105538857Y-111777603D01*
X105469392Y-112019787D01*
X104350361Y-112019787D01*
X103957357Y-111857000D01*
X103502643Y-111857000D01*
X103082542Y-112031011D01*
X102761011Y-112352542D01*
X102587000Y-112772643D01*
X89543931Y-112772643D01*
X89437602Y-112421573D01*
X89427750Y-112398913D01*
X89420774Y-112375213D01*
X89395500Y-112324742D01*
X89395490Y-112324719D01*
X89395483Y-112324710D01*
X89046503Y-111723896D01*
X89031703Y-111704112D01*
X89019461Y-111682650D01*
X88983247Y-111639339D01*
X88983239Y-111639328D01*
X88983234Y-111639324D01*
X88657185Y-111295139D01*
X91269000Y-111295139D01*
X91269000Y-111784861D01*
X91456408Y-112237306D01*
X91802694Y-112583592D01*
X92255139Y-112771000D01*
X92744861Y-112771000D01*
X93197306Y-112583592D01*
X93543592Y-112237306D01*
X93731000Y-111784861D01*
X93731000Y-111295139D01*
X93543592Y-110842694D01*
X93197306Y-110496408D01*
X92744861Y-110309000D01*
X92255139Y-110309000D01*
X91802694Y-110496408D01*
X91456408Y-110842694D01*
X91269000Y-111295139D01*
X88657185Y-111295139D01*
X88505393Y-111134904D01*
X88486440Y-111119057D01*
X88469589Y-111100986D01*
X88424382Y-111067167D01*
X88424371Y-111067158D01*
X88424365Y-111067155D01*
X87843299Y-110686191D01*
X87821208Y-110675129D01*
X87800651Y-110661419D01*
X87748864Y-110638901D01*
X87095736Y-110401827D01*
X87071691Y-110396143D01*
X87048534Y-110387531D01*
X86992974Y-110377534D01*
X86992956Y-110377530D01*
X86992947Y-110377530D01*
X86320992Y-110299188D01*
X86294909Y-110294000D01*
X83456000Y-110294000D01*
X83456000Y-108755139D01*
X91269000Y-108755139D01*
X91269000Y-109244861D01*
X91456408Y-109697306D01*
X91802694Y-110043592D01*
X92255139Y-110231000D01*
X92744861Y-110231000D01*
X93197306Y-110043592D01*
X93543592Y-109697306D01*
X93731000Y-109244861D01*
X93731000Y-108755139D01*
X93543592Y-108302694D01*
X93197306Y-107956408D01*
X92744861Y-107769000D01*
X92255139Y-107769000D01*
X91802694Y-107956408D01*
X91456408Y-108302694D01*
X91269000Y-108755139D01*
X83456000Y-108755139D01*
X83456000Y-106215139D01*
X91269000Y-106215139D01*
X91269000Y-106704861D01*
X91456408Y-107157306D01*
X91802694Y-107503592D01*
X92255139Y-107691000D01*
X92744861Y-107691000D01*
X93197306Y-107503592D01*
X93543592Y-107157306D01*
X93731000Y-106704861D01*
X93731000Y-106215139D01*
X93543592Y-105762694D01*
X93197306Y-105416408D01*
X92997884Y-105333805D01*
X93284080Y-105215259D01*
X93364353Y-104963958D01*
X92500000Y-104099605D01*
X91635647Y-104963958D01*
X91715920Y-105215259D01*
X92021071Y-105325954D01*
X91802694Y-105416408D01*
X91456408Y-105762694D01*
X91269000Y-106215139D01*
X83456000Y-106215139D01*
X83456000Y-105111563D01*
X83514315Y-105404731D01*
X83686931Y-105663069D01*
X83945269Y-105835685D01*
X84173082Y-105881000D01*
X85026918Y-105881000D01*
X85254731Y-105835685D01*
X85513069Y-105663069D01*
X85685685Y-105404731D01*
X85746300Y-105100000D01*
X87153700Y-105100000D01*
X87214315Y-105404731D01*
X87386931Y-105663069D01*
X87645269Y-105835685D01*
X87873082Y-105881000D01*
X88726918Y-105881000D01*
X88954731Y-105835685D01*
X89213069Y-105663069D01*
X89385685Y-105404731D01*
X89446300Y-105100000D01*
X89385685Y-104795269D01*
X89213069Y-104536931D01*
X88954731Y-104364315D01*
X88726918Y-104319000D01*
X87873082Y-104319000D01*
X87645269Y-104364315D01*
X87386931Y-104536931D01*
X87214315Y-104795269D01*
X87153700Y-105100000D01*
X85746300Y-105100000D01*
X85685685Y-104795269D01*
X85513069Y-104536931D01*
X85254731Y-104364315D01*
X85026918Y-104319000D01*
X84173082Y-104319000D01*
X83945269Y-104364315D01*
X83686931Y-104536931D01*
X83514315Y-104795269D01*
X83456000Y-105088437D01*
X83456000Y-104156000D01*
X87555091Y-104156000D01*
X87600000Y-104164933D01*
X87644909Y-104156000D01*
X87777922Y-104129542D01*
X87928757Y-104028757D01*
X88029542Y-103877922D01*
X88064933Y-103700000D01*
X88063199Y-103691279D01*
X91003282Y-103691279D01*
X91029685Y-104281458D01*
X91204741Y-104704080D01*
X91456042Y-104784353D01*
X92320395Y-103920000D01*
X92679605Y-103920000D01*
X93543958Y-104784353D01*
X93795259Y-104704080D01*
X93996718Y-104148721D01*
X93976293Y-103692163D01*
X104027443Y-103692163D01*
X104126042Y-103958965D01*
X104735582Y-104185401D01*
X105385377Y-104161341D01*
X105873958Y-103958965D01*
X105972557Y-103692163D01*
X105000000Y-102719605D01*
X104027443Y-103692163D01*
X93976293Y-103692163D01*
X93970315Y-103558542D01*
X93795259Y-103135920D01*
X93543958Y-103055647D01*
X92679605Y-103920000D01*
X92320395Y-103920000D01*
X91456042Y-103055647D01*
X91204741Y-103135920D01*
X91003282Y-103691279D01*
X88063199Y-103691279D01*
X88056000Y-103655091D01*
X88056000Y-102876042D01*
X91635647Y-102876042D01*
X92500000Y-103740395D01*
X93364353Y-102876042D01*
X93284080Y-102624741D01*
X92728721Y-102423282D01*
X92138542Y-102449685D01*
X91715920Y-102624741D01*
X91635647Y-102876042D01*
X88056000Y-102876042D01*
X88056000Y-102275582D01*
X103354599Y-102275582D01*
X103378659Y-102925377D01*
X103581035Y-103413958D01*
X103847837Y-103512557D01*
X104820395Y-102540000D01*
X105179605Y-102540000D01*
X106152163Y-103512557D01*
X106418965Y-103413958D01*
X106645401Y-102804418D01*
X106621341Y-102154623D01*
X106418965Y-101666042D01*
X106152163Y-101567443D01*
X105179605Y-102540000D01*
X104820395Y-102540000D01*
X103847837Y-101567443D01*
X103581035Y-101666042D01*
X103354599Y-102275582D01*
X88056000Y-102275582D01*
X88056000Y-97185404D01*
X103619510Y-97185404D01*
X103619510Y-97734596D01*
X103829677Y-98241985D01*
X104218015Y-98630323D01*
X104458657Y-98730000D01*
X104218015Y-98829677D01*
X103829677Y-99218015D01*
X103619510Y-99725404D01*
X103619510Y-100274596D01*
X103829677Y-100781985D01*
X104156225Y-101108533D01*
X104126042Y-101121035D01*
X104027443Y-101387837D01*
X105000000Y-102360395D01*
X105972557Y-101387837D01*
X105873958Y-101121035D01*
X105842835Y-101109473D01*
X106170323Y-100781985D01*
X106380490Y-100274596D01*
X106380490Y-99725404D01*
X106170323Y-99218015D01*
X105781985Y-98829677D01*
X105541343Y-98730000D01*
X105781985Y-98630323D01*
X106170323Y-98241985D01*
X106380490Y-97734596D01*
X106380490Y-97185404D01*
X106170323Y-96678015D01*
X105781985Y-96289677D01*
X105274596Y-96079510D01*
X104725404Y-96079510D01*
X104218015Y-96289677D01*
X103829677Y-96678015D01*
X103619510Y-97185404D01*
X88056000Y-97185404D01*
X88056000Y-96344908D01*
X88064933Y-96300000D01*
X88029542Y-96122078D01*
X87928757Y-95971243D01*
X87777922Y-95870458D01*
X87644909Y-95844000D01*
X87600000Y-95835067D01*
X87555091Y-95844000D01*
X83456000Y-95844000D01*
X83456000Y-94911563D01*
X83514315Y-95204731D01*
X83686931Y-95463069D01*
X83945269Y-95635685D01*
X84173082Y-95681000D01*
X85026918Y-95681000D01*
X85254731Y-95635685D01*
X85513069Y-95463069D01*
X85685685Y-95204731D01*
X85746300Y-94900000D01*
X87153700Y-94900000D01*
X87214315Y-95204731D01*
X87386931Y-95463069D01*
X87645269Y-95635685D01*
X87873082Y-95681000D01*
X88726918Y-95681000D01*
X88954731Y-95635685D01*
X89213069Y-95463069D01*
X89385685Y-95204731D01*
X89446300Y-94900000D01*
X89437142Y-94853958D01*
X95325647Y-94853958D01*
X95405920Y-95105259D01*
X95961279Y-95306718D01*
X96551458Y-95280315D01*
X96974080Y-95105259D01*
X97054353Y-94853958D01*
X96190000Y-93989605D01*
X95325647Y-94853958D01*
X89437142Y-94853958D01*
X89385685Y-94595269D01*
X89213069Y-94336931D01*
X88954731Y-94164315D01*
X88726918Y-94119000D01*
X87873082Y-94119000D01*
X87645269Y-94164315D01*
X87386931Y-94336931D01*
X87214315Y-94595269D01*
X87153700Y-94900000D01*
X85746300Y-94900000D01*
X85685685Y-94595269D01*
X85513069Y-94336931D01*
X85254731Y-94164315D01*
X85026918Y-94119000D01*
X84173082Y-94119000D01*
X83945269Y-94164315D01*
X83686931Y-94336931D01*
X83514315Y-94595269D01*
X83456000Y-94888437D01*
X83456000Y-93581279D01*
X94693282Y-93581279D01*
X94719685Y-94171458D01*
X94894741Y-94594080D01*
X95146042Y-94674353D01*
X96010395Y-93810000D01*
X96369605Y-93810000D01*
X97233958Y-94674353D01*
X97485259Y-94594080D01*
X97686718Y-94038721D01*
X97665532Y-93565139D01*
X102579000Y-93565139D01*
X102579000Y-94054861D01*
X102766408Y-94507306D01*
X103112694Y-94853592D01*
X103565139Y-95041000D01*
X104054861Y-95041000D01*
X104507306Y-94853592D01*
X104853592Y-94507306D01*
X105041000Y-94054861D01*
X105041000Y-93565139D01*
X104853592Y-93112694D01*
X104507306Y-92766408D01*
X104054861Y-92579000D01*
X103565139Y-92579000D01*
X103112694Y-92766408D01*
X102766408Y-93112694D01*
X102579000Y-93565139D01*
X97665532Y-93565139D01*
X97660315Y-93448542D01*
X97485259Y-93025920D01*
X97233958Y-92945647D01*
X96369605Y-93810000D01*
X96010395Y-93810000D01*
X95146042Y-92945647D01*
X94894741Y-93025920D01*
X94693282Y-93581279D01*
X83456000Y-93581279D01*
X83456000Y-92313958D01*
X95325647Y-92313958D01*
X95397852Y-92540000D01*
X95325647Y-92766042D01*
X96190000Y-93630395D01*
X97054353Y-92766042D01*
X96982148Y-92540000D01*
X97054353Y-92313958D01*
X96190000Y-91449605D01*
X95325647Y-92313958D01*
X83456000Y-92313958D01*
X83456000Y-91041279D01*
X94693282Y-91041279D01*
X94719685Y-91631458D01*
X94894741Y-92054080D01*
X95146042Y-92134353D01*
X96010395Y-91270000D01*
X96369605Y-91270000D01*
X97233958Y-92134353D01*
X97485259Y-92054080D01*
X97686718Y-91498721D01*
X97665532Y-91025139D01*
X102579000Y-91025139D01*
X102579000Y-91514861D01*
X102766408Y-91967306D01*
X103112694Y-92313592D01*
X103565139Y-92501000D01*
X104054861Y-92501000D01*
X104507306Y-92313592D01*
X104853592Y-91967306D01*
X105041000Y-91514861D01*
X105041000Y-91025139D01*
X104853592Y-90572694D01*
X104507306Y-90226408D01*
X104054861Y-90039000D01*
X103565139Y-90039000D01*
X103112694Y-90226408D01*
X102766408Y-90572694D01*
X102579000Y-91025139D01*
X97665532Y-91025139D01*
X97660315Y-90908542D01*
X97485259Y-90485920D01*
X97233958Y-90405647D01*
X96369605Y-91270000D01*
X96010395Y-91270000D01*
X95146042Y-90405647D01*
X94894741Y-90485920D01*
X94693282Y-91041279D01*
X83456000Y-91041279D01*
X83456000Y-89773958D01*
X95325647Y-89773958D01*
X95397852Y-90000000D01*
X95325647Y-90226042D01*
X96190000Y-91090395D01*
X97054353Y-90226042D01*
X96982148Y-90000000D01*
X97054353Y-89773958D01*
X96190000Y-88909605D01*
X95325647Y-89773958D01*
X83456000Y-89773958D01*
X83456000Y-88501279D01*
X94693282Y-88501279D01*
X94719685Y-89091458D01*
X94894741Y-89514080D01*
X95146042Y-89594353D01*
X96010395Y-88730000D01*
X96369605Y-88730000D01*
X97233958Y-89594353D01*
X97485259Y-89514080D01*
X97686718Y-88958721D01*
X97665532Y-88485139D01*
X102579000Y-88485139D01*
X102579000Y-88974861D01*
X102766408Y-89427306D01*
X103112694Y-89773592D01*
X103565139Y-89961000D01*
X104054861Y-89961000D01*
X104507306Y-89773592D01*
X104853592Y-89427306D01*
X105041000Y-88974861D01*
X105041000Y-88485139D01*
X104853592Y-88032694D01*
X104507306Y-87686408D01*
X104054861Y-87499000D01*
X103565139Y-87499000D01*
X103112694Y-87686408D01*
X102766408Y-88032694D01*
X102579000Y-88485139D01*
X97665532Y-88485139D01*
X97660315Y-88368542D01*
X97485259Y-87945920D01*
X97233958Y-87865647D01*
X96369605Y-88730000D01*
X96010395Y-88730000D01*
X95146042Y-87865647D01*
X94894741Y-87945920D01*
X94693282Y-88501279D01*
X83456000Y-88501279D01*
X83456000Y-85375872D01*
X88119130Y-85375872D01*
X88119130Y-86124128D01*
X88405476Y-86815427D01*
X88934573Y-87344524D01*
X89625872Y-87630870D01*
X90374128Y-87630870D01*
X91065427Y-87344524D01*
X91175993Y-87233958D01*
X95325647Y-87233958D01*
X95397852Y-87460000D01*
X95325647Y-87686042D01*
X96190000Y-88550395D01*
X97054353Y-87686042D01*
X96982148Y-87460000D01*
X97054353Y-87233958D01*
X96190000Y-86369605D01*
X95325647Y-87233958D01*
X91175993Y-87233958D01*
X91594524Y-86815427D01*
X91880870Y-86124128D01*
X91880870Y-85961279D01*
X94693282Y-85961279D01*
X94719685Y-86551458D01*
X94894741Y-86974080D01*
X95146042Y-87054353D01*
X96010395Y-86190000D01*
X96369605Y-86190000D01*
X97233958Y-87054353D01*
X97485259Y-86974080D01*
X97686718Y-86418721D01*
X97665532Y-85945139D01*
X102579000Y-85945139D01*
X102579000Y-86434861D01*
X102766408Y-86887306D01*
X103112694Y-87233592D01*
X103565139Y-87421000D01*
X104054861Y-87421000D01*
X104507306Y-87233592D01*
X104853592Y-86887306D01*
X105041000Y-86434861D01*
X105041000Y-85945139D01*
X104853592Y-85492694D01*
X104507306Y-85146408D01*
X104054861Y-84959000D01*
X103565139Y-84959000D01*
X103112694Y-85146408D01*
X102766408Y-85492694D01*
X102579000Y-85945139D01*
X97665532Y-85945139D01*
X97660315Y-85828542D01*
X97485259Y-85405920D01*
X97233958Y-85325647D01*
X96369605Y-86190000D01*
X96010395Y-86190000D01*
X95146042Y-85325647D01*
X94894741Y-85405920D01*
X94693282Y-85961279D01*
X91880870Y-85961279D01*
X91880870Y-85375872D01*
X91785672Y-85146042D01*
X95325647Y-85146042D01*
X96190000Y-86010395D01*
X97054353Y-85146042D01*
X96974080Y-84894741D01*
X96418721Y-84693282D01*
X95828542Y-84719685D01*
X95405920Y-84894741D01*
X95325647Y-85146042D01*
X91785672Y-85146042D01*
X91594524Y-84684573D01*
X91065427Y-84155476D01*
X90374128Y-83869130D01*
X89625872Y-83869130D01*
X88934573Y-84155476D01*
X88405476Y-84684573D01*
X88119130Y-85375872D01*
X83456000Y-85375872D01*
X83456000Y-83456000D01*
X110294001Y-83456000D01*
X110294000Y-86294908D01*
G04 #@! TD*
M02*
