G04 #@! TF.GenerationSoftware,KiCad,Pcbnew,5.0.1*
G04 #@! TF.CreationDate,2019-01-10T18:43:16+01:00*
G04 #@! TF.ProjectId,arachnorepel,61726163686E6F726570656C2E6B6963,rev?*
G04 #@! TF.SameCoordinates,Original*
G04 #@! TF.FileFunction,Copper,L2,Bot,Signal*
G04 #@! TF.FilePolarity,Positive*
%FSLAX46Y46*%
G04 Gerber Fmt 4.6, Leading zero omitted, Abs format (unit mm)*
G04 Created by KiCad (PCBNEW 5.0.1) date Do 10 Jan 2019 18:43:16 CET*
%MOMM*%
%LPD*%
G01*
G04 APERTURE LIST*
G04 #@! TA.AperFunction,NonConductor*
%ADD10C,0.200000*%
G04 #@! TD*
G04 #@! TA.AperFunction,NonConductor*
%ADD11C,0.150000*%
G04 #@! TD*
G04 #@! TA.AperFunction,EtchedComponent*
%ADD12C,0.150000*%
G04 #@! TD*
G04 #@! TA.AperFunction,ComponentPad*
%ADD13C,2.999740*%
G04 #@! TD*
G04 #@! TA.AperFunction,SMDPad,CuDef*
%ADD14R,0.800000X0.800000*%
G04 #@! TD*
G04 #@! TA.AperFunction,ComponentPad*
%ADD15C,1.998980*%
G04 #@! TD*
G04 #@! TA.AperFunction,ComponentPad*
%ADD16C,1.700000*%
G04 #@! TD*
G04 #@! TA.AperFunction,SMDPad,CuDef*
%ADD17R,0.551180X1.000760*%
G04 #@! TD*
G04 #@! TA.AperFunction,SMDPad,CuDef*
%ADD18R,1.780000X0.400000*%
G04 #@! TD*
G04 #@! TA.AperFunction,ComponentPad*
%ADD19O,2.200000X1.600000*%
G04 #@! TD*
G04 #@! TA.AperFunction,SMDPad,CuDef*
%ADD20R,1.500000X0.400000*%
G04 #@! TD*
G04 #@! TA.AperFunction,SMDPad,CuDef*
%ADD21R,1.500000X1.150000*%
G04 #@! TD*
G04 #@! TA.AperFunction,ComponentPad*
%ADD22C,1.524000*%
G04 #@! TD*
G04 #@! TA.AperFunction,Conductor*
%ADD23C,0.250000*%
G04 #@! TD*
G04 #@! TA.AperFunction,Conductor*
%ADD24C,0.254000*%
G04 #@! TD*
G04 APERTURE END LIST*
D10*
X116083333Y-115928571D02*
X115940476Y-115976190D01*
X115892857Y-116023809D01*
X115845238Y-116119047D01*
X115845238Y-116261904D01*
X115892857Y-116357142D01*
X115940476Y-116404761D01*
X116035714Y-116452380D01*
X116416666Y-116452380D01*
X116416666Y-115452380D01*
X116083333Y-115452380D01*
X115988095Y-115500000D01*
X115940476Y-115547619D01*
X115892857Y-115642857D01*
X115892857Y-115738095D01*
X115940476Y-115833333D01*
X115988095Y-115880952D01*
X116083333Y-115928571D01*
X116416666Y-115928571D01*
X115226190Y-115452380D02*
X115035714Y-115452380D01*
X114940476Y-115500000D01*
X114845238Y-115595238D01*
X114797619Y-115785714D01*
X114797619Y-116119047D01*
X114845238Y-116309523D01*
X114940476Y-116404761D01*
X115035714Y-116452380D01*
X115226190Y-116452380D01*
X115321428Y-116404761D01*
X115416666Y-116309523D01*
X115464285Y-116119047D01*
X115464285Y-115785714D01*
X115416666Y-115595238D01*
X115321428Y-115500000D01*
X115226190Y-115452380D01*
X114511904Y-115452380D02*
X113940476Y-115452380D01*
X114226190Y-116452380D02*
X114226190Y-115452380D01*
D11*
X83000000Y-110750000D02*
X83000000Y-103700000D01*
X110750000Y-86250000D02*
G75*
G03X113750000Y-89250000I3000000J0D01*
G01*
X89250000Y-113750000D02*
G75*
G03X86250000Y-110750000I-3000000J0D01*
G01*
X89250000Y-113750000D02*
X89250000Y-117000000D01*
X83000000Y-110750000D02*
X86250000Y-110750000D01*
X110750000Y-86250000D02*
X110750000Y-83000000D01*
X117000000Y-89250000D02*
X113750000Y-89250000D01*
X83000000Y-96300000D02*
X83000000Y-83000000D01*
X117000000Y-117000000D02*
X89250000Y-117000000D01*
X117000000Y-89250000D02*
X117000000Y-117000000D01*
X83000000Y-83000000D02*
X110750000Y-83000000D01*
D12*
G04 #@! TO.C,K2*
X87600000Y-103700000D02*
X83000000Y-103700000D01*
X87600000Y-96300000D02*
X87600000Y-103700000D01*
X83000000Y-96300000D02*
X87600000Y-96300000D01*
G04 #@! TD*
D13*
G04 #@! TO.P,HOLE_3mm,1*
G04 #@! TO.N,N/C*
X90000000Y-85750000D03*
G04 #@! TD*
G04 #@! TO.P,HOLE_3mm,1*
G04 #@! TO.N,N/C*
X110000000Y-114250000D03*
G04 #@! TD*
D14*
G04 #@! TO.P,C1,1*
G04 #@! TO.N,+5V*
X97000000Y-99750000D03*
G04 #@! TO.P,C1,2*
G04 #@! TO.N,GND*
X97000000Y-101250000D03*
G04 #@! TD*
G04 #@! TO.P,C2,1*
G04 #@! TO.N,+5V*
X98500000Y-99750000D03*
G04 #@! TO.P,C2,2*
G04 #@! TO.N,GND*
X98500000Y-101250000D03*
G04 #@! TD*
G04 #@! TO.P,C3,1*
G04 #@! TO.N,+3\002C3V*
X97500000Y-107750000D03*
G04 #@! TO.P,C3,2*
G04 #@! TO.N,GND*
X97500000Y-109250000D03*
G04 #@! TD*
G04 #@! TO.P,C4,1*
G04 #@! TO.N,+3\002C3V*
X108250000Y-107500000D03*
G04 #@! TO.P,C4,2*
G04 #@! TO.N,GND*
X109750000Y-107500000D03*
G04 #@! TD*
D15*
G04 #@! TO.P,K1,3*
G04 #@! TO.N,GND*
X105000000Y-102540000D03*
G04 #@! TO.P,K1,2*
G04 #@! TO.N,/DO*
X105000000Y-100000000D03*
G04 #@! TO.P,K1,1*
G04 #@! TO.N,+5V*
X105000000Y-97460000D03*
G04 #@! TD*
D16*
G04 #@! TO.P,K3,1*
G04 #@! TO.N,+3\002C3V*
X92500000Y-114080000D03*
G04 #@! TO.P,K3,2*
G04 #@! TO.N,/NRST*
X92500000Y-111540000D03*
G04 #@! TO.P,K3,3*
G04 #@! TO.N,/SWDIO*
X92500000Y-109000000D03*
G04 #@! TO.P,K3,4*
G04 #@! TO.N,/SWCLK*
X92500000Y-106460000D03*
G04 #@! TO.P,K3,5*
G04 #@! TO.N,GND*
X92500000Y-103920000D03*
G04 #@! TD*
D17*
G04 #@! TO.P,Q1,2*
G04 #@! TO.N,GND*
X108473840Y-102198880D03*
G04 #@! TO.P,Q1,1*
G04 #@! TO.N,Net-(Q1-Pad1)*
X110500760Y-102198880D03*
G04 #@! TO.P,Q1,3*
G04 #@! TO.N,/DO*
X109500000Y-99801120D03*
G04 #@! TD*
D14*
G04 #@! TO.P,R1,1*
G04 #@! TO.N,+5V*
X108750000Y-97500000D03*
G04 #@! TO.P,R1,2*
G04 #@! TO.N,/DO*
X110250000Y-97500000D03*
G04 #@! TD*
G04 #@! TO.P,R2,1*
G04 #@! TO.N,+3\002C3V*
X109750000Y-106000000D03*
G04 #@! TO.P,R2,2*
G04 #@! TO.N,/NRST*
X108250000Y-106000000D03*
G04 #@! TD*
D17*
G04 #@! TO.P,U1,2*
G04 #@! TO.N,+3\002C3V*
X100473840Y-101698880D03*
G04 #@! TO.P,U1,1*
G04 #@! TO.N,GND*
X102500760Y-101698880D03*
G04 #@! TO.P,U1,3*
G04 #@! TO.N,+5V*
X101500000Y-99301120D03*
G04 #@! TD*
D18*
G04 #@! TO.P,U2,11*
G04 #@! TO.N,Net-(U2-Pad11)*
X99530000Y-111425000D03*
G04 #@! TO.P,U2,12*
G04 #@! TO.N,Net-(U2-Pad12)*
X99530000Y-110775000D03*
G04 #@! TO.P,U2,9*
G04 #@! TO.N,Net-(SW1-Pad3)*
X105470000Y-110775000D03*
G04 #@! TO.P,U2,10*
G04 #@! TO.N,Net-(SW1-Pad4)*
X105470000Y-111425000D03*
G04 #@! TO.P,U2,8*
G04 #@! TO.N,Net-(SW1-Pad2)*
X105470000Y-110125000D03*
G04 #@! TO.P,U2,5*
G04 #@! TO.N,+3\002C3V*
X105470000Y-108175000D03*
G04 #@! TO.P,U2,7*
G04 #@! TO.N,Net-(SW1-Pad1)*
X105470000Y-109475000D03*
G04 #@! TO.P,U2,6*
G04 #@! TO.N,Net-(Q2-Pad2)*
X105470000Y-108825000D03*
G04 #@! TO.P,U2,15*
G04 #@! TO.N,GND*
X99530000Y-108825000D03*
G04 #@! TO.P,U2,14*
G04 #@! TO.N,Net-(U2-Pad14)*
X99530000Y-109475000D03*
G04 #@! TO.P,U2,16*
G04 #@! TO.N,+3\002C3V*
X99530000Y-108175000D03*
G04 #@! TO.P,U2,13*
G04 #@! TO.N,Net-(Q1-Pad1)*
X99530000Y-110125000D03*
G04 #@! TO.P,U2,17*
G04 #@! TO.N,Net-(U2-Pad17)*
X99530000Y-107525000D03*
G04 #@! TO.P,U2,20*
G04 #@! TO.N,/SWCLK*
X99530000Y-105575000D03*
G04 #@! TO.P,U2,18*
G04 #@! TO.N,Net-(U2-Pad18)*
X99530000Y-106875000D03*
G04 #@! TO.P,U2,19*
G04 #@! TO.N,/SWDIO*
X99530000Y-106225000D03*
G04 #@! TO.P,U2,2*
G04 #@! TO.N,Net-(U2-Pad2)*
X105470000Y-106225000D03*
G04 #@! TO.P,U2,3*
G04 #@! TO.N,Net-(U2-Pad3)*
X105470000Y-106875000D03*
G04 #@! TO.P,U2,1*
G04 #@! TO.N,GND*
X105470000Y-105575000D03*
G04 #@! TO.P,U2,4*
G04 #@! TO.N,/NRST*
X105470000Y-107525000D03*
G04 #@! TD*
D19*
G04 #@! TO.P,K2,T*
G04 #@! TO.N,GND*
X88300000Y-105100000D03*
D20*
G04 #@! TO.P,K2,3*
G04 #@! TO.N,Net-(K2-Pad3)*
X88600000Y-100000000D03*
G04 #@! TO.P,K2,2*
G04 #@! TO.N,Net-(K2-Pad2)*
X88600000Y-100650000D03*
G04 #@! TO.P,K2,4*
G04 #@! TO.N,Net-(K2-Pad4)*
X88600000Y-99350000D03*
G04 #@! TO.P,K2,5*
G04 #@! TO.N,GND*
X88600000Y-98700000D03*
G04 #@! TO.P,K2,1*
G04 #@! TO.N,+5V*
X88600000Y-101300000D03*
D21*
G04 #@! TO.P,K2,T*
G04 #@! TO.N,GND*
X88600000Y-102325000D03*
X88600000Y-97675000D03*
D19*
X84600000Y-105100000D03*
X84600000Y-94900000D03*
X88300000Y-94900000D03*
G04 #@! TD*
D14*
G04 #@! TO.P,C5,1*
G04 #@! TO.N,+3\002C3V*
X100750000Y-103500000D03*
G04 #@! TO.P,C5,2*
G04 #@! TO.N,GND*
X102250000Y-103500000D03*
G04 #@! TD*
D16*
G04 #@! TO.P,SW1,8*
G04 #@! TO.N,GND*
X96190000Y-93810000D03*
G04 #@! TO.P,SW1,7*
X96190000Y-91270000D03*
G04 #@! TO.P,SW1,4*
G04 #@! TO.N,Net-(SW1-Pad4)*
X103810000Y-86190000D03*
G04 #@! TO.P,SW1,3*
G04 #@! TO.N,Net-(SW1-Pad3)*
X103810000Y-88730000D03*
G04 #@! TO.P,SW1,2*
G04 #@! TO.N,Net-(SW1-Pad2)*
X103810000Y-91270000D03*
G04 #@! TO.P,SW1,1*
G04 #@! TO.N,Net-(SW1-Pad1)*
X103810000Y-93810000D03*
G04 #@! TO.P,SW1,5*
G04 #@! TO.N,GND*
X96190000Y-86190000D03*
G04 #@! TO.P,SW1,6*
X96190000Y-88730000D03*
G04 #@! TD*
D14*
G04 #@! TO.P,R3,1*
G04 #@! TO.N,Net-(Q2-Pad2)*
X102750000Y-115000000D03*
G04 #@! TO.P,R3,2*
G04 #@! TO.N,+3\002C3V*
X101250000Y-115000000D03*
G04 #@! TD*
D22*
G04 #@! TO.P,Q2,1*
G04 #@! TO.N,GND*
X106270000Y-113000000D03*
G04 #@! TO.P,Q2,2*
G04 #@! TO.N,Net-(Q2-Pad2)*
X103730000Y-113000000D03*
G04 #@! TD*
D23*
G04 #@! TO.N,+5V*
X101500000Y-99301120D02*
X98948880Y-99301120D01*
X98948880Y-99301120D02*
X98500000Y-99750000D01*
X105000000Y-97460000D02*
X103116330Y-97460000D01*
X103116330Y-97460000D02*
X101500000Y-99076330D01*
X101500000Y-99076330D02*
X101500000Y-99301120D01*
X97000000Y-99750000D02*
X98500000Y-99750000D01*
X94200000Y-101300000D02*
X95750000Y-99750000D01*
X95750000Y-99750000D02*
X97000000Y-99750000D01*
X88600000Y-101300000D02*
X94200000Y-101300000D01*
X108750000Y-97500000D02*
X105040000Y-97500000D01*
X105040000Y-97500000D02*
X105000000Y-97460000D01*
G04 #@! TO.N,GND*
X102250000Y-103500000D02*
X102250000Y-101949640D01*
X102250000Y-101949640D02*
X102500760Y-101698880D01*
X99530000Y-108825000D02*
X97925000Y-108825000D01*
X97925000Y-108825000D02*
X97500000Y-109250000D01*
X88600000Y-98700000D02*
X90200000Y-98700000D01*
G04 #@! TO.N,+3\002C3V*
X103704989Y-108767887D02*
X104297876Y-108175000D01*
X100627122Y-114080000D02*
X103704989Y-111002133D01*
X99580000Y-114080000D02*
X100627122Y-114080000D01*
X104330000Y-108175000D02*
X105470000Y-108175000D01*
X103704989Y-111002133D02*
X103704989Y-108767887D01*
X104297876Y-108175000D02*
X104330000Y-108175000D01*
X101250000Y-115000000D02*
X101000000Y-115000000D01*
X101000000Y-115000000D02*
X100080000Y-114080000D01*
X100080000Y-114080000D02*
X99580000Y-114080000D01*
X99580000Y-114080000D02*
X92500000Y-114080000D01*
X106825000Y-108175000D02*
X107500000Y-107500000D01*
X107500000Y-107500000D02*
X108250000Y-107500000D01*
X105470000Y-108175000D02*
X106825000Y-108175000D01*
X100750000Y-103500000D02*
X100750000Y-104150000D01*
X100750000Y-104150000D02*
X100795001Y-104195001D01*
X100795001Y-104195001D02*
X100795001Y-108049999D01*
X100795001Y-108049999D02*
X100670000Y-108175000D01*
X100670000Y-108175000D02*
X99530000Y-108175000D01*
X92500000Y-114080000D02*
X91274999Y-112854999D01*
X91274999Y-112854999D02*
X91274999Y-110951999D01*
X91274999Y-110951999D02*
X92001997Y-110225001D01*
X92001997Y-110225001D02*
X94374999Y-110225001D01*
X94374999Y-110225001D02*
X96850000Y-107750000D01*
X96850000Y-107750000D02*
X97500000Y-107750000D01*
X100473840Y-101698880D02*
X100473840Y-103223840D01*
X100473840Y-103223840D02*
X100750000Y-103500000D01*
X97500000Y-107750000D02*
X97925000Y-108175000D01*
X97925000Y-108175000D02*
X99530000Y-108175000D01*
X108250000Y-107500000D02*
X109750000Y-106000000D01*
G04 #@! TO.N,/DO*
X109500000Y-99000000D02*
X110250000Y-98250000D01*
X110250000Y-98250000D02*
X110250000Y-97500000D01*
X109500000Y-99801120D02*
X109500000Y-99000000D01*
X109500000Y-99801120D02*
X105198880Y-99801120D01*
X105198880Y-99801120D02*
X105000000Y-100000000D01*
G04 #@! TO.N,/NRST*
X92500000Y-111540000D02*
X94460000Y-113500000D01*
X103204978Y-110795022D02*
X103204978Y-108560776D01*
X103204978Y-108560776D02*
X104240754Y-107525000D01*
X94460000Y-113500000D02*
X100500000Y-113500000D01*
X100500000Y-113500000D02*
X103204978Y-110795022D01*
X104240754Y-107525000D02*
X104330000Y-107525000D01*
X104330000Y-107525000D02*
X105470000Y-107525000D01*
X105470000Y-107525000D02*
X106610000Y-107525000D01*
X106610000Y-107525000D02*
X108135000Y-106000000D01*
X108135000Y-106000000D02*
X108250000Y-106000000D01*
G04 #@! TO.N,/SWDIO*
X99530000Y-106225000D02*
X95275000Y-106225000D01*
X95275000Y-106225000D02*
X92500000Y-109000000D01*
G04 #@! TO.N,/SWCLK*
X99530000Y-105575000D02*
X93385000Y-105575000D01*
X93385000Y-105575000D02*
X92500000Y-106460000D01*
G04 #@! TO.N,Net-(Q1-Pad1)*
X99530000Y-110125000D02*
X100670000Y-110125000D01*
X106925739Y-103074261D02*
X109099789Y-103074261D01*
X100670000Y-110125000D02*
X102000000Y-108795000D01*
X102000000Y-106500000D02*
X104500000Y-104000000D01*
X104500000Y-104000000D02*
X106000000Y-104000000D01*
X102000000Y-108795000D02*
X102000000Y-106500000D01*
X106000000Y-104000000D02*
X106925739Y-103074261D01*
X109099789Y-103074261D02*
X109975170Y-102198880D01*
X109975170Y-102198880D02*
X110500760Y-102198880D01*
G04 #@! TO.N,Net-(SW1-Pad1)*
X112499997Y-107500003D02*
X112499997Y-95500000D01*
X103810000Y-93810000D02*
X110809997Y-93810000D01*
X110809997Y-93810000D02*
X112499997Y-95500000D01*
X105470000Y-109475000D02*
X110525000Y-109475000D01*
X110525000Y-109475000D02*
X112499997Y-107500003D01*
G04 #@! TO.N,Net-(SW1-Pad2)*
X113000008Y-107707114D02*
X110582122Y-110125000D01*
X110582122Y-110125000D02*
X106610000Y-110125000D01*
X113000008Y-95164252D02*
X113000008Y-107707114D01*
X106610000Y-110125000D02*
X105470000Y-110125000D01*
X103810000Y-91270000D02*
X109105756Y-91270000D01*
X109105756Y-91270000D02*
X113000008Y-95164252D01*
G04 #@! TO.N,Net-(SW1-Pad3)*
X105012081Y-88730000D02*
X103810000Y-88730000D01*
X107272878Y-88730000D02*
X105012081Y-88730000D01*
X105470000Y-110775000D02*
X110639244Y-110775000D01*
X113500019Y-107914225D02*
X113500019Y-94957141D01*
X110639244Y-110775000D02*
X113500019Y-107914225D01*
X113500019Y-94957141D02*
X107272878Y-88730000D01*
G04 #@! TO.N,Net-(SW1-Pad4)*
X105470000Y-111425000D02*
X110696366Y-111425000D01*
X110696366Y-111425000D02*
X114000030Y-108121336D01*
X114000030Y-108121336D02*
X114000030Y-94750030D01*
X114000030Y-94750030D02*
X105440000Y-86190000D01*
X105440000Y-86190000D02*
X103810000Y-86190000D01*
G04 #@! TO.N,Net-(Q2-Pad2)*
X105470000Y-108825000D02*
X105470000Y-108899999D01*
X105470000Y-108899999D02*
X104279999Y-108899999D01*
X104279999Y-108899999D02*
X104204999Y-108974999D01*
X104204999Y-108974999D02*
X104204999Y-112295001D01*
X104204999Y-112295001D02*
X104000000Y-112500000D01*
X104000000Y-112500000D02*
X104000000Y-112730000D01*
X104000000Y-112730000D02*
X103730000Y-113000000D01*
X102750000Y-115000000D02*
X103400000Y-115000000D01*
X103400000Y-115000000D02*
X103730000Y-114670000D01*
X103730000Y-114670000D02*
X103730000Y-114077630D01*
X103730000Y-114077630D02*
X103730000Y-113000000D01*
G04 #@! TD*
D24*
G04 #@! TO.N,GND*
G36*
X110294000Y-86294908D02*
X110297982Y-86314925D01*
X110343218Y-86821790D01*
X110346997Y-86839958D01*
X110348000Y-86858478D01*
X110360991Y-86913434D01*
X110562398Y-87578427D01*
X110572251Y-87601089D01*
X110579226Y-87624786D01*
X110604500Y-87675258D01*
X110604510Y-87675281D01*
X110604517Y-87675290D01*
X110953496Y-88276104D01*
X110968299Y-88295892D01*
X110980539Y-88317350D01*
X111016753Y-88360661D01*
X111016761Y-88360672D01*
X111016766Y-88360676D01*
X111494606Y-88865096D01*
X111513565Y-88880948D01*
X111530412Y-88899014D01*
X111575618Y-88932833D01*
X111575629Y-88932842D01*
X111575635Y-88932845D01*
X112156701Y-89313810D01*
X112178796Y-89324874D01*
X112199349Y-89338581D01*
X112251136Y-89361099D01*
X112904264Y-89598173D01*
X112928311Y-89603858D01*
X112951467Y-89612469D01*
X113007027Y-89622466D01*
X113007045Y-89622470D01*
X113007054Y-89622470D01*
X113679008Y-89700812D01*
X113705091Y-89706000D01*
X116544000Y-89706000D01*
X116544001Y-114849000D01*
X113364238Y-114849000D01*
X113364238Y-116544000D01*
X89706000Y-116544000D01*
X89706000Y-113705091D01*
X89702018Y-113685072D01*
X89656782Y-113178210D01*
X89653003Y-113160042D01*
X89652000Y-113141522D01*
X89639009Y-113086566D01*
X89437602Y-112421573D01*
X89427750Y-112398913D01*
X89420774Y-112375213D01*
X89395500Y-112324742D01*
X89395490Y-112324719D01*
X89395483Y-112324710D01*
X89046503Y-111723896D01*
X89031703Y-111704112D01*
X89019461Y-111682650D01*
X88983247Y-111639339D01*
X88983239Y-111639328D01*
X88983234Y-111639324D01*
X88505393Y-111134904D01*
X88486440Y-111119057D01*
X88469589Y-111100986D01*
X88424382Y-111067167D01*
X88424371Y-111067158D01*
X88424365Y-111067155D01*
X88248724Y-110951999D01*
X90759086Y-110951999D01*
X90769000Y-111001838D01*
X90768999Y-112805165D01*
X90759086Y-112854999D01*
X90768999Y-112904833D01*
X90798358Y-113052429D01*
X90910193Y-113219805D01*
X90952446Y-113248037D01*
X91348241Y-113643833D01*
X91269000Y-113835139D01*
X91269000Y-114324861D01*
X91456408Y-114777306D01*
X91802694Y-115123592D01*
X92255139Y-115311000D01*
X92744861Y-115311000D01*
X93197306Y-115123592D01*
X93543592Y-114777306D01*
X93622833Y-114586000D01*
X99870409Y-114586000D01*
X100461536Y-115177128D01*
X100461536Y-115400000D01*
X100491106Y-115548659D01*
X100575314Y-115674686D01*
X100701341Y-115758894D01*
X100850000Y-115788464D01*
X101650000Y-115788464D01*
X101798659Y-115758894D01*
X101924686Y-115674686D01*
X102000000Y-115561970D01*
X102075314Y-115674686D01*
X102201341Y-115758894D01*
X102350000Y-115788464D01*
X103150000Y-115788464D01*
X103298659Y-115758894D01*
X103424686Y-115674686D01*
X103508894Y-115548659D01*
X103520162Y-115492011D01*
X103597431Y-115476641D01*
X103764806Y-115364806D01*
X103793038Y-115322553D01*
X104052555Y-115063036D01*
X104094806Y-115034806D01*
X104206641Y-114867431D01*
X104236000Y-114719835D01*
X104236000Y-114719834D01*
X104245913Y-114670001D01*
X104236000Y-114620167D01*
X104236000Y-114027583D01*
X104350360Y-113980213D01*
X105469392Y-113980213D01*
X105538857Y-114222397D01*
X106062302Y-114409144D01*
X106617368Y-114381362D01*
X107001143Y-114222397D01*
X107070608Y-113980213D01*
X106966267Y-113875872D01*
X108119130Y-113875872D01*
X108119130Y-114624128D01*
X108405476Y-115315427D01*
X108934573Y-115844524D01*
X109625872Y-116130870D01*
X110374128Y-116130870D01*
X111065427Y-115844524D01*
X111594524Y-115315427D01*
X111880870Y-114624128D01*
X111880870Y-113875872D01*
X111594524Y-113184573D01*
X111065427Y-112655476D01*
X110374128Y-112369130D01*
X109625872Y-112369130D01*
X108934573Y-112655476D01*
X108405476Y-113184573D01*
X108119130Y-113875872D01*
X106966267Y-113875872D01*
X106270000Y-113179605D01*
X105469392Y-113980213D01*
X104350360Y-113980213D01*
X104377458Y-113968989D01*
X104698989Y-113647458D01*
X104873000Y-113227357D01*
X104873000Y-113034931D01*
X104888638Y-113347368D01*
X105047603Y-113731143D01*
X105289787Y-113800608D01*
X106090395Y-113000000D01*
X106449605Y-113000000D01*
X107250213Y-113800608D01*
X107492397Y-113731143D01*
X107679144Y-113207698D01*
X107651362Y-112652632D01*
X107492397Y-112268857D01*
X107250213Y-112199392D01*
X106449605Y-113000000D01*
X106090395Y-113000000D01*
X106076253Y-112985858D01*
X106255858Y-112806253D01*
X106270000Y-112820395D01*
X107070608Y-112019787D01*
X107045141Y-111931000D01*
X110646532Y-111931000D01*
X110696366Y-111940913D01*
X110746200Y-111931000D01*
X110746201Y-111931000D01*
X110893797Y-111901641D01*
X111061172Y-111789806D01*
X111089405Y-111747552D01*
X114322586Y-108514372D01*
X114364836Y-108486142D01*
X114476671Y-108318767D01*
X114506030Y-108171171D01*
X114506030Y-108171170D01*
X114515943Y-108121337D01*
X114506030Y-108071503D01*
X114506030Y-94799865D01*
X114515943Y-94750030D01*
X114476671Y-94552599D01*
X114393065Y-94427472D01*
X114364836Y-94385224D01*
X114322588Y-94356995D01*
X105833039Y-85867448D01*
X105804806Y-85825194D01*
X105637431Y-85713359D01*
X105489835Y-85684000D01*
X105489834Y-85684000D01*
X105440000Y-85674087D01*
X105390166Y-85684000D01*
X104932833Y-85684000D01*
X104853592Y-85492694D01*
X104507306Y-85146408D01*
X104054861Y-84959000D01*
X103565139Y-84959000D01*
X103112694Y-85146408D01*
X102766408Y-85492694D01*
X102579000Y-85945139D01*
X102579000Y-86434861D01*
X102766408Y-86887306D01*
X103112694Y-87233592D01*
X103565139Y-87421000D01*
X104054861Y-87421000D01*
X104507306Y-87233592D01*
X104853592Y-86887306D01*
X104932833Y-86696000D01*
X105230409Y-86696000D01*
X106758409Y-88224000D01*
X104932833Y-88224000D01*
X104853592Y-88032694D01*
X104507306Y-87686408D01*
X104054861Y-87499000D01*
X103565139Y-87499000D01*
X103112694Y-87686408D01*
X102766408Y-88032694D01*
X102579000Y-88485139D01*
X102579000Y-88974861D01*
X102766408Y-89427306D01*
X103112694Y-89773592D01*
X103565139Y-89961000D01*
X104054861Y-89961000D01*
X104507306Y-89773592D01*
X104853592Y-89427306D01*
X104932833Y-89236000D01*
X107063287Y-89236000D01*
X108591287Y-90764000D01*
X104932833Y-90764000D01*
X104853592Y-90572694D01*
X104507306Y-90226408D01*
X104054861Y-90039000D01*
X103565139Y-90039000D01*
X103112694Y-90226408D01*
X102766408Y-90572694D01*
X102579000Y-91025139D01*
X102579000Y-91514861D01*
X102766408Y-91967306D01*
X103112694Y-92313592D01*
X103565139Y-92501000D01*
X104054861Y-92501000D01*
X104507306Y-92313592D01*
X104853592Y-91967306D01*
X104932833Y-91776000D01*
X108896165Y-91776000D01*
X110424165Y-93304000D01*
X104932833Y-93304000D01*
X104853592Y-93112694D01*
X104507306Y-92766408D01*
X104054861Y-92579000D01*
X103565139Y-92579000D01*
X103112694Y-92766408D01*
X102766408Y-93112694D01*
X102579000Y-93565139D01*
X102579000Y-94054861D01*
X102766408Y-94507306D01*
X103112694Y-94853592D01*
X103565139Y-95041000D01*
X104054861Y-95041000D01*
X104507306Y-94853592D01*
X104853592Y-94507306D01*
X104932833Y-94316000D01*
X110600406Y-94316000D01*
X111993998Y-95709593D01*
X111993997Y-107290410D01*
X110315409Y-108969000D01*
X106748464Y-108969000D01*
X106748464Y-108681000D01*
X106775166Y-108681000D01*
X106825000Y-108690913D01*
X106874834Y-108681000D01*
X106874835Y-108681000D01*
X107022431Y-108651641D01*
X107189806Y-108539806D01*
X107218038Y-108497553D01*
X107561532Y-108154060D01*
X107575314Y-108174686D01*
X107701341Y-108258894D01*
X107850000Y-108288464D01*
X108650000Y-108288464D01*
X108798659Y-108258894D01*
X108808591Y-108252258D01*
X108811673Y-108259699D01*
X108990302Y-108438327D01*
X109223691Y-108535000D01*
X109464250Y-108535000D01*
X109623000Y-108376250D01*
X109623000Y-107627000D01*
X109877000Y-107627000D01*
X109877000Y-108376250D01*
X110035750Y-108535000D01*
X110276309Y-108535000D01*
X110509698Y-108438327D01*
X110688327Y-108259699D01*
X110785000Y-108026310D01*
X110785000Y-107785750D01*
X110626250Y-107627000D01*
X109877000Y-107627000D01*
X109623000Y-107627000D01*
X109603000Y-107627000D01*
X109603000Y-107373000D01*
X109623000Y-107373000D01*
X109623000Y-107353000D01*
X109877000Y-107353000D01*
X109877000Y-107373000D01*
X110626250Y-107373000D01*
X110785000Y-107214250D01*
X110785000Y-106973690D01*
X110688327Y-106740301D01*
X110509698Y-106561673D01*
X110502258Y-106558591D01*
X110508894Y-106548659D01*
X110538464Y-106400000D01*
X110538464Y-105600000D01*
X110508894Y-105451341D01*
X110424686Y-105325314D01*
X110298659Y-105241106D01*
X110150000Y-105211536D01*
X109350000Y-105211536D01*
X109201341Y-105241106D01*
X109075314Y-105325314D01*
X109000000Y-105438030D01*
X108924686Y-105325314D01*
X108798659Y-105241106D01*
X108650000Y-105211536D01*
X107850000Y-105211536D01*
X107701341Y-105241106D01*
X107575314Y-105325314D01*
X107491106Y-105451341D01*
X107461536Y-105600000D01*
X107461536Y-105957872D01*
X106747791Y-106671617D01*
X106723600Y-106550000D01*
X106748464Y-106425000D01*
X106748464Y-106284561D01*
X106898327Y-106134699D01*
X106995000Y-105901310D01*
X106995000Y-105833750D01*
X106836250Y-105675000D01*
X106521970Y-105675000D01*
X106508659Y-105666106D01*
X106360000Y-105636536D01*
X104580000Y-105636536D01*
X104431341Y-105666106D01*
X104418030Y-105675000D01*
X104103750Y-105675000D01*
X103945000Y-105833750D01*
X103945000Y-105901310D01*
X104041673Y-106134699D01*
X104191536Y-106284561D01*
X104191536Y-106425000D01*
X104216400Y-106550000D01*
X104191536Y-106675000D01*
X104191536Y-107018877D01*
X104190919Y-107019000D01*
X104043323Y-107048359D01*
X103875948Y-107160194D01*
X103847717Y-107202445D01*
X102882423Y-108167740D01*
X102840173Y-108195970D01*
X102758124Y-108318767D01*
X102728338Y-108363345D01*
X102689065Y-108560776D01*
X102698979Y-108610615D01*
X102698978Y-110585430D01*
X100290409Y-112994000D01*
X94669592Y-112994000D01*
X93651759Y-111976167D01*
X93731000Y-111784861D01*
X93731000Y-111295139D01*
X93543592Y-110842694D01*
X93431899Y-110731001D01*
X94325165Y-110731001D01*
X94374999Y-110740914D01*
X94424833Y-110731001D01*
X94424834Y-110731001D01*
X94572430Y-110701642D01*
X94739805Y-110589807D01*
X94768038Y-110547553D01*
X95779841Y-109535750D01*
X96465000Y-109535750D01*
X96465000Y-109776309D01*
X96561673Y-110009698D01*
X96740301Y-110188327D01*
X96973690Y-110285000D01*
X97214250Y-110285000D01*
X97373000Y-110126250D01*
X97373000Y-109377000D01*
X96623750Y-109377000D01*
X96465000Y-109535750D01*
X95779841Y-109535750D01*
X96465000Y-108850592D01*
X96465000Y-108964250D01*
X96623750Y-109123000D01*
X97373000Y-109123000D01*
X97373000Y-109103000D01*
X97627000Y-109103000D01*
X97627000Y-109123000D01*
X97647000Y-109123000D01*
X97647000Y-109377000D01*
X97627000Y-109377000D01*
X97627000Y-110126250D01*
X97785750Y-110285000D01*
X98026310Y-110285000D01*
X98251536Y-110191708D01*
X98251536Y-110325000D01*
X98276400Y-110450000D01*
X98251536Y-110575000D01*
X98251536Y-110975000D01*
X98276400Y-111100000D01*
X98251536Y-111225000D01*
X98251536Y-111625000D01*
X98281106Y-111773659D01*
X98365314Y-111899686D01*
X98491341Y-111983894D01*
X98640000Y-112013464D01*
X100420000Y-112013464D01*
X100568659Y-111983894D01*
X100694686Y-111899686D01*
X100778894Y-111773659D01*
X100808464Y-111625000D01*
X100808464Y-111225000D01*
X100783600Y-111100000D01*
X100808464Y-110975000D01*
X100808464Y-110613370D01*
X100867431Y-110601641D01*
X101034806Y-110489806D01*
X101063038Y-110447553D01*
X102322556Y-109188036D01*
X102364806Y-109159806D01*
X102476641Y-108992431D01*
X102506000Y-108844835D01*
X102506000Y-108844834D01*
X102515913Y-108795001D01*
X102506000Y-108745167D01*
X102506000Y-106709591D01*
X103945000Y-105270592D01*
X103945000Y-105316250D01*
X104103750Y-105475000D01*
X105343000Y-105475000D01*
X105343000Y-104898750D01*
X105597000Y-104898750D01*
X105597000Y-105475000D01*
X106836250Y-105475000D01*
X106995000Y-105316250D01*
X106995000Y-105248690D01*
X106898327Y-105015301D01*
X106719698Y-104836673D01*
X106486309Y-104740000D01*
X105755750Y-104740000D01*
X105597000Y-104898750D01*
X105343000Y-104898750D01*
X105184250Y-104740000D01*
X104475592Y-104740000D01*
X104709592Y-104506000D01*
X105950166Y-104506000D01*
X106000000Y-104515913D01*
X106049834Y-104506000D01*
X106049835Y-104506000D01*
X106197431Y-104476641D01*
X106364806Y-104364806D01*
X106393038Y-104322553D01*
X107135331Y-103580261D01*
X109049955Y-103580261D01*
X109099789Y-103590174D01*
X109149623Y-103580261D01*
X109149624Y-103580261D01*
X109297220Y-103550902D01*
X109464595Y-103439067D01*
X109492827Y-103396814D01*
X109936550Y-102953092D01*
X109950484Y-102973946D01*
X110076511Y-103058154D01*
X110225170Y-103087724D01*
X110776350Y-103087724D01*
X110925009Y-103058154D01*
X111051036Y-102973946D01*
X111135244Y-102847919D01*
X111164814Y-102699260D01*
X111164814Y-101698500D01*
X111135244Y-101549841D01*
X111051036Y-101423814D01*
X110925009Y-101339606D01*
X110776350Y-101310036D01*
X110225170Y-101310036D01*
X110076511Y-101339606D01*
X109950484Y-101423814D01*
X109866276Y-101549841D01*
X109836706Y-101698500D01*
X109836706Y-101710509D01*
X109777738Y-101722239D01*
X109722951Y-101758847D01*
X109610364Y-101834074D01*
X109582133Y-101876325D01*
X109384430Y-102074028D01*
X109384430Y-102071878D01*
X109225682Y-102071878D01*
X109384430Y-101913130D01*
X109384430Y-101572191D01*
X109287757Y-101338802D01*
X109109129Y-101160173D01*
X108875740Y-101063500D01*
X108759590Y-101063500D01*
X108600840Y-101222250D01*
X108600840Y-102071880D01*
X108620840Y-102071880D01*
X108620840Y-102325880D01*
X108600840Y-102325880D01*
X108600840Y-102345880D01*
X108346840Y-102345880D01*
X108346840Y-102325880D01*
X107722000Y-102325880D01*
X107563250Y-102484630D01*
X107563250Y-102568261D01*
X106975574Y-102568261D01*
X106925739Y-102558348D01*
X106728307Y-102597620D01*
X106708657Y-102610750D01*
X106639930Y-102656671D01*
X106621341Y-102154623D01*
X106418965Y-101666042D01*
X106165011Y-101572191D01*
X107563250Y-101572191D01*
X107563250Y-101913130D01*
X107722000Y-102071880D01*
X108346840Y-102071880D01*
X108346840Y-101222250D01*
X108188090Y-101063500D01*
X108071940Y-101063500D01*
X107838551Y-101160173D01*
X107659923Y-101338802D01*
X107563250Y-101572191D01*
X106165011Y-101572191D01*
X106152163Y-101567443D01*
X105179605Y-102540000D01*
X105193748Y-102554142D01*
X105014142Y-102733748D01*
X105000000Y-102719605D01*
X104027443Y-103692163D01*
X104044929Y-103739479D01*
X101677446Y-106106963D01*
X101635195Y-106135194D01*
X101557650Y-106251250D01*
X101523360Y-106302569D01*
X101484087Y-106500000D01*
X101494001Y-106549839D01*
X101494000Y-108585408D01*
X101025329Y-109054079D01*
X100896250Y-108925000D01*
X100581970Y-108925000D01*
X100568659Y-108916106D01*
X100420000Y-108886536D01*
X99383000Y-108886536D01*
X99383000Y-108763464D01*
X100420000Y-108763464D01*
X100568659Y-108733894D01*
X100581970Y-108725000D01*
X100896250Y-108725000D01*
X101055000Y-108566250D01*
X101055000Y-108509583D01*
X101063039Y-108497552D01*
X101117553Y-108443038D01*
X101159807Y-108414805D01*
X101271642Y-108247430D01*
X101301001Y-108099834D01*
X101310914Y-108050000D01*
X101301001Y-108000166D01*
X101301001Y-104257329D01*
X101308591Y-104252258D01*
X101311673Y-104259699D01*
X101490302Y-104438327D01*
X101723691Y-104535000D01*
X101964250Y-104535000D01*
X102123000Y-104376250D01*
X102123000Y-103627000D01*
X102377000Y-103627000D01*
X102377000Y-104376250D01*
X102535750Y-104535000D01*
X102776309Y-104535000D01*
X103009698Y-104438327D01*
X103188327Y-104259699D01*
X103285000Y-104026310D01*
X103285000Y-103785750D01*
X103126250Y-103627000D01*
X102377000Y-103627000D01*
X102123000Y-103627000D01*
X102103000Y-103627000D01*
X102103000Y-103373000D01*
X102123000Y-103373000D01*
X102123000Y-103353000D01*
X102377000Y-103353000D01*
X102377000Y-103373000D01*
X103126250Y-103373000D01*
X103285000Y-103214250D01*
X103285000Y-102973690D01*
X103188327Y-102740301D01*
X103160831Y-102712805D01*
X103314677Y-102558958D01*
X103360955Y-102447234D01*
X103378659Y-102925377D01*
X103581035Y-103413958D01*
X103847837Y-103512557D01*
X104820395Y-102540000D01*
X103847837Y-101567443D01*
X103581035Y-101666042D01*
X103411350Y-102122815D01*
X103411350Y-101984630D01*
X103252600Y-101825880D01*
X102627760Y-101825880D01*
X102627760Y-101845880D01*
X102373760Y-101845880D01*
X102373760Y-101825880D01*
X101748920Y-101825880D01*
X101590170Y-101984630D01*
X101590170Y-102325569D01*
X101659020Y-102491788D01*
X101490302Y-102561673D01*
X101311673Y-102740301D01*
X101308591Y-102747742D01*
X101298659Y-102741106D01*
X101150000Y-102711536D01*
X100979840Y-102711536D01*
X100979840Y-102503530D01*
X101024116Y-102473946D01*
X101108324Y-102347919D01*
X101137894Y-102199260D01*
X101137894Y-101198500D01*
X101112770Y-101072191D01*
X101590170Y-101072191D01*
X101590170Y-101413130D01*
X101748920Y-101571880D01*
X102373760Y-101571880D01*
X102373760Y-100722250D01*
X102627760Y-100722250D01*
X102627760Y-101571880D01*
X103252600Y-101571880D01*
X103411350Y-101413130D01*
X103411350Y-101072191D01*
X103314677Y-100838802D01*
X103136049Y-100660173D01*
X102902660Y-100563500D01*
X102786510Y-100563500D01*
X102627760Y-100722250D01*
X102373760Y-100722250D01*
X102215010Y-100563500D01*
X102098860Y-100563500D01*
X101865471Y-100660173D01*
X101686843Y-100838802D01*
X101590170Y-101072191D01*
X101112770Y-101072191D01*
X101108324Y-101049841D01*
X101024116Y-100923814D01*
X100898089Y-100839606D01*
X100749430Y-100810036D01*
X100198250Y-100810036D01*
X100049591Y-100839606D01*
X99923564Y-100923814D01*
X99839356Y-101049841D01*
X99809786Y-101198500D01*
X99809786Y-102199260D01*
X99839356Y-102347919D01*
X99923564Y-102473946D01*
X99967841Y-102503530D01*
X99967841Y-103068303D01*
X99961536Y-103100000D01*
X99961536Y-103205697D01*
X99957927Y-103223840D01*
X99961536Y-103241983D01*
X99961536Y-103900000D01*
X99991106Y-104048659D01*
X100075314Y-104174686D01*
X100201341Y-104258894D01*
X100257990Y-104270162D01*
X100268412Y-104322558D01*
X100273360Y-104347431D01*
X100289001Y-104370840D01*
X100289001Y-104986536D01*
X98640000Y-104986536D01*
X98491341Y-105016106D01*
X98412179Y-105069000D01*
X93434833Y-105069000D01*
X93384999Y-105059087D01*
X93335165Y-105069000D01*
X93330503Y-105069927D01*
X93364353Y-104963958D01*
X92500000Y-104099605D01*
X91635647Y-104963958D01*
X91715920Y-105215259D01*
X92021071Y-105325954D01*
X91802694Y-105416408D01*
X91456408Y-105762694D01*
X91269000Y-106215139D01*
X91269000Y-106704861D01*
X91456408Y-107157306D01*
X91802694Y-107503592D01*
X92255139Y-107691000D01*
X92744861Y-107691000D01*
X93197306Y-107503592D01*
X93543592Y-107157306D01*
X93731000Y-106704861D01*
X93731000Y-106215139D01*
X93675438Y-106081000D01*
X94703408Y-106081000D01*
X92936167Y-107848241D01*
X92744861Y-107769000D01*
X92255139Y-107769000D01*
X91802694Y-107956408D01*
X91456408Y-108302694D01*
X91269000Y-108755139D01*
X91269000Y-109244861D01*
X91456408Y-109697306D01*
X91630024Y-109870922D01*
X91608960Y-109902446D01*
X90952444Y-110558963D01*
X90910194Y-110587193D01*
X90821445Y-110720017D01*
X90798359Y-110754568D01*
X90759086Y-110951999D01*
X88248724Y-110951999D01*
X87843299Y-110686191D01*
X87821208Y-110675129D01*
X87800651Y-110661419D01*
X87748864Y-110638901D01*
X87095736Y-110401827D01*
X87071691Y-110396143D01*
X87048534Y-110387531D01*
X86992974Y-110377534D01*
X86992956Y-110377530D01*
X86992947Y-110377530D01*
X86320992Y-110299188D01*
X86294909Y-110294000D01*
X83456000Y-110294000D01*
X83456000Y-106234400D01*
X83633517Y-106377166D01*
X84173000Y-106535000D01*
X84473000Y-106535000D01*
X84473000Y-105227000D01*
X84727000Y-105227000D01*
X84727000Y-106535000D01*
X85027000Y-106535000D01*
X85566483Y-106377166D01*
X86004500Y-106024896D01*
X86274367Y-105531819D01*
X86291904Y-105449039D01*
X86608096Y-105449039D01*
X86625633Y-105531819D01*
X86895500Y-106024896D01*
X87333517Y-106377166D01*
X87873000Y-106535000D01*
X88173000Y-106535000D01*
X88173000Y-105227000D01*
X88427000Y-105227000D01*
X88427000Y-106535000D01*
X88727000Y-106535000D01*
X89266483Y-106377166D01*
X89704500Y-106024896D01*
X89974367Y-105531819D01*
X89991904Y-105449039D01*
X89869915Y-105227000D01*
X88427000Y-105227000D01*
X88173000Y-105227000D01*
X86730085Y-105227000D01*
X86608096Y-105449039D01*
X86291904Y-105449039D01*
X86169915Y-105227000D01*
X84727000Y-105227000D01*
X84473000Y-105227000D01*
X84453000Y-105227000D01*
X84453000Y-104973000D01*
X84473000Y-104973000D01*
X84473000Y-104953000D01*
X84727000Y-104953000D01*
X84727000Y-104973000D01*
X86169915Y-104973000D01*
X86291904Y-104750961D01*
X86274367Y-104668181D01*
X86004500Y-104175104D01*
X85980746Y-104156000D01*
X86919254Y-104156000D01*
X86895500Y-104175104D01*
X86625633Y-104668181D01*
X86608096Y-104750961D01*
X86730085Y-104973000D01*
X88173000Y-104973000D01*
X88173000Y-103665000D01*
X88427000Y-103665000D01*
X88427000Y-104973000D01*
X89869915Y-104973000D01*
X89991904Y-104750961D01*
X89974367Y-104668181D01*
X89704500Y-104175104D01*
X89266483Y-103822834D01*
X88816823Y-103691279D01*
X91003282Y-103691279D01*
X91029685Y-104281458D01*
X91204741Y-104704080D01*
X91456042Y-104784353D01*
X92320395Y-103920000D01*
X92679605Y-103920000D01*
X93543958Y-104784353D01*
X93795259Y-104704080D01*
X93996718Y-104148721D01*
X93970315Y-103558542D01*
X93795259Y-103135920D01*
X93543958Y-103055647D01*
X92679605Y-103920000D01*
X92320395Y-103920000D01*
X91456042Y-103055647D01*
X91204741Y-103135920D01*
X91003282Y-103691279D01*
X88816823Y-103691279D01*
X88727000Y-103665000D01*
X88427000Y-103665000D01*
X88173000Y-103665000D01*
X88057971Y-103665000D01*
X88056000Y-103655091D01*
X88056000Y-103535000D01*
X88314250Y-103535000D01*
X88473000Y-103376250D01*
X88473000Y-102452000D01*
X88727000Y-102452000D01*
X88727000Y-103376250D01*
X88885750Y-103535000D01*
X89476310Y-103535000D01*
X89709699Y-103438327D01*
X89888327Y-103259698D01*
X89985000Y-103026309D01*
X89985000Y-102876042D01*
X91635647Y-102876042D01*
X92500000Y-103740395D01*
X93364353Y-102876042D01*
X93284080Y-102624741D01*
X92728721Y-102423282D01*
X92138542Y-102449685D01*
X91715920Y-102624741D01*
X91635647Y-102876042D01*
X89985000Y-102876042D01*
X89985000Y-102610750D01*
X89826250Y-102452000D01*
X88727000Y-102452000D01*
X88473000Y-102452000D01*
X88453000Y-102452000D01*
X88453000Y-102198000D01*
X88473000Y-102198000D01*
X88473000Y-102178000D01*
X88727000Y-102178000D01*
X88727000Y-102198000D01*
X89826250Y-102198000D01*
X89985000Y-102039250D01*
X89985000Y-101806000D01*
X94150166Y-101806000D01*
X94200000Y-101815913D01*
X94249834Y-101806000D01*
X94249835Y-101806000D01*
X94397431Y-101776641D01*
X94564806Y-101664806D01*
X94593039Y-101622553D01*
X94679842Y-101535750D01*
X95965000Y-101535750D01*
X95965000Y-101776309D01*
X96061673Y-102009698D01*
X96240301Y-102188327D01*
X96473690Y-102285000D01*
X96714250Y-102285000D01*
X96873000Y-102126250D01*
X96873000Y-101377000D01*
X97127000Y-101377000D01*
X97127000Y-102126250D01*
X97285750Y-102285000D01*
X97526310Y-102285000D01*
X97750000Y-102192344D01*
X97973690Y-102285000D01*
X98214250Y-102285000D01*
X98373000Y-102126250D01*
X98373000Y-101377000D01*
X98627000Y-101377000D01*
X98627000Y-102126250D01*
X98785750Y-102285000D01*
X99026310Y-102285000D01*
X99259699Y-102188327D01*
X99438327Y-102009698D01*
X99535000Y-101776309D01*
X99535000Y-101535750D01*
X99376250Y-101377000D01*
X98627000Y-101377000D01*
X98373000Y-101377000D01*
X97127000Y-101377000D01*
X96873000Y-101377000D01*
X96123750Y-101377000D01*
X95965000Y-101535750D01*
X94679842Y-101535750D01*
X95959592Y-100256000D01*
X96232621Y-100256000D01*
X96241106Y-100298659D01*
X96247742Y-100308591D01*
X96240301Y-100311673D01*
X96061673Y-100490302D01*
X95965000Y-100723691D01*
X95965000Y-100964250D01*
X96123750Y-101123000D01*
X96873000Y-101123000D01*
X96873000Y-101103000D01*
X97127000Y-101103000D01*
X97127000Y-101123000D01*
X98373000Y-101123000D01*
X98373000Y-101103000D01*
X98627000Y-101103000D01*
X98627000Y-101123000D01*
X99376250Y-101123000D01*
X99535000Y-100964250D01*
X99535000Y-100723691D01*
X99438327Y-100490302D01*
X99259699Y-100311673D01*
X99252258Y-100308591D01*
X99258894Y-100298659D01*
X99288464Y-100150000D01*
X99288464Y-99807120D01*
X100837064Y-99807120D01*
X100865516Y-99950159D01*
X100949724Y-100076186D01*
X101075751Y-100160394D01*
X101224410Y-100189964D01*
X101775590Y-100189964D01*
X101924249Y-100160394D01*
X102050276Y-100076186D01*
X102134484Y-99950159D01*
X102164054Y-99801500D01*
X102164054Y-99127867D01*
X103325922Y-97966000D01*
X103715360Y-97966000D01*
X103829677Y-98241985D01*
X104218015Y-98630323D01*
X104458657Y-98730000D01*
X104218015Y-98829677D01*
X103829677Y-99218015D01*
X103619510Y-99725404D01*
X103619510Y-100274596D01*
X103829677Y-100781985D01*
X104156225Y-101108533D01*
X104126042Y-101121035D01*
X104027443Y-101387837D01*
X105000000Y-102360395D01*
X105972557Y-101387837D01*
X105873958Y-101121035D01*
X105842835Y-101109473D01*
X106170323Y-100781985D01*
X106367018Y-100307120D01*
X108837064Y-100307120D01*
X108865516Y-100450159D01*
X108949724Y-100576186D01*
X109075751Y-100660394D01*
X109224410Y-100689964D01*
X109775590Y-100689964D01*
X109924249Y-100660394D01*
X110050276Y-100576186D01*
X110134484Y-100450159D01*
X110164054Y-100301500D01*
X110164054Y-99300740D01*
X110134484Y-99152081D01*
X110106056Y-99109535D01*
X110572556Y-98643036D01*
X110614806Y-98614806D01*
X110726641Y-98447431D01*
X110756000Y-98299835D01*
X110756000Y-98299834D01*
X110762722Y-98266042D01*
X110798659Y-98258894D01*
X110924686Y-98174686D01*
X111008894Y-98048659D01*
X111038464Y-97900000D01*
X111038464Y-97100000D01*
X111008894Y-96951341D01*
X110924686Y-96825314D01*
X110798659Y-96741106D01*
X110650000Y-96711536D01*
X109850000Y-96711536D01*
X109701341Y-96741106D01*
X109575314Y-96825314D01*
X109500000Y-96938030D01*
X109424686Y-96825314D01*
X109298659Y-96741106D01*
X109150000Y-96711536D01*
X108350000Y-96711536D01*
X108201341Y-96741106D01*
X108075314Y-96825314D01*
X107991106Y-96951341D01*
X107982621Y-96994000D01*
X106301208Y-96994000D01*
X106170323Y-96678015D01*
X105781985Y-96289677D01*
X105274596Y-96079510D01*
X104725404Y-96079510D01*
X104218015Y-96289677D01*
X103829677Y-96678015D01*
X103715360Y-96954000D01*
X103166165Y-96954000D01*
X103116330Y-96944087D01*
X102918898Y-96983359D01*
X102902973Y-96994000D01*
X102751524Y-97095194D01*
X102723293Y-97137445D01*
X101448463Y-98412276D01*
X101224410Y-98412276D01*
X101075751Y-98441846D01*
X100949724Y-98526054D01*
X100865516Y-98652081D01*
X100837064Y-98795120D01*
X98998713Y-98795120D01*
X98948879Y-98785207D01*
X98899045Y-98795120D01*
X98751449Y-98824479D01*
X98584074Y-98936314D01*
X98567221Y-98961536D01*
X98100000Y-98961536D01*
X97951341Y-98991106D01*
X97825314Y-99075314D01*
X97750000Y-99188030D01*
X97674686Y-99075314D01*
X97548659Y-98991106D01*
X97400000Y-98961536D01*
X96600000Y-98961536D01*
X96451341Y-98991106D01*
X96325314Y-99075314D01*
X96241106Y-99201341D01*
X96232621Y-99244000D01*
X95799833Y-99244000D01*
X95749999Y-99234087D01*
X95700165Y-99244000D01*
X95552569Y-99273359D01*
X95385194Y-99385194D01*
X95356963Y-99427445D01*
X93990409Y-100794000D01*
X89738464Y-100794000D01*
X89738464Y-100450000D01*
X89713600Y-100325000D01*
X89738464Y-100200000D01*
X89738464Y-99800000D01*
X89713600Y-99675000D01*
X89738464Y-99550000D01*
X89738464Y-99409562D01*
X89888327Y-99259698D01*
X89985000Y-99026309D01*
X89985000Y-98958750D01*
X89826250Y-98800000D01*
X89681518Y-98800000D01*
X89709699Y-98788327D01*
X89888327Y-98609698D01*
X89939080Y-98487170D01*
X89985000Y-98441250D01*
X89985000Y-97960750D01*
X89826250Y-97802000D01*
X88727000Y-97802000D01*
X88727000Y-97822000D01*
X88473000Y-97822000D01*
X88473000Y-97802000D01*
X88453000Y-97802000D01*
X88453000Y-97548000D01*
X88473000Y-97548000D01*
X88473000Y-96623750D01*
X88727000Y-96623750D01*
X88727000Y-97548000D01*
X89826250Y-97548000D01*
X89985000Y-97389250D01*
X89985000Y-96973691D01*
X89888327Y-96740302D01*
X89709699Y-96561673D01*
X89476310Y-96465000D01*
X88885750Y-96465000D01*
X88727000Y-96623750D01*
X88473000Y-96623750D01*
X88314250Y-96465000D01*
X88056000Y-96465000D01*
X88056000Y-96344908D01*
X88057971Y-96335000D01*
X88173000Y-96335000D01*
X88173000Y-95027000D01*
X88427000Y-95027000D01*
X88427000Y-96335000D01*
X88727000Y-96335000D01*
X89266483Y-96177166D01*
X89704500Y-95824896D01*
X89974367Y-95331819D01*
X89991904Y-95249039D01*
X89869915Y-95027000D01*
X88427000Y-95027000D01*
X88173000Y-95027000D01*
X86730085Y-95027000D01*
X86608096Y-95249039D01*
X86625633Y-95331819D01*
X86895500Y-95824896D01*
X86919254Y-95844000D01*
X85980746Y-95844000D01*
X86004500Y-95824896D01*
X86274367Y-95331819D01*
X86291904Y-95249039D01*
X86169915Y-95027000D01*
X84727000Y-95027000D01*
X84727000Y-95047000D01*
X84473000Y-95047000D01*
X84473000Y-95027000D01*
X84453000Y-95027000D01*
X84453000Y-94853958D01*
X95325647Y-94853958D01*
X95405920Y-95105259D01*
X95961279Y-95306718D01*
X96551458Y-95280315D01*
X96974080Y-95105259D01*
X97054353Y-94853958D01*
X96190000Y-93989605D01*
X95325647Y-94853958D01*
X84453000Y-94853958D01*
X84453000Y-94773000D01*
X84473000Y-94773000D01*
X84473000Y-93465000D01*
X84727000Y-93465000D01*
X84727000Y-94773000D01*
X86169915Y-94773000D01*
X86291904Y-94550961D01*
X86608096Y-94550961D01*
X86730085Y-94773000D01*
X88173000Y-94773000D01*
X88173000Y-93465000D01*
X88427000Y-93465000D01*
X88427000Y-94773000D01*
X89869915Y-94773000D01*
X89991904Y-94550961D01*
X89974367Y-94468181D01*
X89704500Y-93975104D01*
X89266483Y-93622834D01*
X89124447Y-93581279D01*
X94693282Y-93581279D01*
X94719685Y-94171458D01*
X94894741Y-94594080D01*
X95146042Y-94674353D01*
X96010395Y-93810000D01*
X96369605Y-93810000D01*
X97233958Y-94674353D01*
X97485259Y-94594080D01*
X97686718Y-94038721D01*
X97660315Y-93448542D01*
X97485259Y-93025920D01*
X97233958Y-92945647D01*
X96369605Y-93810000D01*
X96010395Y-93810000D01*
X95146042Y-92945647D01*
X94894741Y-93025920D01*
X94693282Y-93581279D01*
X89124447Y-93581279D01*
X88727000Y-93465000D01*
X88427000Y-93465000D01*
X88173000Y-93465000D01*
X87873000Y-93465000D01*
X87333517Y-93622834D01*
X86895500Y-93975104D01*
X86625633Y-94468181D01*
X86608096Y-94550961D01*
X86291904Y-94550961D01*
X86274367Y-94468181D01*
X86004500Y-93975104D01*
X85566483Y-93622834D01*
X85027000Y-93465000D01*
X84727000Y-93465000D01*
X84473000Y-93465000D01*
X84173000Y-93465000D01*
X83633517Y-93622834D01*
X83456000Y-93765600D01*
X83456000Y-92313958D01*
X95325647Y-92313958D01*
X95397852Y-92540000D01*
X95325647Y-92766042D01*
X96190000Y-93630395D01*
X97054353Y-92766042D01*
X96982148Y-92540000D01*
X97054353Y-92313958D01*
X96190000Y-91449605D01*
X95325647Y-92313958D01*
X83456000Y-92313958D01*
X83456000Y-91041279D01*
X94693282Y-91041279D01*
X94719685Y-91631458D01*
X94894741Y-92054080D01*
X95146042Y-92134353D01*
X96010395Y-91270000D01*
X96369605Y-91270000D01*
X97233958Y-92134353D01*
X97485259Y-92054080D01*
X97686718Y-91498721D01*
X97660315Y-90908542D01*
X97485259Y-90485920D01*
X97233958Y-90405647D01*
X96369605Y-91270000D01*
X96010395Y-91270000D01*
X95146042Y-90405647D01*
X94894741Y-90485920D01*
X94693282Y-91041279D01*
X83456000Y-91041279D01*
X83456000Y-89773958D01*
X95325647Y-89773958D01*
X95397852Y-90000000D01*
X95325647Y-90226042D01*
X96190000Y-91090395D01*
X97054353Y-90226042D01*
X96982148Y-90000000D01*
X97054353Y-89773958D01*
X96190000Y-88909605D01*
X95325647Y-89773958D01*
X83456000Y-89773958D01*
X83456000Y-88501279D01*
X94693282Y-88501279D01*
X94719685Y-89091458D01*
X94894741Y-89514080D01*
X95146042Y-89594353D01*
X96010395Y-88730000D01*
X96369605Y-88730000D01*
X97233958Y-89594353D01*
X97485259Y-89514080D01*
X97686718Y-88958721D01*
X97660315Y-88368542D01*
X97485259Y-87945920D01*
X97233958Y-87865647D01*
X96369605Y-88730000D01*
X96010395Y-88730000D01*
X95146042Y-87865647D01*
X94894741Y-87945920D01*
X94693282Y-88501279D01*
X83456000Y-88501279D01*
X83456000Y-85375872D01*
X88119130Y-85375872D01*
X88119130Y-86124128D01*
X88405476Y-86815427D01*
X88934573Y-87344524D01*
X89625872Y-87630870D01*
X90374128Y-87630870D01*
X91065427Y-87344524D01*
X91175993Y-87233958D01*
X95325647Y-87233958D01*
X95397852Y-87460000D01*
X95325647Y-87686042D01*
X96190000Y-88550395D01*
X97054353Y-87686042D01*
X96982148Y-87460000D01*
X97054353Y-87233958D01*
X96190000Y-86369605D01*
X95325647Y-87233958D01*
X91175993Y-87233958D01*
X91594524Y-86815427D01*
X91880870Y-86124128D01*
X91880870Y-85961279D01*
X94693282Y-85961279D01*
X94719685Y-86551458D01*
X94894741Y-86974080D01*
X95146042Y-87054353D01*
X96010395Y-86190000D01*
X96369605Y-86190000D01*
X97233958Y-87054353D01*
X97485259Y-86974080D01*
X97686718Y-86418721D01*
X97660315Y-85828542D01*
X97485259Y-85405920D01*
X97233958Y-85325647D01*
X96369605Y-86190000D01*
X96010395Y-86190000D01*
X95146042Y-85325647D01*
X94894741Y-85405920D01*
X94693282Y-85961279D01*
X91880870Y-85961279D01*
X91880870Y-85375872D01*
X91785672Y-85146042D01*
X95325647Y-85146042D01*
X96190000Y-86010395D01*
X97054353Y-85146042D01*
X96974080Y-84894741D01*
X96418721Y-84693282D01*
X95828542Y-84719685D01*
X95405920Y-84894741D01*
X95325647Y-85146042D01*
X91785672Y-85146042D01*
X91594524Y-84684573D01*
X91065427Y-84155476D01*
X90374128Y-83869130D01*
X89625872Y-83869130D01*
X88934573Y-84155476D01*
X88405476Y-84684573D01*
X88119130Y-85375872D01*
X83456000Y-85375872D01*
X83456000Y-83456000D01*
X110294001Y-83456000D01*
X110294000Y-86294908D01*
X110294000Y-86294908D01*
G37*
X110294000Y-86294908D02*
X110297982Y-86314925D01*
X110343218Y-86821790D01*
X110346997Y-86839958D01*
X110348000Y-86858478D01*
X110360991Y-86913434D01*
X110562398Y-87578427D01*
X110572251Y-87601089D01*
X110579226Y-87624786D01*
X110604500Y-87675258D01*
X110604510Y-87675281D01*
X110604517Y-87675290D01*
X110953496Y-88276104D01*
X110968299Y-88295892D01*
X110980539Y-88317350D01*
X111016753Y-88360661D01*
X111016761Y-88360672D01*
X111016766Y-88360676D01*
X111494606Y-88865096D01*
X111513565Y-88880948D01*
X111530412Y-88899014D01*
X111575618Y-88932833D01*
X111575629Y-88932842D01*
X111575635Y-88932845D01*
X112156701Y-89313810D01*
X112178796Y-89324874D01*
X112199349Y-89338581D01*
X112251136Y-89361099D01*
X112904264Y-89598173D01*
X112928311Y-89603858D01*
X112951467Y-89612469D01*
X113007027Y-89622466D01*
X113007045Y-89622470D01*
X113007054Y-89622470D01*
X113679008Y-89700812D01*
X113705091Y-89706000D01*
X116544000Y-89706000D01*
X116544001Y-114849000D01*
X113364238Y-114849000D01*
X113364238Y-116544000D01*
X89706000Y-116544000D01*
X89706000Y-113705091D01*
X89702018Y-113685072D01*
X89656782Y-113178210D01*
X89653003Y-113160042D01*
X89652000Y-113141522D01*
X89639009Y-113086566D01*
X89437602Y-112421573D01*
X89427750Y-112398913D01*
X89420774Y-112375213D01*
X89395500Y-112324742D01*
X89395490Y-112324719D01*
X89395483Y-112324710D01*
X89046503Y-111723896D01*
X89031703Y-111704112D01*
X89019461Y-111682650D01*
X88983247Y-111639339D01*
X88983239Y-111639328D01*
X88983234Y-111639324D01*
X88505393Y-111134904D01*
X88486440Y-111119057D01*
X88469589Y-111100986D01*
X88424382Y-111067167D01*
X88424371Y-111067158D01*
X88424365Y-111067155D01*
X88248724Y-110951999D01*
X90759086Y-110951999D01*
X90769000Y-111001838D01*
X90768999Y-112805165D01*
X90759086Y-112854999D01*
X90768999Y-112904833D01*
X90798358Y-113052429D01*
X90910193Y-113219805D01*
X90952446Y-113248037D01*
X91348241Y-113643833D01*
X91269000Y-113835139D01*
X91269000Y-114324861D01*
X91456408Y-114777306D01*
X91802694Y-115123592D01*
X92255139Y-115311000D01*
X92744861Y-115311000D01*
X93197306Y-115123592D01*
X93543592Y-114777306D01*
X93622833Y-114586000D01*
X99870409Y-114586000D01*
X100461536Y-115177128D01*
X100461536Y-115400000D01*
X100491106Y-115548659D01*
X100575314Y-115674686D01*
X100701341Y-115758894D01*
X100850000Y-115788464D01*
X101650000Y-115788464D01*
X101798659Y-115758894D01*
X101924686Y-115674686D01*
X102000000Y-115561970D01*
X102075314Y-115674686D01*
X102201341Y-115758894D01*
X102350000Y-115788464D01*
X103150000Y-115788464D01*
X103298659Y-115758894D01*
X103424686Y-115674686D01*
X103508894Y-115548659D01*
X103520162Y-115492011D01*
X103597431Y-115476641D01*
X103764806Y-115364806D01*
X103793038Y-115322553D01*
X104052555Y-115063036D01*
X104094806Y-115034806D01*
X104206641Y-114867431D01*
X104236000Y-114719835D01*
X104236000Y-114719834D01*
X104245913Y-114670001D01*
X104236000Y-114620167D01*
X104236000Y-114027583D01*
X104350360Y-113980213D01*
X105469392Y-113980213D01*
X105538857Y-114222397D01*
X106062302Y-114409144D01*
X106617368Y-114381362D01*
X107001143Y-114222397D01*
X107070608Y-113980213D01*
X106966267Y-113875872D01*
X108119130Y-113875872D01*
X108119130Y-114624128D01*
X108405476Y-115315427D01*
X108934573Y-115844524D01*
X109625872Y-116130870D01*
X110374128Y-116130870D01*
X111065427Y-115844524D01*
X111594524Y-115315427D01*
X111880870Y-114624128D01*
X111880870Y-113875872D01*
X111594524Y-113184573D01*
X111065427Y-112655476D01*
X110374128Y-112369130D01*
X109625872Y-112369130D01*
X108934573Y-112655476D01*
X108405476Y-113184573D01*
X108119130Y-113875872D01*
X106966267Y-113875872D01*
X106270000Y-113179605D01*
X105469392Y-113980213D01*
X104350360Y-113980213D01*
X104377458Y-113968989D01*
X104698989Y-113647458D01*
X104873000Y-113227357D01*
X104873000Y-113034931D01*
X104888638Y-113347368D01*
X105047603Y-113731143D01*
X105289787Y-113800608D01*
X106090395Y-113000000D01*
X106449605Y-113000000D01*
X107250213Y-113800608D01*
X107492397Y-113731143D01*
X107679144Y-113207698D01*
X107651362Y-112652632D01*
X107492397Y-112268857D01*
X107250213Y-112199392D01*
X106449605Y-113000000D01*
X106090395Y-113000000D01*
X106076253Y-112985858D01*
X106255858Y-112806253D01*
X106270000Y-112820395D01*
X107070608Y-112019787D01*
X107045141Y-111931000D01*
X110646532Y-111931000D01*
X110696366Y-111940913D01*
X110746200Y-111931000D01*
X110746201Y-111931000D01*
X110893797Y-111901641D01*
X111061172Y-111789806D01*
X111089405Y-111747552D01*
X114322586Y-108514372D01*
X114364836Y-108486142D01*
X114476671Y-108318767D01*
X114506030Y-108171171D01*
X114506030Y-108171170D01*
X114515943Y-108121337D01*
X114506030Y-108071503D01*
X114506030Y-94799865D01*
X114515943Y-94750030D01*
X114476671Y-94552599D01*
X114393065Y-94427472D01*
X114364836Y-94385224D01*
X114322588Y-94356995D01*
X105833039Y-85867448D01*
X105804806Y-85825194D01*
X105637431Y-85713359D01*
X105489835Y-85684000D01*
X105489834Y-85684000D01*
X105440000Y-85674087D01*
X105390166Y-85684000D01*
X104932833Y-85684000D01*
X104853592Y-85492694D01*
X104507306Y-85146408D01*
X104054861Y-84959000D01*
X103565139Y-84959000D01*
X103112694Y-85146408D01*
X102766408Y-85492694D01*
X102579000Y-85945139D01*
X102579000Y-86434861D01*
X102766408Y-86887306D01*
X103112694Y-87233592D01*
X103565139Y-87421000D01*
X104054861Y-87421000D01*
X104507306Y-87233592D01*
X104853592Y-86887306D01*
X104932833Y-86696000D01*
X105230409Y-86696000D01*
X106758409Y-88224000D01*
X104932833Y-88224000D01*
X104853592Y-88032694D01*
X104507306Y-87686408D01*
X104054861Y-87499000D01*
X103565139Y-87499000D01*
X103112694Y-87686408D01*
X102766408Y-88032694D01*
X102579000Y-88485139D01*
X102579000Y-88974861D01*
X102766408Y-89427306D01*
X103112694Y-89773592D01*
X103565139Y-89961000D01*
X104054861Y-89961000D01*
X104507306Y-89773592D01*
X104853592Y-89427306D01*
X104932833Y-89236000D01*
X107063287Y-89236000D01*
X108591287Y-90764000D01*
X104932833Y-90764000D01*
X104853592Y-90572694D01*
X104507306Y-90226408D01*
X104054861Y-90039000D01*
X103565139Y-90039000D01*
X103112694Y-90226408D01*
X102766408Y-90572694D01*
X102579000Y-91025139D01*
X102579000Y-91514861D01*
X102766408Y-91967306D01*
X103112694Y-92313592D01*
X103565139Y-92501000D01*
X104054861Y-92501000D01*
X104507306Y-92313592D01*
X104853592Y-91967306D01*
X104932833Y-91776000D01*
X108896165Y-91776000D01*
X110424165Y-93304000D01*
X104932833Y-93304000D01*
X104853592Y-93112694D01*
X104507306Y-92766408D01*
X104054861Y-92579000D01*
X103565139Y-92579000D01*
X103112694Y-92766408D01*
X102766408Y-93112694D01*
X102579000Y-93565139D01*
X102579000Y-94054861D01*
X102766408Y-94507306D01*
X103112694Y-94853592D01*
X103565139Y-95041000D01*
X104054861Y-95041000D01*
X104507306Y-94853592D01*
X104853592Y-94507306D01*
X104932833Y-94316000D01*
X110600406Y-94316000D01*
X111993998Y-95709593D01*
X111993997Y-107290410D01*
X110315409Y-108969000D01*
X106748464Y-108969000D01*
X106748464Y-108681000D01*
X106775166Y-108681000D01*
X106825000Y-108690913D01*
X106874834Y-108681000D01*
X106874835Y-108681000D01*
X107022431Y-108651641D01*
X107189806Y-108539806D01*
X107218038Y-108497553D01*
X107561532Y-108154060D01*
X107575314Y-108174686D01*
X107701341Y-108258894D01*
X107850000Y-108288464D01*
X108650000Y-108288464D01*
X108798659Y-108258894D01*
X108808591Y-108252258D01*
X108811673Y-108259699D01*
X108990302Y-108438327D01*
X109223691Y-108535000D01*
X109464250Y-108535000D01*
X109623000Y-108376250D01*
X109623000Y-107627000D01*
X109877000Y-107627000D01*
X109877000Y-108376250D01*
X110035750Y-108535000D01*
X110276309Y-108535000D01*
X110509698Y-108438327D01*
X110688327Y-108259699D01*
X110785000Y-108026310D01*
X110785000Y-107785750D01*
X110626250Y-107627000D01*
X109877000Y-107627000D01*
X109623000Y-107627000D01*
X109603000Y-107627000D01*
X109603000Y-107373000D01*
X109623000Y-107373000D01*
X109623000Y-107353000D01*
X109877000Y-107353000D01*
X109877000Y-107373000D01*
X110626250Y-107373000D01*
X110785000Y-107214250D01*
X110785000Y-106973690D01*
X110688327Y-106740301D01*
X110509698Y-106561673D01*
X110502258Y-106558591D01*
X110508894Y-106548659D01*
X110538464Y-106400000D01*
X110538464Y-105600000D01*
X110508894Y-105451341D01*
X110424686Y-105325314D01*
X110298659Y-105241106D01*
X110150000Y-105211536D01*
X109350000Y-105211536D01*
X109201341Y-105241106D01*
X109075314Y-105325314D01*
X109000000Y-105438030D01*
X108924686Y-105325314D01*
X108798659Y-105241106D01*
X108650000Y-105211536D01*
X107850000Y-105211536D01*
X107701341Y-105241106D01*
X107575314Y-105325314D01*
X107491106Y-105451341D01*
X107461536Y-105600000D01*
X107461536Y-105957872D01*
X106747791Y-106671617D01*
X106723600Y-106550000D01*
X106748464Y-106425000D01*
X106748464Y-106284561D01*
X106898327Y-106134699D01*
X106995000Y-105901310D01*
X106995000Y-105833750D01*
X106836250Y-105675000D01*
X106521970Y-105675000D01*
X106508659Y-105666106D01*
X106360000Y-105636536D01*
X104580000Y-105636536D01*
X104431341Y-105666106D01*
X104418030Y-105675000D01*
X104103750Y-105675000D01*
X103945000Y-105833750D01*
X103945000Y-105901310D01*
X104041673Y-106134699D01*
X104191536Y-106284561D01*
X104191536Y-106425000D01*
X104216400Y-106550000D01*
X104191536Y-106675000D01*
X104191536Y-107018877D01*
X104190919Y-107019000D01*
X104043323Y-107048359D01*
X103875948Y-107160194D01*
X103847717Y-107202445D01*
X102882423Y-108167740D01*
X102840173Y-108195970D01*
X102758124Y-108318767D01*
X102728338Y-108363345D01*
X102689065Y-108560776D01*
X102698979Y-108610615D01*
X102698978Y-110585430D01*
X100290409Y-112994000D01*
X94669592Y-112994000D01*
X93651759Y-111976167D01*
X93731000Y-111784861D01*
X93731000Y-111295139D01*
X93543592Y-110842694D01*
X93431899Y-110731001D01*
X94325165Y-110731001D01*
X94374999Y-110740914D01*
X94424833Y-110731001D01*
X94424834Y-110731001D01*
X94572430Y-110701642D01*
X94739805Y-110589807D01*
X94768038Y-110547553D01*
X95779841Y-109535750D01*
X96465000Y-109535750D01*
X96465000Y-109776309D01*
X96561673Y-110009698D01*
X96740301Y-110188327D01*
X96973690Y-110285000D01*
X97214250Y-110285000D01*
X97373000Y-110126250D01*
X97373000Y-109377000D01*
X96623750Y-109377000D01*
X96465000Y-109535750D01*
X95779841Y-109535750D01*
X96465000Y-108850592D01*
X96465000Y-108964250D01*
X96623750Y-109123000D01*
X97373000Y-109123000D01*
X97373000Y-109103000D01*
X97627000Y-109103000D01*
X97627000Y-109123000D01*
X97647000Y-109123000D01*
X97647000Y-109377000D01*
X97627000Y-109377000D01*
X97627000Y-110126250D01*
X97785750Y-110285000D01*
X98026310Y-110285000D01*
X98251536Y-110191708D01*
X98251536Y-110325000D01*
X98276400Y-110450000D01*
X98251536Y-110575000D01*
X98251536Y-110975000D01*
X98276400Y-111100000D01*
X98251536Y-111225000D01*
X98251536Y-111625000D01*
X98281106Y-111773659D01*
X98365314Y-111899686D01*
X98491341Y-111983894D01*
X98640000Y-112013464D01*
X100420000Y-112013464D01*
X100568659Y-111983894D01*
X100694686Y-111899686D01*
X100778894Y-111773659D01*
X100808464Y-111625000D01*
X100808464Y-111225000D01*
X100783600Y-111100000D01*
X100808464Y-110975000D01*
X100808464Y-110613370D01*
X100867431Y-110601641D01*
X101034806Y-110489806D01*
X101063038Y-110447553D01*
X102322556Y-109188036D01*
X102364806Y-109159806D01*
X102476641Y-108992431D01*
X102506000Y-108844835D01*
X102506000Y-108844834D01*
X102515913Y-108795001D01*
X102506000Y-108745167D01*
X102506000Y-106709591D01*
X103945000Y-105270592D01*
X103945000Y-105316250D01*
X104103750Y-105475000D01*
X105343000Y-105475000D01*
X105343000Y-104898750D01*
X105597000Y-104898750D01*
X105597000Y-105475000D01*
X106836250Y-105475000D01*
X106995000Y-105316250D01*
X106995000Y-105248690D01*
X106898327Y-105015301D01*
X106719698Y-104836673D01*
X106486309Y-104740000D01*
X105755750Y-104740000D01*
X105597000Y-104898750D01*
X105343000Y-104898750D01*
X105184250Y-104740000D01*
X104475592Y-104740000D01*
X104709592Y-104506000D01*
X105950166Y-104506000D01*
X106000000Y-104515913D01*
X106049834Y-104506000D01*
X106049835Y-104506000D01*
X106197431Y-104476641D01*
X106364806Y-104364806D01*
X106393038Y-104322553D01*
X107135331Y-103580261D01*
X109049955Y-103580261D01*
X109099789Y-103590174D01*
X109149623Y-103580261D01*
X109149624Y-103580261D01*
X109297220Y-103550902D01*
X109464595Y-103439067D01*
X109492827Y-103396814D01*
X109936550Y-102953092D01*
X109950484Y-102973946D01*
X110076511Y-103058154D01*
X110225170Y-103087724D01*
X110776350Y-103087724D01*
X110925009Y-103058154D01*
X111051036Y-102973946D01*
X111135244Y-102847919D01*
X111164814Y-102699260D01*
X111164814Y-101698500D01*
X111135244Y-101549841D01*
X111051036Y-101423814D01*
X110925009Y-101339606D01*
X110776350Y-101310036D01*
X110225170Y-101310036D01*
X110076511Y-101339606D01*
X109950484Y-101423814D01*
X109866276Y-101549841D01*
X109836706Y-101698500D01*
X109836706Y-101710509D01*
X109777738Y-101722239D01*
X109722951Y-101758847D01*
X109610364Y-101834074D01*
X109582133Y-101876325D01*
X109384430Y-102074028D01*
X109384430Y-102071878D01*
X109225682Y-102071878D01*
X109384430Y-101913130D01*
X109384430Y-101572191D01*
X109287757Y-101338802D01*
X109109129Y-101160173D01*
X108875740Y-101063500D01*
X108759590Y-101063500D01*
X108600840Y-101222250D01*
X108600840Y-102071880D01*
X108620840Y-102071880D01*
X108620840Y-102325880D01*
X108600840Y-102325880D01*
X108600840Y-102345880D01*
X108346840Y-102345880D01*
X108346840Y-102325880D01*
X107722000Y-102325880D01*
X107563250Y-102484630D01*
X107563250Y-102568261D01*
X106975574Y-102568261D01*
X106925739Y-102558348D01*
X106728307Y-102597620D01*
X106708657Y-102610750D01*
X106639930Y-102656671D01*
X106621341Y-102154623D01*
X106418965Y-101666042D01*
X106165011Y-101572191D01*
X107563250Y-101572191D01*
X107563250Y-101913130D01*
X107722000Y-102071880D01*
X108346840Y-102071880D01*
X108346840Y-101222250D01*
X108188090Y-101063500D01*
X108071940Y-101063500D01*
X107838551Y-101160173D01*
X107659923Y-101338802D01*
X107563250Y-101572191D01*
X106165011Y-101572191D01*
X106152163Y-101567443D01*
X105179605Y-102540000D01*
X105193748Y-102554142D01*
X105014142Y-102733748D01*
X105000000Y-102719605D01*
X104027443Y-103692163D01*
X104044929Y-103739479D01*
X101677446Y-106106963D01*
X101635195Y-106135194D01*
X101557650Y-106251250D01*
X101523360Y-106302569D01*
X101484087Y-106500000D01*
X101494001Y-106549839D01*
X101494000Y-108585408D01*
X101025329Y-109054079D01*
X100896250Y-108925000D01*
X100581970Y-108925000D01*
X100568659Y-108916106D01*
X100420000Y-108886536D01*
X99383000Y-108886536D01*
X99383000Y-108763464D01*
X100420000Y-108763464D01*
X100568659Y-108733894D01*
X100581970Y-108725000D01*
X100896250Y-108725000D01*
X101055000Y-108566250D01*
X101055000Y-108509583D01*
X101063039Y-108497552D01*
X101117553Y-108443038D01*
X101159807Y-108414805D01*
X101271642Y-108247430D01*
X101301001Y-108099834D01*
X101310914Y-108050000D01*
X101301001Y-108000166D01*
X101301001Y-104257329D01*
X101308591Y-104252258D01*
X101311673Y-104259699D01*
X101490302Y-104438327D01*
X101723691Y-104535000D01*
X101964250Y-104535000D01*
X102123000Y-104376250D01*
X102123000Y-103627000D01*
X102377000Y-103627000D01*
X102377000Y-104376250D01*
X102535750Y-104535000D01*
X102776309Y-104535000D01*
X103009698Y-104438327D01*
X103188327Y-104259699D01*
X103285000Y-104026310D01*
X103285000Y-103785750D01*
X103126250Y-103627000D01*
X102377000Y-103627000D01*
X102123000Y-103627000D01*
X102103000Y-103627000D01*
X102103000Y-103373000D01*
X102123000Y-103373000D01*
X102123000Y-103353000D01*
X102377000Y-103353000D01*
X102377000Y-103373000D01*
X103126250Y-103373000D01*
X103285000Y-103214250D01*
X103285000Y-102973690D01*
X103188327Y-102740301D01*
X103160831Y-102712805D01*
X103314677Y-102558958D01*
X103360955Y-102447234D01*
X103378659Y-102925377D01*
X103581035Y-103413958D01*
X103847837Y-103512557D01*
X104820395Y-102540000D01*
X103847837Y-101567443D01*
X103581035Y-101666042D01*
X103411350Y-102122815D01*
X103411350Y-101984630D01*
X103252600Y-101825880D01*
X102627760Y-101825880D01*
X102627760Y-101845880D01*
X102373760Y-101845880D01*
X102373760Y-101825880D01*
X101748920Y-101825880D01*
X101590170Y-101984630D01*
X101590170Y-102325569D01*
X101659020Y-102491788D01*
X101490302Y-102561673D01*
X101311673Y-102740301D01*
X101308591Y-102747742D01*
X101298659Y-102741106D01*
X101150000Y-102711536D01*
X100979840Y-102711536D01*
X100979840Y-102503530D01*
X101024116Y-102473946D01*
X101108324Y-102347919D01*
X101137894Y-102199260D01*
X101137894Y-101198500D01*
X101112770Y-101072191D01*
X101590170Y-101072191D01*
X101590170Y-101413130D01*
X101748920Y-101571880D01*
X102373760Y-101571880D01*
X102373760Y-100722250D01*
X102627760Y-100722250D01*
X102627760Y-101571880D01*
X103252600Y-101571880D01*
X103411350Y-101413130D01*
X103411350Y-101072191D01*
X103314677Y-100838802D01*
X103136049Y-100660173D01*
X102902660Y-100563500D01*
X102786510Y-100563500D01*
X102627760Y-100722250D01*
X102373760Y-100722250D01*
X102215010Y-100563500D01*
X102098860Y-100563500D01*
X101865471Y-100660173D01*
X101686843Y-100838802D01*
X101590170Y-101072191D01*
X101112770Y-101072191D01*
X101108324Y-101049841D01*
X101024116Y-100923814D01*
X100898089Y-100839606D01*
X100749430Y-100810036D01*
X100198250Y-100810036D01*
X100049591Y-100839606D01*
X99923564Y-100923814D01*
X99839356Y-101049841D01*
X99809786Y-101198500D01*
X99809786Y-102199260D01*
X99839356Y-102347919D01*
X99923564Y-102473946D01*
X99967841Y-102503530D01*
X99967841Y-103068303D01*
X99961536Y-103100000D01*
X99961536Y-103205697D01*
X99957927Y-103223840D01*
X99961536Y-103241983D01*
X99961536Y-103900000D01*
X99991106Y-104048659D01*
X100075314Y-104174686D01*
X100201341Y-104258894D01*
X100257990Y-104270162D01*
X100268412Y-104322558D01*
X100273360Y-104347431D01*
X100289001Y-104370840D01*
X100289001Y-104986536D01*
X98640000Y-104986536D01*
X98491341Y-105016106D01*
X98412179Y-105069000D01*
X93434833Y-105069000D01*
X93384999Y-105059087D01*
X93335165Y-105069000D01*
X93330503Y-105069927D01*
X93364353Y-104963958D01*
X92500000Y-104099605D01*
X91635647Y-104963958D01*
X91715920Y-105215259D01*
X92021071Y-105325954D01*
X91802694Y-105416408D01*
X91456408Y-105762694D01*
X91269000Y-106215139D01*
X91269000Y-106704861D01*
X91456408Y-107157306D01*
X91802694Y-107503592D01*
X92255139Y-107691000D01*
X92744861Y-107691000D01*
X93197306Y-107503592D01*
X93543592Y-107157306D01*
X93731000Y-106704861D01*
X93731000Y-106215139D01*
X93675438Y-106081000D01*
X94703408Y-106081000D01*
X92936167Y-107848241D01*
X92744861Y-107769000D01*
X92255139Y-107769000D01*
X91802694Y-107956408D01*
X91456408Y-108302694D01*
X91269000Y-108755139D01*
X91269000Y-109244861D01*
X91456408Y-109697306D01*
X91630024Y-109870922D01*
X91608960Y-109902446D01*
X90952444Y-110558963D01*
X90910194Y-110587193D01*
X90821445Y-110720017D01*
X90798359Y-110754568D01*
X90759086Y-110951999D01*
X88248724Y-110951999D01*
X87843299Y-110686191D01*
X87821208Y-110675129D01*
X87800651Y-110661419D01*
X87748864Y-110638901D01*
X87095736Y-110401827D01*
X87071691Y-110396143D01*
X87048534Y-110387531D01*
X86992974Y-110377534D01*
X86992956Y-110377530D01*
X86992947Y-110377530D01*
X86320992Y-110299188D01*
X86294909Y-110294000D01*
X83456000Y-110294000D01*
X83456000Y-106234400D01*
X83633517Y-106377166D01*
X84173000Y-106535000D01*
X84473000Y-106535000D01*
X84473000Y-105227000D01*
X84727000Y-105227000D01*
X84727000Y-106535000D01*
X85027000Y-106535000D01*
X85566483Y-106377166D01*
X86004500Y-106024896D01*
X86274367Y-105531819D01*
X86291904Y-105449039D01*
X86608096Y-105449039D01*
X86625633Y-105531819D01*
X86895500Y-106024896D01*
X87333517Y-106377166D01*
X87873000Y-106535000D01*
X88173000Y-106535000D01*
X88173000Y-105227000D01*
X88427000Y-105227000D01*
X88427000Y-106535000D01*
X88727000Y-106535000D01*
X89266483Y-106377166D01*
X89704500Y-106024896D01*
X89974367Y-105531819D01*
X89991904Y-105449039D01*
X89869915Y-105227000D01*
X88427000Y-105227000D01*
X88173000Y-105227000D01*
X86730085Y-105227000D01*
X86608096Y-105449039D01*
X86291904Y-105449039D01*
X86169915Y-105227000D01*
X84727000Y-105227000D01*
X84473000Y-105227000D01*
X84453000Y-105227000D01*
X84453000Y-104973000D01*
X84473000Y-104973000D01*
X84473000Y-104953000D01*
X84727000Y-104953000D01*
X84727000Y-104973000D01*
X86169915Y-104973000D01*
X86291904Y-104750961D01*
X86274367Y-104668181D01*
X86004500Y-104175104D01*
X85980746Y-104156000D01*
X86919254Y-104156000D01*
X86895500Y-104175104D01*
X86625633Y-104668181D01*
X86608096Y-104750961D01*
X86730085Y-104973000D01*
X88173000Y-104973000D01*
X88173000Y-103665000D01*
X88427000Y-103665000D01*
X88427000Y-104973000D01*
X89869915Y-104973000D01*
X89991904Y-104750961D01*
X89974367Y-104668181D01*
X89704500Y-104175104D01*
X89266483Y-103822834D01*
X88816823Y-103691279D01*
X91003282Y-103691279D01*
X91029685Y-104281458D01*
X91204741Y-104704080D01*
X91456042Y-104784353D01*
X92320395Y-103920000D01*
X92679605Y-103920000D01*
X93543958Y-104784353D01*
X93795259Y-104704080D01*
X93996718Y-104148721D01*
X93970315Y-103558542D01*
X93795259Y-103135920D01*
X93543958Y-103055647D01*
X92679605Y-103920000D01*
X92320395Y-103920000D01*
X91456042Y-103055647D01*
X91204741Y-103135920D01*
X91003282Y-103691279D01*
X88816823Y-103691279D01*
X88727000Y-103665000D01*
X88427000Y-103665000D01*
X88173000Y-103665000D01*
X88057971Y-103665000D01*
X88056000Y-103655091D01*
X88056000Y-103535000D01*
X88314250Y-103535000D01*
X88473000Y-103376250D01*
X88473000Y-102452000D01*
X88727000Y-102452000D01*
X88727000Y-103376250D01*
X88885750Y-103535000D01*
X89476310Y-103535000D01*
X89709699Y-103438327D01*
X89888327Y-103259698D01*
X89985000Y-103026309D01*
X89985000Y-102876042D01*
X91635647Y-102876042D01*
X92500000Y-103740395D01*
X93364353Y-102876042D01*
X93284080Y-102624741D01*
X92728721Y-102423282D01*
X92138542Y-102449685D01*
X91715920Y-102624741D01*
X91635647Y-102876042D01*
X89985000Y-102876042D01*
X89985000Y-102610750D01*
X89826250Y-102452000D01*
X88727000Y-102452000D01*
X88473000Y-102452000D01*
X88453000Y-102452000D01*
X88453000Y-102198000D01*
X88473000Y-102198000D01*
X88473000Y-102178000D01*
X88727000Y-102178000D01*
X88727000Y-102198000D01*
X89826250Y-102198000D01*
X89985000Y-102039250D01*
X89985000Y-101806000D01*
X94150166Y-101806000D01*
X94200000Y-101815913D01*
X94249834Y-101806000D01*
X94249835Y-101806000D01*
X94397431Y-101776641D01*
X94564806Y-101664806D01*
X94593039Y-101622553D01*
X94679842Y-101535750D01*
X95965000Y-101535750D01*
X95965000Y-101776309D01*
X96061673Y-102009698D01*
X96240301Y-102188327D01*
X96473690Y-102285000D01*
X96714250Y-102285000D01*
X96873000Y-102126250D01*
X96873000Y-101377000D01*
X97127000Y-101377000D01*
X97127000Y-102126250D01*
X97285750Y-102285000D01*
X97526310Y-102285000D01*
X97750000Y-102192344D01*
X97973690Y-102285000D01*
X98214250Y-102285000D01*
X98373000Y-102126250D01*
X98373000Y-101377000D01*
X98627000Y-101377000D01*
X98627000Y-102126250D01*
X98785750Y-102285000D01*
X99026310Y-102285000D01*
X99259699Y-102188327D01*
X99438327Y-102009698D01*
X99535000Y-101776309D01*
X99535000Y-101535750D01*
X99376250Y-101377000D01*
X98627000Y-101377000D01*
X98373000Y-101377000D01*
X97127000Y-101377000D01*
X96873000Y-101377000D01*
X96123750Y-101377000D01*
X95965000Y-101535750D01*
X94679842Y-101535750D01*
X95959592Y-100256000D01*
X96232621Y-100256000D01*
X96241106Y-100298659D01*
X96247742Y-100308591D01*
X96240301Y-100311673D01*
X96061673Y-100490302D01*
X95965000Y-100723691D01*
X95965000Y-100964250D01*
X96123750Y-101123000D01*
X96873000Y-101123000D01*
X96873000Y-101103000D01*
X97127000Y-101103000D01*
X97127000Y-101123000D01*
X98373000Y-101123000D01*
X98373000Y-101103000D01*
X98627000Y-101103000D01*
X98627000Y-101123000D01*
X99376250Y-101123000D01*
X99535000Y-100964250D01*
X99535000Y-100723691D01*
X99438327Y-100490302D01*
X99259699Y-100311673D01*
X99252258Y-100308591D01*
X99258894Y-100298659D01*
X99288464Y-100150000D01*
X99288464Y-99807120D01*
X100837064Y-99807120D01*
X100865516Y-99950159D01*
X100949724Y-100076186D01*
X101075751Y-100160394D01*
X101224410Y-100189964D01*
X101775590Y-100189964D01*
X101924249Y-100160394D01*
X102050276Y-100076186D01*
X102134484Y-99950159D01*
X102164054Y-99801500D01*
X102164054Y-99127867D01*
X103325922Y-97966000D01*
X103715360Y-97966000D01*
X103829677Y-98241985D01*
X104218015Y-98630323D01*
X104458657Y-98730000D01*
X104218015Y-98829677D01*
X103829677Y-99218015D01*
X103619510Y-99725404D01*
X103619510Y-100274596D01*
X103829677Y-100781985D01*
X104156225Y-101108533D01*
X104126042Y-101121035D01*
X104027443Y-101387837D01*
X105000000Y-102360395D01*
X105972557Y-101387837D01*
X105873958Y-101121035D01*
X105842835Y-101109473D01*
X106170323Y-100781985D01*
X106367018Y-100307120D01*
X108837064Y-100307120D01*
X108865516Y-100450159D01*
X108949724Y-100576186D01*
X109075751Y-100660394D01*
X109224410Y-100689964D01*
X109775590Y-100689964D01*
X109924249Y-100660394D01*
X110050276Y-100576186D01*
X110134484Y-100450159D01*
X110164054Y-100301500D01*
X110164054Y-99300740D01*
X110134484Y-99152081D01*
X110106056Y-99109535D01*
X110572556Y-98643036D01*
X110614806Y-98614806D01*
X110726641Y-98447431D01*
X110756000Y-98299835D01*
X110756000Y-98299834D01*
X110762722Y-98266042D01*
X110798659Y-98258894D01*
X110924686Y-98174686D01*
X111008894Y-98048659D01*
X111038464Y-97900000D01*
X111038464Y-97100000D01*
X111008894Y-96951341D01*
X110924686Y-96825314D01*
X110798659Y-96741106D01*
X110650000Y-96711536D01*
X109850000Y-96711536D01*
X109701341Y-96741106D01*
X109575314Y-96825314D01*
X109500000Y-96938030D01*
X109424686Y-96825314D01*
X109298659Y-96741106D01*
X109150000Y-96711536D01*
X108350000Y-96711536D01*
X108201341Y-96741106D01*
X108075314Y-96825314D01*
X107991106Y-96951341D01*
X107982621Y-96994000D01*
X106301208Y-96994000D01*
X106170323Y-96678015D01*
X105781985Y-96289677D01*
X105274596Y-96079510D01*
X104725404Y-96079510D01*
X104218015Y-96289677D01*
X103829677Y-96678015D01*
X103715360Y-96954000D01*
X103166165Y-96954000D01*
X103116330Y-96944087D01*
X102918898Y-96983359D01*
X102902973Y-96994000D01*
X102751524Y-97095194D01*
X102723293Y-97137445D01*
X101448463Y-98412276D01*
X101224410Y-98412276D01*
X101075751Y-98441846D01*
X100949724Y-98526054D01*
X100865516Y-98652081D01*
X100837064Y-98795120D01*
X98998713Y-98795120D01*
X98948879Y-98785207D01*
X98899045Y-98795120D01*
X98751449Y-98824479D01*
X98584074Y-98936314D01*
X98567221Y-98961536D01*
X98100000Y-98961536D01*
X97951341Y-98991106D01*
X97825314Y-99075314D01*
X97750000Y-99188030D01*
X97674686Y-99075314D01*
X97548659Y-98991106D01*
X97400000Y-98961536D01*
X96600000Y-98961536D01*
X96451341Y-98991106D01*
X96325314Y-99075314D01*
X96241106Y-99201341D01*
X96232621Y-99244000D01*
X95799833Y-99244000D01*
X95749999Y-99234087D01*
X95700165Y-99244000D01*
X95552569Y-99273359D01*
X95385194Y-99385194D01*
X95356963Y-99427445D01*
X93990409Y-100794000D01*
X89738464Y-100794000D01*
X89738464Y-100450000D01*
X89713600Y-100325000D01*
X89738464Y-100200000D01*
X89738464Y-99800000D01*
X89713600Y-99675000D01*
X89738464Y-99550000D01*
X89738464Y-99409562D01*
X89888327Y-99259698D01*
X89985000Y-99026309D01*
X89985000Y-98958750D01*
X89826250Y-98800000D01*
X89681518Y-98800000D01*
X89709699Y-98788327D01*
X89888327Y-98609698D01*
X89939080Y-98487170D01*
X89985000Y-98441250D01*
X89985000Y-97960750D01*
X89826250Y-97802000D01*
X88727000Y-97802000D01*
X88727000Y-97822000D01*
X88473000Y-97822000D01*
X88473000Y-97802000D01*
X88453000Y-97802000D01*
X88453000Y-97548000D01*
X88473000Y-97548000D01*
X88473000Y-96623750D01*
X88727000Y-96623750D01*
X88727000Y-97548000D01*
X89826250Y-97548000D01*
X89985000Y-97389250D01*
X89985000Y-96973691D01*
X89888327Y-96740302D01*
X89709699Y-96561673D01*
X89476310Y-96465000D01*
X88885750Y-96465000D01*
X88727000Y-96623750D01*
X88473000Y-96623750D01*
X88314250Y-96465000D01*
X88056000Y-96465000D01*
X88056000Y-96344908D01*
X88057971Y-96335000D01*
X88173000Y-96335000D01*
X88173000Y-95027000D01*
X88427000Y-95027000D01*
X88427000Y-96335000D01*
X88727000Y-96335000D01*
X89266483Y-96177166D01*
X89704500Y-95824896D01*
X89974367Y-95331819D01*
X89991904Y-95249039D01*
X89869915Y-95027000D01*
X88427000Y-95027000D01*
X88173000Y-95027000D01*
X86730085Y-95027000D01*
X86608096Y-95249039D01*
X86625633Y-95331819D01*
X86895500Y-95824896D01*
X86919254Y-95844000D01*
X85980746Y-95844000D01*
X86004500Y-95824896D01*
X86274367Y-95331819D01*
X86291904Y-95249039D01*
X86169915Y-95027000D01*
X84727000Y-95027000D01*
X84727000Y-95047000D01*
X84473000Y-95047000D01*
X84473000Y-95027000D01*
X84453000Y-95027000D01*
X84453000Y-94853958D01*
X95325647Y-94853958D01*
X95405920Y-95105259D01*
X95961279Y-95306718D01*
X96551458Y-95280315D01*
X96974080Y-95105259D01*
X97054353Y-94853958D01*
X96190000Y-93989605D01*
X95325647Y-94853958D01*
X84453000Y-94853958D01*
X84453000Y-94773000D01*
X84473000Y-94773000D01*
X84473000Y-93465000D01*
X84727000Y-93465000D01*
X84727000Y-94773000D01*
X86169915Y-94773000D01*
X86291904Y-94550961D01*
X86608096Y-94550961D01*
X86730085Y-94773000D01*
X88173000Y-94773000D01*
X88173000Y-93465000D01*
X88427000Y-93465000D01*
X88427000Y-94773000D01*
X89869915Y-94773000D01*
X89991904Y-94550961D01*
X89974367Y-94468181D01*
X89704500Y-93975104D01*
X89266483Y-93622834D01*
X89124447Y-93581279D01*
X94693282Y-93581279D01*
X94719685Y-94171458D01*
X94894741Y-94594080D01*
X95146042Y-94674353D01*
X96010395Y-93810000D01*
X96369605Y-93810000D01*
X97233958Y-94674353D01*
X97485259Y-94594080D01*
X97686718Y-94038721D01*
X97660315Y-93448542D01*
X97485259Y-93025920D01*
X97233958Y-92945647D01*
X96369605Y-93810000D01*
X96010395Y-93810000D01*
X95146042Y-92945647D01*
X94894741Y-93025920D01*
X94693282Y-93581279D01*
X89124447Y-93581279D01*
X88727000Y-93465000D01*
X88427000Y-93465000D01*
X88173000Y-93465000D01*
X87873000Y-93465000D01*
X87333517Y-93622834D01*
X86895500Y-93975104D01*
X86625633Y-94468181D01*
X86608096Y-94550961D01*
X86291904Y-94550961D01*
X86274367Y-94468181D01*
X86004500Y-93975104D01*
X85566483Y-93622834D01*
X85027000Y-93465000D01*
X84727000Y-93465000D01*
X84473000Y-93465000D01*
X84173000Y-93465000D01*
X83633517Y-93622834D01*
X83456000Y-93765600D01*
X83456000Y-92313958D01*
X95325647Y-92313958D01*
X95397852Y-92540000D01*
X95325647Y-92766042D01*
X96190000Y-93630395D01*
X97054353Y-92766042D01*
X96982148Y-92540000D01*
X97054353Y-92313958D01*
X96190000Y-91449605D01*
X95325647Y-92313958D01*
X83456000Y-92313958D01*
X83456000Y-91041279D01*
X94693282Y-91041279D01*
X94719685Y-91631458D01*
X94894741Y-92054080D01*
X95146042Y-92134353D01*
X96010395Y-91270000D01*
X96369605Y-91270000D01*
X97233958Y-92134353D01*
X97485259Y-92054080D01*
X97686718Y-91498721D01*
X97660315Y-90908542D01*
X97485259Y-90485920D01*
X97233958Y-90405647D01*
X96369605Y-91270000D01*
X96010395Y-91270000D01*
X95146042Y-90405647D01*
X94894741Y-90485920D01*
X94693282Y-91041279D01*
X83456000Y-91041279D01*
X83456000Y-89773958D01*
X95325647Y-89773958D01*
X95397852Y-90000000D01*
X95325647Y-90226042D01*
X96190000Y-91090395D01*
X97054353Y-90226042D01*
X96982148Y-90000000D01*
X97054353Y-89773958D01*
X96190000Y-88909605D01*
X95325647Y-89773958D01*
X83456000Y-89773958D01*
X83456000Y-88501279D01*
X94693282Y-88501279D01*
X94719685Y-89091458D01*
X94894741Y-89514080D01*
X95146042Y-89594353D01*
X96010395Y-88730000D01*
X96369605Y-88730000D01*
X97233958Y-89594353D01*
X97485259Y-89514080D01*
X97686718Y-88958721D01*
X97660315Y-88368542D01*
X97485259Y-87945920D01*
X97233958Y-87865647D01*
X96369605Y-88730000D01*
X96010395Y-88730000D01*
X95146042Y-87865647D01*
X94894741Y-87945920D01*
X94693282Y-88501279D01*
X83456000Y-88501279D01*
X83456000Y-85375872D01*
X88119130Y-85375872D01*
X88119130Y-86124128D01*
X88405476Y-86815427D01*
X88934573Y-87344524D01*
X89625872Y-87630870D01*
X90374128Y-87630870D01*
X91065427Y-87344524D01*
X91175993Y-87233958D01*
X95325647Y-87233958D01*
X95397852Y-87460000D01*
X95325647Y-87686042D01*
X96190000Y-88550395D01*
X97054353Y-87686042D01*
X96982148Y-87460000D01*
X97054353Y-87233958D01*
X96190000Y-86369605D01*
X95325647Y-87233958D01*
X91175993Y-87233958D01*
X91594524Y-86815427D01*
X91880870Y-86124128D01*
X91880870Y-85961279D01*
X94693282Y-85961279D01*
X94719685Y-86551458D01*
X94894741Y-86974080D01*
X95146042Y-87054353D01*
X96010395Y-86190000D01*
X96369605Y-86190000D01*
X97233958Y-87054353D01*
X97485259Y-86974080D01*
X97686718Y-86418721D01*
X97660315Y-85828542D01*
X97485259Y-85405920D01*
X97233958Y-85325647D01*
X96369605Y-86190000D01*
X96010395Y-86190000D01*
X95146042Y-85325647D01*
X94894741Y-85405920D01*
X94693282Y-85961279D01*
X91880870Y-85961279D01*
X91880870Y-85375872D01*
X91785672Y-85146042D01*
X95325647Y-85146042D01*
X96190000Y-86010395D01*
X97054353Y-85146042D01*
X96974080Y-84894741D01*
X96418721Y-84693282D01*
X95828542Y-84719685D01*
X95405920Y-84894741D01*
X95325647Y-85146042D01*
X91785672Y-85146042D01*
X91594524Y-84684573D01*
X91065427Y-84155476D01*
X90374128Y-83869130D01*
X89625872Y-83869130D01*
X88934573Y-84155476D01*
X88405476Y-84684573D01*
X88119130Y-85375872D01*
X83456000Y-85375872D01*
X83456000Y-83456000D01*
X110294001Y-83456000D01*
X110294000Y-86294908D01*
G36*
X88762286Y-98761536D02*
X88727002Y-98761536D01*
X88727002Y-98726252D01*
X88762286Y-98761536D01*
X88762286Y-98761536D01*
G37*
X88762286Y-98761536D02*
X88727002Y-98761536D01*
X88727002Y-98726252D01*
X88762286Y-98761536D01*
G36*
X88472998Y-98761536D02*
X88453000Y-98761536D01*
X88453000Y-98746250D01*
X88472998Y-98726252D01*
X88472998Y-98761536D01*
X88472998Y-98761536D01*
G37*
X88472998Y-98761536D02*
X88453000Y-98761536D01*
X88453000Y-98746250D01*
X88472998Y-98726252D01*
X88472998Y-98761536D01*
G04 #@! TD*
M02*
